<?xml version="1.0" encoding="UTF-8"?>
<svg xmlns="http://www.w3.org/2000/svg" xmlns:xlink="http://www.w3.org/1999/xlink" width="826px" height="207px" viewBox="0 0 827 207" version="1.1">
<g id="surface1">
<path style=" stroke:none;fill-rule:evenodd;fill:rgb(0%,0%,0%);fill-opacity:1;" d="M 520.472656 35.550781 C 500.21875 35.550781 480.402344 44.523438 479.082031 71.222656 L 479.082031 169.691406 L 504.84375 169.691406 L 504.84375 95.144531 L 522.675781 95.144531 C 529.28125 95.144531 532.804688 93.4375 531.480469 74.851562 L 504.84375 74.851562 L 504.84375 73.785156 C 504.84375 61.609375 510.347656 56.910156 521.574219 56.910156 L 530.820312 56.910156 C 536.769531 56.910156 538.527344 50.503906 538.308594 36.40625 C 532.390625 35.734375 526.429688 35.449219 520.472656 35.550781 Z M 465.652344 154.3125 C 465.652344 164.777344 465.210938 170.972656 444.738281 170.972656 C 426.683594 170.972656 414.351562 164.136719 414.351562 139.785156 L 414.351562 65.242188 C 414.351562 56.699219 422.5 53.917969 440.113281 50.289062 L 440.113281 74.851562 L 466.3125 74.851562 C 466.753906 93.222656 464.109375 95.144531 457.726562 95.144531 L 440.113281 95.144531 L 440.113281 136.371094 C 440.113281 146.191406 443.191406 149.824219 452.660156 150.039062 C 456.933594 150.082031 461.203125 149.796875 465.429688 149.1875 C 465.605469 150.890625 465.679688 152.601562 465.652344 154.3125 Z M 36.757812 171.183594 C 19.585938 171.183594 9.015625 168.621094 3.070312 164.136719 C -1.769531 160.507812 -0.671875 151.324219 4.835938 142.136719 C 14.265625 147.382812 25 150.039062 35.878906 149.824219 C 45.566406 149.824219 51.949219 148.117188 51.949219 141.921875 C 51.949219 135.511719 46.226562 134.234375 32.574219 131.671875 C 14.964844 128.25 2.191406 120.988281 2.191406 102.621094 C 2.191406 84.675781 18.042969 73.144531 42.265625 73.144531 C 53.953125 72.984375 65.554688 75.089844 76.390625 79.339844 C 74.410156 94.503906 70.445312 97.28125 65.601562 97.28125 C 62.796875 97.28125 60.230469 96.664062 57.277344 95.957031 C 53.277344 94.996094 48.570312 93.867188 41.605469 93.867188 C 32.355469 93.867188 27.292969 96.425781 27.292969 101.765625 C 27.292969 107.867188 33.273438 108.933594 42.007812 110.492188 L 43.363281 110.738281 C 65.164062 114.796875 77.710938 122.484375 77.710938 140.855469 C 77.710938 157.300781 67.363281 171.183594 36.757812 171.183594 Z M 150.367188 169.691406 L 150.367188 109.03125 C 150.367188 97.492188 142.660156 93.867188 133.855469 93.867188 C 124.605469 93.867188 116.460938 97.492188 116.460938 109.03125 L 116.460938 169.691406 L 90.703125 169.691406 L 90.703125 110.308594 C 90.703125 80.195312 112.5 73.144531 130.109375 73.144531 C 147.507812 73.144531 157.410156 77.84375 163.355469 86.175781 C 170.183594 77.84375 178.988281 73.144531 196.382812 73.144531 C 213.996094 73.144531 236.234375 80.195312 236.234375 110.308594 L 236.234375 169.261719 C 232.613281 169.992188 228.925781 170.347656 225.226562 170.332031 C 213.335938 170.332031 210.035156 167.125 210.035156 161.359375 L 210.035156 109.03125 C 210.035156 97.28125 202.105469 93.867188 193.519531 93.867188 C 184.496094 93.867188 176.125 97.492188 176.125 109.03125 L 176.125 169.691406 Z M 250.105469 141.710938 C 250.105469 162.425781 263.3125 171.398438 293.035156 171.398438 C 307.332031 171.75 321.632812 170.820312 335.75 168.621094 L 335.75 108.8125 C 335.75 85.320312 319.019531 73.144531 295.679688 73.144531 C 276.304688 73.144531 261.773438 78.910156 252.96875 86.390625 C 257.589844 102.195312 263.972656 103.261719 269.261719 101.128906 C 276.167969 96.839844 284.167969 94.472656 292.378906 94.289062 C 300.742188 94.289062 310.652344 98.347656 310.652344 109.03125 L 310.652344 112.871094 C 306.46875 112.660156 302.507812 112.660156 293.917969 112.660156 C 267.714844 112.660156 250.105469 120.566406 250.105469 141.710938 Z M 295.460938 129.960938 C 277.847656 129.960938 275.207031 134.660156 275.207031 141.28125 C 275.207031 147.6875 278.949219 151.75 294.800781 151.75 C 300.089844 151.800781 305.382812 151.585938 310.652344 151.109375 L 310.652344 130.175781 C 307.789062 129.960938 301.625 129.960938 295.460938 129.960938 Z M 391.234375 74.210938 C 371.195312 74.210938 352.484375 82.328125 352.484375 111.589844 L 352.484375 169.691406 L 378.242188 169.691406 L 378.242188 112.871094 C 378.242188 100.484375 382.207031 95.574219 391.234375 95.574219 L 397.839844 95.574219 C 403.78125 95.574219 405.546875 89.378906 405.324219 74.851562 C 400.648438 74.351562 395.941406 74.136719 391.234375 74.210938 Z M 537.867188 111.589844 C 537.867188 82.328125 557.683594 74.210938 578.601562 74.210938 C 583.453125 74.152344 588.304688 74.367188 593.128906 74.851562 C 593.351562 89.378906 591.589844 95.574219 585.648438 95.574219 L 578.601562 95.574219 C 568.472656 95.574219 563.628906 100.699219 563.628906 112.871094 L 563.628906 169.691406 L 537.867188 169.691406 Z M 594.453125 122.914062 C 594.453125 153.667969 613.386719 171.398438 644.429688 171.398438 C 660.5 171.398438 671.296875 167.125 677.015625 162 C 679.800781 159.707031 681.410156 156.355469 681.417969 152.816406 C 680.738281 148.085938 678.675781 143.640625 675.472656 140.003906 C 667.617188 146.90625 657.242188 150.515625 646.632812 150.039062 C 630.558594 150.039062 620.875 141.492188 620.433594 129.53125 L 684.726562 129.53125 C 684.941406 126.972656 684.941406 124.410156 684.941406 122.054688 C 684.941406 96.851562 676.132812 73.144531 641.34375 73.144531 C 615.589844 73.144531 594.453125 91.511719 594.453125 122.914062 Z M 620.433594 112.234375 L 660.941406 112.234375 C 660.5 102.621094 656.539062 93.007812 641.34375 93.007812 C 635.914062 92.8125 630.628906 94.742188 626.699219 98.363281 C 622.761719 101.980469 620.503906 106.984375 620.433594 112.234375 Z M 772.789062 170.332031 C 776.492188 170.347656 780.175781 169.992188 783.796875 169.261719 L 783.796875 110.308594 C 783.796875 80.195312 761.5625 73.144531 740.644531 73.144531 C 719.722656 73.144531 697.933594 81.472656 697.933594 110.308594 L 697.933594 169.691406 L 723.691406 169.691406 L 723.691406 109.03125 C 723.691406 97.492188 731.839844 93.867188 740.644531 93.867188 C 749.453125 93.867188 757.601562 97.28125 757.601562 109.03125 L 757.601562 161.359375 C 757.601562 167.125 760.902344 170.332031 772.789062 170.332031 Z M 772.789062 170.332031 "/>
<path style=" stroke:none;fill-rule:nonzero;fill:rgb(93.333333%,12.54902%,37.647059%);fill-opacity:1;" d="M 789.96875 128.214844 L 827 128.214844 L 827 165.292969 L 789.96875 165.292969 Z M 789.96875 128.214844 "/>
</g>
</svg>
