<svg id="svg" version="1.1" xmlns="http://www.w3.org/2000/svg" xmlns:xlink="http://www.w3.org/1999/xlink" width="400" height="353.6" viewBox="0, 0, 400,353.6"><g id="svgg"><path id="path0" d="M365.871 277.896 C 330.453 277.992,330.309 277.998,329.434 279.414 C 329.315 279.606,329.068 279.672,328.885 279.559 C 328.678 279.431,328.556 292.622,328.562 314.406 C 328.568 334.131,328.706 349.376,328.879 349.269 C 329.048 349.165,329.383 349.316,329.623 349.606 C 329.863 349.896,330.359 350.133,330.724 350.133 C 331.089 350.133,331.388 350.252,331.388 350.398 C 331.388 350.544,346.826 350.622,365.694 350.571 L 400.000 350.479 400.000 314.055 C 400.000 294.021,399.960 277.669,399.912 277.717 C 399.863 277.765,384.545 277.845,365.871 277.896 " stroke="none" fill="#ec1464" fill-rule="evenodd"></path><path id="path1" d="M300.594 0.348 C 298.927 0.482,297.055 0.846,296.434 1.155 C 295.813 1.465,294.411 1.830,293.318 1.967 C 292.118 2.117,291.068 2.477,290.670 2.876 C 290.306 3.239,289.555 3.537,289.001 3.537 C 287.796 3.537,285.765 4.200,285.765 4.593 C 285.765 4.747,285.196 4.979,284.500 5.110 C 283.805 5.240,282.731 5.624,282.113 5.961 C 281.496 6.299,280.314 6.793,279.487 7.058 C 278.660 7.323,277.984 7.662,277.984 7.810 C 277.984 7.958,277.387 8.271,276.658 8.505 C 275.928 8.740,275.093 9.134,274.801 9.382 C 274.509 9.630,273.714 10.091,273.033 10.407 C 271.137 11.288,270.074 11.947,269.679 12.485 C 269.481 12.754,268.722 13.171,267.993 13.411 C 267.263 13.651,266.667 13.999,266.667 14.183 C 266.667 14.367,266.265 14.671,265.773 14.858 C 265.282 15.044,264.791 15.431,264.681 15.716 C 264.572 16.001,263.938 16.414,263.273 16.634 C 262.608 16.853,261.900 17.338,261.700 17.712 C 261.500 18.085,261.200 18.391,261.034 18.391 C 260.407 18.391,250.044 28.359,250.044 28.962 C 250.044 29.178,249.811 29.355,249.526 29.355 C 249.241 29.355,248.827 29.693,248.606 30.106 C 248.385 30.519,247.583 31.428,246.825 32.125 C 246.067 32.822,245.447 33.587,245.447 33.825 C 245.447 34.063,245.128 34.359,244.739 34.483 C 244.350 34.606,244.032 34.879,244.032 35.089 C 244.032 35.558,241.673 39.152,241.258 39.316 C 240.971 39.429,240.579 40.087,239.187 42.794 C 238.836 43.475,238.369 44.191,238.147 44.385 C 237.925 44.580,237.555 45.336,237.324 46.065 C 237.093 46.795,236.763 47.392,236.592 47.392 C 236.420 47.392,236.082 48.068,235.841 48.895 C 235.600 49.721,235.196 50.525,234.943 50.681 C 234.690 50.836,234.483 51.139,234.483 51.354 C 234.483 51.568,234.005 52.755,233.422 53.990 C 232.838 55.225,232.361 56.674,232.361 57.210 C 232.361 57.784,232.085 58.357,231.690 58.604 C 231.210 58.904,230.950 59.628,230.772 61.165 C 230.635 62.343,230.411 63.307,230.275 63.307 C 229.771 63.307,229.178 65.719,229.178 67.767 C 229.178 68.928,228.958 70.747,228.689 71.809 C 227.741 75.557,227.668 76.721,227.371 92.838 C 227.206 101.786,226.903 110.858,226.698 112.997 C 226.013 120.130,225.821 348.523,226.499 349.949 C 227.286 351.610,225.699 351.537,261.234 351.542 C 298.293 351.548,295.150 351.824,295.693 348.518 C 295.850 347.558,295.989 304.240,296.000 252.255 L 296.021 157.737 297.524 157.709 C 298.351 157.694,301.972 157.528,305.570 157.340 C 309.169 157.151,319.991 156.884,329.620 156.745 C 346.785 156.498,347.158 156.478,348.741 155.700 C 349.629 155.264,350.760 154.907,351.254 154.907 C 351.747 154.907,352.550 154.549,353.037 154.111 C 353.524 153.674,354.246 153.094,354.641 152.823 C 355.979 151.908,359.682 147.165,359.682 146.367 C 359.682 145.934,360.007 145.234,360.406 144.810 C 360.949 144.231,361.178 143.390,361.323 141.427 C 361.429 139.991,361.772 138.258,362.085 137.577 C 362.923 135.751,363.306 126.040,363.064 112.723 C 362.851 101.009,362.754 100.315,361.274 99.866 C 360.885 99.748,360.313 99.429,360.003 99.159 C 359.530 98.744,354.416 98.681,327.713 98.758 L 295.985 98.851 296.136 94.253 C 296.219 91.724,296.539 88.462,296.848 87.003 C 297.156 85.544,297.414 83.619,297.422 82.725 C 297.432 81.562,297.637 80.918,298.143 80.460 C 298.545 80.096,298.851 79.370,298.851 78.780 C 298.851 78.208,299.131 77.317,299.473 76.801 C 299.816 76.285,300.572 74.908,301.153 73.743 C 301.735 72.577,302.489 71.414,302.829 71.158 C 303.170 70.903,303.448 70.499,303.448 70.262 C 303.448 70.024,303.727 69.577,304.067 69.268 C 304.408 68.959,305.456 67.896,306.397 66.905 C 307.338 65.914,308.412 65.007,308.784 64.888 C 309.156 64.770,309.461 64.521,309.461 64.335 C 309.461 64.149,309.863 63.844,310.354 63.657 C 310.845 63.470,311.338 63.081,311.449 62.791 C 311.560 62.502,312.204 62.161,312.879 62.035 C 313.555 61.908,314.294 61.506,314.522 61.141 C 314.813 60.674,315.350 60.477,316.331 60.477 C 317.098 60.477,318.372 60.177,319.163 59.809 C 320.403 59.233,322.064 59.090,331.225 58.768 C 337.068 58.563,342.251 58.242,342.742 58.055 C 343.233 57.868,347.763 57.610,352.808 57.480 C 361.349 57.261,363.926 56.962,363.926 56.191 C 363.926 56.020,364.430 55.880,365.047 55.880 C 366.299 55.880,370.284 53.519,370.289 52.774 C 370.290 52.525,370.527 52.230,370.815 52.120 C 371.103 52.010,371.691 51.338,372.122 50.628 C 372.553 49.918,373.107 49.213,373.353 49.062 C 373.599 48.911,373.910 48.195,374.045 47.470 C 374.180 46.746,374.565 45.959,374.902 45.721 C 375.238 45.483,375.619 44.588,375.747 43.733 C 375.875 42.878,376.292 41.567,376.673 40.820 C 377.063 40.054,377.365 38.752,377.365 37.834 C 377.365 36.939,377.676 35.564,378.055 34.779 C 378.557 33.741,378.836 32.055,379.078 28.612 C 379.261 26.005,379.590 23.236,379.809 22.458 C 380.250 20.892,380.785 3.114,380.433 1.712 C 380.311 1.226,379.802 0.642,379.302 0.414 C 378.294 -0.045,306.233 -0.106,300.594 0.348 M92.403 95.139 C 90.802 95.279,89.290 95.553,89.043 95.748 C 88.796 95.943,86.658 96.208,84.291 96.336 C 80.160 96.559,77.807 97.019,77.807 97.603 C 77.807 97.754,76.494 97.949,74.889 98.035 C 73.285 98.122,71.415 98.447,70.734 98.757 C 70.053 99.067,68.700 99.425,67.728 99.551 C 65.751 99.807,63.660 100.460,63.660 100.821 C 63.660 100.951,62.984 101.135,62.157 101.229 C 61.331 101.323,59.907 101.742,58.994 102.159 C 58.080 102.576,57.028 102.918,56.654 102.918 C 56.281 102.918,55.596 103.215,55.132 103.579 C 54.668 103.943,53.731 104.358,53.050 104.501 C 52.370 104.645,51.316 105.064,50.710 105.432 C 50.103 105.800,49.369 106.101,49.078 106.101 C 48.786 106.101,48.169 106.396,47.705 106.757 C 47.241 107.117,46.278 107.603,45.566 107.835 C 44.854 108.067,44.190 108.468,44.091 108.726 C 43.992 108.984,43.377 109.295,42.723 109.418 C 42.069 109.540,41.262 109.958,40.930 110.346 C 40.597 110.735,40.115 111.052,39.858 111.052 C 39.601 111.052,39.082 111.332,38.705 111.674 C 38.328 112.015,37.622 112.496,37.135 112.742 C 36.649 112.988,35.694 113.586,35.013 114.071 C 34.332 114.556,33.467 115.150,33.090 115.390 C 32.714 115.630,32.059 116.185,31.635 116.622 C 31.212 117.060,30.743 117.418,30.594 117.418 C 30.445 117.418,29.668 118.037,28.867 118.793 C 28.065 119.550,26.017 121.483,24.315 123.090 C 22.613 124.697,21.220 126.227,21.220 126.489 C 21.220 126.752,20.987 126.967,20.702 126.967 C 20.417 126.967,20.003 127.305,19.782 127.719 C 19.561 128.132,18.759 129.041,18.001 129.738 C 17.243 130.435,16.622 131.205,16.622 131.450 C 16.622 131.694,16.317 132.057,15.944 132.257 C 15.571 132.457,15.160 133.100,15.031 133.687 C 14.902 134.274,14.491 134.917,14.118 135.117 C 13.745 135.317,13.439 135.689,13.439 135.943 C 13.439 136.198,13.130 136.687,12.752 137.029 C 12.374 137.371,11.967 138.095,11.848 138.638 C 11.729 139.182,11.337 139.892,10.979 140.216 C 10.620 140.541,10.227 141.338,10.105 141.987 C 9.983 142.637,9.664 143.252,9.396 143.355 C 9.128 143.458,8.793 144.070,8.651 144.715 C 8.510 145.361,8.097 146.443,7.734 147.120 C 7.371 147.797,6.979 148.911,6.862 149.596 C 6.744 150.280,6.347 151.485,5.979 152.274 C 5.610 153.063,5.206 154.734,5.081 155.988 C 4.955 157.241,4.596 158.744,4.283 159.328 C 3.385 161.001,3.429 188.483,4.332 190.240 C 4.673 190.902,4.951 191.889,4.951 192.433 C 4.951 194.171,5.711 197.036,6.224 197.233 C 6.527 197.349,6.720 197.938,6.720 198.747 C 6.720 200.225,7.341 202.299,7.784 202.299 C 7.943 202.299,8.180 202.936,8.312 203.715 C 8.443 204.495,8.831 205.330,9.173 205.572 C 9.515 205.814,9.908 206.618,10.045 207.357 C 10.183 208.097,10.516 208.787,10.785 208.890 C 11.054 208.993,11.384 209.582,11.518 210.198 C 11.653 210.813,12.140 211.767,12.601 212.317 C 13.062 212.867,13.534 213.691,13.648 214.148 C 13.763 214.606,14.081 215.066,14.356 215.171 C 14.630 215.276,14.854 215.561,14.854 215.803 C 14.854 216.046,15.168 216.568,15.552 216.964 C 16.932 218.387,18.391 220.259,18.391 220.607 C 18.391 220.802,18.789 221.223,19.275 221.541 C 19.761 221.860,20.169 222.316,20.181 222.555 C 20.192 222.793,20.899 223.546,21.751 224.226 C 22.602 224.907,23.309 225.663,23.321 225.906 C 23.333 226.149,23.494 226.348,23.680 226.348 C 23.867 226.348,24.702 226.992,25.537 227.780 C 26.372 228.567,27.502 229.451,28.047 229.744 C 28.592 230.036,29.648 230.904,30.393 231.672 C 31.138 232.440,31.856 233.068,31.989 233.068 C 32.122 233.068,32.738 233.427,33.357 233.865 C 33.976 234.303,34.740 234.820,35.054 235.014 C 35.368 235.208,36.525 235.964,37.625 236.693 C 38.725 237.423,39.865 238.019,40.159 238.019 C 40.454 238.019,40.777 238.235,40.878 238.499 C 40.980 238.763,41.731 239.197,42.547 239.463 C 43.364 239.729,44.340 240.229,44.717 240.575 C 45.095 240.920,45.731 241.207,46.132 241.214 C 46.533 241.220,47.498 241.617,48.276 242.096 C 49.054 242.575,50.063 242.968,50.519 242.969 C 50.975 242.970,51.729 243.271,52.195 243.637 C 52.661 244.004,53.723 244.406,54.555 244.531 C 55.387 244.656,56.542 245.071,57.123 245.453 C 57.725 245.850,58.787 246.151,59.593 246.154 C 60.400 246.157,61.462 246.458,62.064 246.854 C 62.644 247.237,63.838 247.647,64.716 247.766 C 65.594 247.885,66.988 248.287,67.812 248.660 C 68.637 249.032,69.956 249.337,70.744 249.337 C 71.532 249.337,72.828 249.669,73.624 250.075 C 74.541 250.543,76.056 250.883,77.765 251.005 C 79.440 251.125,80.695 251.403,81.082 251.740 C 81.442 252.054,82.783 252.383,84.265 252.523 C 85.674 252.655,87.329 253.031,87.944 253.359 C 88.559 253.687,90.151 254.052,91.481 254.171 C 92.811 254.290,94.375 254.627,94.957 254.921 C 95.538 255.215,97.250 255.580,98.760 255.732 C 100.372 255.895,101.721 256.224,102.026 256.529 C 102.312 256.815,103.385 257.155,104.412 257.286 C 105.438 257.416,106.952 257.830,107.777 258.205 C 108.601 258.579,109.890 258.886,110.641 258.886 C 111.479 258.886,112.307 259.148,112.789 259.566 C 113.220 259.940,114.200 260.352,114.965 260.481 C 115.731 260.611,116.357 260.823,116.357 260.953 C 116.357 261.083,116.874 261.397,117.507 261.652 C 118.139 261.907,118.974 262.293,119.363 262.511 C 119.752 262.728,120.503 263.125,121.032 263.392 C 123.315 264.546,126.965 268.602,126.969 269.989 C 126.971 270.399,127.209 271.190,127.500 271.747 C 128.205 273.098,128.203 277.832,127.498 279.521 C 127.206 280.219,126.967 281.181,126.967 281.659 C 126.967 282.137,126.569 283.000,126.083 283.578 C 125.597 284.156,125.199 284.724,125.199 284.839 C 125.199 285.367,121.384 288.598,120.542 288.783 C 120.024 288.898,119.519 289.200,119.421 289.455 C 119.323 289.711,118.678 290.025,117.988 290.155 C 117.298 290.284,116.530 290.590,116.280 290.835 C 116.031 291.079,114.660 291.458,113.234 291.676 C 111.808 291.895,110.375 292.304,110.051 292.587 C 109.634 292.949,108.108 293.166,104.863 293.326 C 102.334 293.450,98.515 293.733,96.375 293.955 C 91.412 294.470,87.930 294.469,82.405 293.952 C 79.973 293.725,75.438 293.438,72.325 293.316 C 67.705 293.134,66.521 292.979,65.872 292.473 C 65.302 292.029,64.075 291.782,61.539 291.600 C 59.594 291.461,58.002 291.218,58.002 291.061 C 58.002 290.687,54.812 290.009,53.053 290.009 C 52.296 290.009,51.150 289.705,50.507 289.335 C 49.863 288.964,48.475 288.548,47.421 288.409 C 46.367 288.271,45.014 287.859,44.414 287.493 C 43.815 287.128,42.747 286.828,42.042 286.827 C 41.336 286.826,40.568 286.596,40.334 286.315 C 40.101 286.034,39.025 285.620,37.943 285.395 C 36.860 285.171,35.480 284.685,34.875 284.316 C 34.270 283.947,33.294 283.645,32.705 283.644 C 32.083 283.643,31.387 283.354,31.045 282.955 C 30.721 282.577,29.850 282.156,29.110 282.020 C 28.369 281.884,27.683 281.676,27.586 281.558 C 27.171 281.055,25.765 280.460,24.993 280.460 C 24.533 280.460,23.795 280.145,23.351 279.760 C 22.907 279.375,22.013 278.960,21.364 278.839 C 20.715 278.717,20.004 278.400,19.783 278.133 C 19.562 277.867,18.800 277.540,18.090 277.408 C 17.380 277.275,16.640 276.965,16.446 276.719 C 14.756 274.583,8.490 276.484,8.488 279.134 C 8.488 279.474,8.326 279.752,8.129 279.752 C 7.931 279.752,7.493 280.349,7.156 281.079 C 6.819 281.808,6.344 282.615,6.101 282.872 C 5.858 283.129,5.658 283.527,5.657 283.756 C 5.657 283.986,5.180 285.128,4.598 286.295 C 4.016 287.462,3.539 288.775,3.538 289.213 C 3.537 289.651,3.243 290.303,2.883 290.662 C 2.524 291.022,2.124 291.975,1.995 292.780 C 1.867 293.586,1.405 294.923,0.969 295.752 C -0.883 299.275,-0.304 329.825,1.628 330.567 C 1.900 330.671,2.122 330.949,2.122 331.185 C 2.122 331.421,2.480 331.940,2.918 332.339 C 3.355 332.737,4.191 333.638,4.775 334.340 C 5.358 335.042,5.976 335.620,6.149 335.625 C 6.321 335.629,6.818 335.990,7.253 336.428 C 8.672 337.854,9.953 338.815,10.436 338.815 C 10.696 338.815,11.382 339.213,11.960 339.699 C 12.538 340.186,13.227 340.587,13.490 340.591 C 13.754 340.596,14.368 340.911,14.854 341.291 C 15.340 341.671,15.995 341.986,16.308 341.990 C 16.621 341.995,17.464 342.396,18.180 342.882 C 18.897 343.369,19.946 343.767,20.511 343.767 C 21.076 343.767,21.666 343.980,21.822 344.240 C 22.137 344.768,24.136 345.535,25.196 345.535 C 25.574 345.535,26.288 345.853,26.782 346.242 C 27.292 346.643,28.217 346.950,28.918 346.950 C 29.599 346.950,30.680 347.274,31.322 347.671 C 31.964 348.067,33.308 348.489,34.310 348.608 C 35.312 348.726,36.709 349.118,37.415 349.478 C 38.141 349.848,39.444 350.133,40.410 350.133 C 41.405 350.133,42.742 350.433,43.606 350.850 C 44.601 351.331,46.140 351.633,48.275 351.767 C 50.026 351.878,52.001 352.211,52.664 352.508 C 56.429 354.195,128.552 354.189,132.319 352.501 C 132.974 352.207,134.422 351.872,135.537 351.755 C 136.652 351.638,138.129 351.225,138.819 350.838 C 139.510 350.450,140.667 350.132,141.390 350.131 C 142.114 350.131,143.186 349.837,143.774 349.479 C 144.361 349.120,145.470 348.709,146.238 348.565 C 147.005 348.421,148.036 348.022,148.529 347.678 C 149.022 347.335,150.061 346.954,150.839 346.833 C 151.616 346.711,152.412 346.395,152.607 346.129 C 152.802 345.863,153.562 345.533,154.296 345.396 C 155.030 345.259,155.824 344.836,156.061 344.456 C 156.309 344.059,156.883 343.767,157.413 343.767 C 157.920 343.767,158.600 343.473,158.925 343.114 C 159.250 342.754,160.134 342.275,160.889 342.049 C 161.643 341.823,162.352 341.401,162.463 341.111 C 162.575 340.821,162.934 340.584,163.262 340.584 C 163.590 340.584,164.381 340.186,165.018 339.699 C 165.656 339.213,166.338 338.815,166.535 338.815 C 166.731 338.815,167.100 338.537,167.354 338.196 C 167.608 337.856,168.413 337.301,169.142 336.964 C 169.872 336.627,170.469 336.189,170.469 335.992 C 170.469 335.794,170.662 335.632,170.898 335.632 C 171.298 335.632,171.620 335.368,173.800 333.245 C 174.249 332.807,174.728 332.449,174.864 332.449 C 175.300 332.449,181.786 326.200,181.786 325.780 C 181.786 325.634,182.582 324.703,183.554 323.710 C 184.527 322.716,185.323 321.768,185.323 321.603 C 185.323 321.437,185.641 321.103,186.030 320.860 C 186.419 320.617,186.737 320.198,186.737 319.929 C 186.737 319.659,186.962 319.353,187.237 319.247 C 187.511 319.142,187.941 318.488,188.192 317.795 C 188.443 317.101,188.770 316.534,188.920 316.534 C 189.290 316.534,191.689 312.746,191.689 312.161 C 191.689 311.903,191.993 311.417,192.364 311.081 C 192.736 310.745,193.144 310.056,193.270 309.551 C 193.397 309.046,193.809 308.240,194.186 307.761 C 194.563 307.282,194.872 306.391,194.872 305.783 C 194.872 305.174,195.213 304.041,195.630 303.266 C 196.112 302.372,196.454 300.952,196.567 299.381 C 196.664 298.019,196.993 296.524,197.297 296.058 C 198.626 294.022,198.628 262.659,197.300 260.620 C 196.959 260.097,196.675 258.610,196.561 256.757 C 196.430 254.636,196.152 253.328,195.623 252.341 C 195.176 251.507,194.871 250.292,194.870 249.342 C 194.870 248.416,194.596 247.297,194.218 246.677 C 193.859 246.090,193.449 244.981,193.305 244.213 C 193.161 243.446,192.738 242.390,192.366 241.867 C 191.993 241.344,191.689 240.694,191.689 240.423 C 191.689 239.745,190.865 238.026,190.539 238.022 C 190.393 238.021,190.274 237.818,190.274 237.571 C 190.274 237.324,189.876 236.537,189.390 235.821 C 188.904 235.106,188.506 234.282,188.506 233.991 C 188.506 233.700,188.201 233.249,187.829 232.988 C 187.457 232.727,186.871 231.923,186.526 231.200 C 186.181 230.477,185.769 229.885,185.611 229.885 C 185.452 229.885,185.323 229.658,185.323 229.380 C 185.323 229.103,184.925 228.562,184.439 228.180 C 183.952 227.797,183.554 227.365,183.554 227.220 C 183.554 226.737,172.875 216.446,172.374 216.446 C 172.104 216.446,171.883 216.284,171.883 216.086 C 171.883 215.889,171.286 215.451,170.557 215.114 C 169.828 214.776,169.023 214.222,168.769 213.882 C 168.514 213.541,168.085 213.263,167.814 213.263 C 167.543 213.263,167.193 213.054,167.038 212.800 C 166.882 212.545,166.205 212.114,165.532 211.842 C 164.860 211.570,164.024 211.062,163.676 210.714 C 163.327 210.365,162.682 210.080,162.242 210.080 C 161.803 210.080,161.254 209.776,161.021 209.404 C 160.789 209.032,160.128 208.625,159.551 208.498 C 158.974 208.371,158.146 207.959,157.711 207.582 C 157.277 207.205,156.493 206.897,155.969 206.897 C 155.445 206.897,154.743 206.594,154.408 206.224 C 154.074 205.854,153.244 205.448,152.565 205.320 C 151.887 205.193,151.022 204.779,150.643 204.401 C 150.265 204.023,149.592 203.714,149.146 203.714 C 148.701 203.714,147.715 203.397,146.956 203.009 C 146.196 202.622,145.018 202.201,144.337 202.073 C 143.657 201.945,142.613 201.564,142.018 201.225 C 141.424 200.886,140.343 200.505,139.616 200.378 C 138.889 200.251,137.616 199.839,136.786 199.462 C 135.957 199.086,134.667 198.774,133.920 198.770 C 133.135 198.765,132.203 198.481,131.714 198.096 C 131.248 197.730,129.992 197.321,128.922 197.187 C 127.852 197.053,126.488 196.701,125.892 196.403 C 125.296 196.106,123.822 195.776,122.616 195.671 C 121.405 195.565,120.029 195.206,119.540 194.868 C 119.048 194.528,117.558 194.141,116.180 193.996 C 114.819 193.853,113.255 193.504,112.706 193.220 C 112.156 192.936,110.565 192.623,109.169 192.524 C 107.726 192.421,106.097 192.064,105.393 191.696 C 104.707 191.337,102.903 190.933,101.344 190.790 C 99.624 190.632,98.114 190.276,97.454 189.874 C 96.792 189.470,95.707 189.215,94.648 189.214 C 93.592 189.214,92.494 188.956,91.819 188.551 C 91.212 188.187,89.974 187.794,89.066 187.678 C 88.159 187.562,86.841 187.143,86.138 186.748 C 85.435 186.353,84.406 186.030,83.852 186.030 C 83.298 186.030,82.654 185.799,82.420 185.518 C 82.186 185.236,81.411 184.815,80.697 184.582 C 79.983 184.349,79.019 183.864,78.555 183.503 C 78.091 183.142,77.491 182.847,77.221 182.847 C 76.458 182.847,73.210 179.249,73.210 178.404 C 73.210 177.990,72.891 177.364,72.502 177.011 C 71.437 176.048,71.437 168.029,72.502 166.675 C 72.891 166.180,73.210 165.555,73.210 165.286 C 73.210 164.616,75.660 161.512,76.746 160.807 C 77.233 160.491,77.946 160.029,78.332 159.780 C 78.718 159.532,79.245 159.050,79.502 158.709 C 79.759 158.369,80.351 158.090,80.817 158.090 C 81.768 158.090,83.466 157.403,83.466 157.018 C 83.466 156.880,84.300 156.656,85.318 156.521 C 86.337 156.386,87.730 156.007,88.413 155.680 C 90.284 154.782,122.415 154.776,124.857 155.673 C 125.802 156.020,128.198 156.359,130.692 156.499 C 133.322 156.646,135.393 156.948,136.163 157.296 C 136.844 157.604,138.599 157.961,140.063 158.090 C 141.643 158.230,143.108 158.576,143.665 158.941 C 144.244 159.319,145.633 159.634,147.280 159.758 C 148.752 159.870,149.956 160.071,149.956 160.207 C 149.956 161.980,172.643 162.288,175.119 160.548 C 175.635 160.186,176.474 159.785,176.984 159.657 C 177.495 159.529,178.107 159.149,178.346 158.813 C 178.585 158.477,179.138 158.012,179.576 157.780 C 180.013 157.548,180.371 157.130,180.371 156.852 C 180.371 156.574,180.690 156.176,181.079 155.968 C 181.468 155.760,181.786 155.364,181.786 155.089 C 181.786 154.814,182.003 154.461,182.269 154.306 C 182.534 154.150,182.995 153.545,183.293 152.961 C 183.592 152.377,184.170 151.596,184.579 151.226 C 184.988 150.856,185.323 150.139,185.323 149.632 C 185.323 149.118,185.613 148.530,185.979 148.301 C 186.340 148.076,186.728 147.319,186.842 146.619 C 186.955 145.920,187.376 144.930,187.777 144.421 C 188.178 143.911,188.506 142.980,188.506 142.352 C 188.506 141.724,188.831 140.796,189.228 140.291 C 189.636 139.772,190.046 138.563,190.171 137.512 C 190.292 136.488,190.665 135.169,191.000 134.580 C 191.335 133.992,191.692 132.504,191.794 131.274 C 191.905 129.944,192.211 128.782,192.549 128.409 C 192.928 127.989,193.190 126.791,193.336 124.810 C 193.456 123.176,193.684 121.672,193.844 121.467 C 194.959 120.039,194.913 113.174,193.788 113.174 C 193.597 113.174,193.285 112.768,193.097 112.272 C 192.900 111.755,192.301 111.213,191.691 111.000 C 191.106 110.796,190.628 110.511,190.628 110.367 C 190.628 110.034,189.001 109.284,188.278 109.284 C 187.977 109.284,187.292 108.971,186.755 108.589 C 186.218 108.207,185.119 107.788,184.313 107.659 C 183.507 107.531,182.847 107.306,182.847 107.160 C 182.847 106.837,181.326 106.229,179.729 105.913 C 179.083 105.785,178.133 105.461,177.616 105.193 C 177.099 104.925,175.959 104.598,175.081 104.467 C 174.204 104.335,172.986 103.947,172.375 103.604 C 171.765 103.260,170.330 102.863,169.187 102.721 C 168.044 102.579,166.746 102.225,166.302 101.935 C 165.858 101.644,164.386 101.328,163.030 101.231 C 161.675 101.134,160.566 100.923,160.566 100.762 C 160.566 100.340,158.296 99.799,155.438 99.540 C 154.076 99.417,152.422 99.074,151.762 98.777 C 151.036 98.452,149.077 98.175,146.810 98.078 C 144.062 97.960,142.725 97.740,141.807 97.254 C 140.833 96.737,139.421 96.536,135.441 96.347 C 132.629 96.213,130.143 95.959,129.918 95.781 C 128.798 94.898,100.682 94.417,92.403 95.139 " stroke="none" fill="#040404" fill-rule="evenodd"></path><path id="path2" d="M330.681 277.651 C 330.681 277.857,330.536 277.936,330.359 277.827 C 329.835 277.503,328.995 277.982,328.804 278.716 C 328.612 279.448,329.081 279.985,329.426 279.427 C 330.319 277.981,330.231 277.984,365.728 277.984 C 387.931 277.984,399.680 277.862,399.823 277.630 C 399.968 277.396,388.392 277.277,365.361 277.277 C 341.188 277.277,330.681 277.390,330.681 277.651 M328.205 314.412 C 328.205 333.345,328.288 348.753,328.389 348.652 C 328.622 348.419,328.612 280.395,328.379 280.162 C 328.283 280.066,328.205 295.479,328.205 314.412 M328.785 349.345 C 328.429 349.921,329.656 351.267,330.369 351.080 C 330.735 350.985,331.034 351.050,331.034 351.227 C 331.034 351.416,345.115 351.547,365.458 351.547 C 395.921 351.547,399.882 351.486,399.882 351.013 C 399.882 350.540,395.980 350.490,365.635 350.571 C 346.799 350.622,331.388 350.544,331.388 350.398 C 331.388 350.252,331.122 350.133,330.797 350.133 C 330.472 350.133,329.931 349.884,329.594 349.579 C 329.258 349.275,328.894 349.169,328.785 349.345 " stroke="none" fill="#f00c34" fill-rule="evenodd"></path><path id="path3" d="" stroke="none" fill="#400c34" fill-rule="evenodd"></path><path id="path4" d="" stroke="none" fill="#040c38" fill-rule="evenodd"></path></g></svg>