<svg width="16" height="16" viewBox="0 0 16 16" fill="none" xmlns="http://www.w3.org/2000/svg">
<path d="M9.24993 7.57139H8.49996V4.71426C8.49996 4.31976 8.16421 4 7.74998 4C7.33575 4 7 4.31976 7 4.71426V8.28574C7 8.68024 7.33575 9 7.74998 9H9.25002C9.66425 9 10 8.68024 10 8.28574C10 7.89123 9.66417 7.57139 9.24993 7.57139Z" fill="#3A3A3A"/>
<path fill-rule="evenodd" clip-rule="evenodd" d="M14.9331 4.01273C14.934 4.01655 14.9349 4.02037 14.9366 4.02406C16.3545 6.48472 16.3545 9.51432 14.9365 11.975C14.9351 11.9782 14.9348 11.9804 14.9345 11.9829C14.9339 11.9868 14.9334 11.991 14.9285 11.9996C14.924 12.0076 14.9183 12.0143 14.9125 12.021C14.9081 12.0261 14.9036 12.0313 14.8996 12.0372C14.2096 13.2307 13.217 14.2211 12.0221 14.9086C12.0182 14.9111 12.0154 14.9141 12.0125 14.9171C12.0091 14.9207 12.0056 14.9244 11.9999 14.9277C11.9941 14.9311 11.988 14.9334 11.9817 14.9357C11.9767 14.9375 11.9716 14.9394 11.9667 14.9418C9.51017 16.3527 6.48912 16.3527 4.03259 14.9418C4.02738 14.9391 4.0214 14.9369 4.01565 14.9348C4.00986 14.9328 4.0043 14.9307 3.99999 14.9283C3.99527 14.9256 3.99167 14.9218 3.98807 14.918C3.98507 14.9148 3.98207 14.9117 3.97843 14.9092C2.78348 14.2214 1.79082 13.231 1.10031 12.0377C1.09586 12.0307 1.0894 12.023 1.08361 12.0161C1.07825 12.0097 1.07348 12.004 1.0714 12.0002C1.06906 11.9958 1.06799 11.9914 1.06692 11.9869C1.066 11.9831 1.06509 11.9793 1.06339 11.9756C-0.354464 9.5149 -0.354464 6.48537 1.06339 4.0247C1.06496 4.02128 1.06564 4.01798 1.06633 4.0146C1.06726 4.01007 1.06822 4.0054 1.0714 4.00011C1.07428 3.99532 1.07816 3.99169 1.08199 3.9881C1.08554 3.98478 1.08906 3.98148 1.09173 3.97732C1.78216 2.77739 2.77793 1.78161 3.97785 1.09117C3.98214 1.08839 3.98584 1.0847 3.98938 1.08115C3.99293 1.07761 3.99632 1.07422 3.99999 1.07206C4.00406 1.06969 4.00846 1.06862 4.01293 1.06753C4.01663 1.06663 4.02038 1.06572 4.02401 1.06405C6.48501 -0.354685 9.5155 -0.354685 11.9766 1.06405C11.9799 1.06571 11.9832 1.0665 11.9867 1.06733C11.9909 1.06833 11.9952 1.06937 11.9999 1.07206C12.0047 1.07477 12.0083 1.07856 12.0119 1.08234C12.0149 1.0855 12.0179 1.08865 12.0215 1.09117C13.2214 1.78175 14.2174 2.77753 14.9083 3.97732C14.911 3.98147 14.9148 3.98491 14.9185 3.98826C14.9225 3.99184 14.9264 3.99532 14.9286 3.99946C14.9309 4.00378 14.932 4.00826 14.9331 4.01273ZM14.739 8.61554H14.1538C13.8139 8.61554 13.5383 8.33998 13.5383 8.0001C13.5383 7.66022 13.8138 7.38473 14.1537 7.38473H14.7389C14.6692 6.61598 14.4673 5.86503 14.142 5.165L13.6367 5.45606C13.4462 5.56777 13.2105 5.56878 13.019 5.4588C12.8275 5.34883 12.7096 5.14467 12.7101 4.92385C12.7106 4.70303 12.8294 4.49937 13.0214 4.39026L13.526 4.0992C13.0854 3.46501 12.535 2.91462 11.9008 2.47399L11.6097 2.97859C11.5006 3.17056 11.297 3.28934 11.0761 3.28984C10.8553 3.29035 10.6512 3.17244 10.5412 2.98097C10.4312 2.7895 10.4322 2.55375 10.5439 2.36322L10.8356 1.85798C10.1354 1.53274 9.38433 1.33081 8.61536 1.26107V1.8463C8.61536 2.18618 8.33988 2.46166 8 2.46166C7.66013 2.46166 7.38465 2.18618 7.38465 1.8463V1.26107C6.61525 1.33103 5.86367 1.53338 5.16314 1.8592L5.45484 2.36445C5.62208 2.65854 5.52054 3.03246 5.22761 3.20157C4.93468 3.37076 4.56011 3.27174 4.38905 2.97989L4.098 2.47529C3.78242 2.69582 3.4861 2.94289 3.2125 3.21376C2.94192 3.48766 2.69485 3.78384 2.47404 4.09927L2.97863 4.39033C3.1706 4.49944 3.28937 4.7031 3.28988 4.92392C3.29038 5.14474 3.17247 5.3489 2.98101 5.45888C2.78954 5.56885 2.5538 5.56784 2.36327 5.45613L1.85803 5.16443C1.53279 5.86467 1.33087 6.61576 1.26113 7.38473H1.84635C2.18622 7.38473 2.4617 7.66022 2.4617 8.0001C2.4617 8.33998 2.18622 8.61547 1.84635 8.61547H1.26113C1.3308 9.38422 1.53272 10.1352 1.85803 10.8352L2.36327 10.5441C2.65735 10.3769 3.03127 10.4784 3.20038 10.7714C3.36956 11.0643 3.27055 11.4389 2.9787 11.6099L2.47411 11.901C2.91466 12.5352 3.46504 13.0856 4.0993 13.5262L4.39035 13.0216C4.49946 12.8296 4.70312 12.7109 4.92393 12.7104C5.14475 12.7099 5.34891 12.8278 5.45888 13.0192C5.56886 13.2107 5.56785 13.4464 5.45614 13.637L5.16444 14.1422C5.86467 14.4675 6.61575 14.6694 7.38472 14.7391V14.1539C7.38472 13.8141 7.6602 13.5385 8.00008 13.5385C8.33996 13.5385 8.61543 13.814 8.61543 14.1539V14.7391C9.38433 14.6695 10.1355 14.4675 10.8357 14.1422L10.544 13.637C10.4323 13.4464 10.4313 13.2107 10.5413 13.0192C10.6512 12.8278 10.8554 12.7099 11.0762 12.7104C11.297 12.7109 11.5007 12.8296 11.6098 13.0216L11.9009 13.5262C12.217 13.3054 12.5137 13.0579 12.7877 12.7865C13.0582 12.5126 13.3053 12.2164 13.5261 11.901L13.0215 11.6099C12.8296 11.5008 12.7108 11.2972 12.7103 11.0764C12.7098 10.8555 12.8277 10.6514 13.0191 10.5414C13.2106 10.4314 13.4464 10.4324 13.6369 10.5441L14.1421 10.8358C14.4674 10.1356 14.6693 9.38451 14.739 8.61554Z" fill="#3A3A3A"/>
</svg>
