<svg width="18" height="16" viewBox="0 0 18 16" fill="none" xmlns="http://www.w3.org/2000/svg">
<path fill-rule="evenodd" clip-rule="evenodd" d="M0.635659 16H17.3643C17.7209 16 18 15.7316 18 15.3886V1.74464C18 1.40168 17.7209 1.13327 17.3643 1.13327H14.2171V0.61137C14.2171 0.268406 13.938 0 13.5814 0C13.2248 0 12.9457 0.268406 12.9457 0.61137V1.13327H5.16279V0.61137C5.16279 0.268406 4.88372 0 4.52713 0C4.17054 0 3.89147 0.268406 3.89147 0.61137V1.13327H0.635659C0.27907 1.13327 0 1.40168 0 1.74464V15.4035C0 15.7316 0.294574 16 0.635659 16ZM1.27132 2.35601H3.89147V2.68406C3.89147 3.02703 4.17054 3.29543 4.52713 3.29543C4.88372 3.29543 5.16279 3.02703 5.16279 2.68406V2.35601H12.9457V2.68406C12.9457 3.02703 13.2248 3.29543 13.5814 3.29543C13.938 3.29543 14.2171 3.02703 14.2171 2.68406V2.35601H16.7442V3.93663H1.27132V2.35601ZM16.7287 5.15937H1.27132V14.7922H16.7287V5.15937Z" fill="#5A5A5A"/>
<path d="M13.3899 7H4.61012C4.26786 7 4 7.43902 4 8C4 8.56098 4.26786 9 4.61012 9H13.3899C13.7321 9 14 8.56098 14 8C14 7.43902 13.7321 7 13.3899 7Z" fill="#5A5A5A"/>
<path d="M9.34748 10H4.65252C4.28647 10 4 10.439 4 11C4 11.561 4.28647 12 4.65252 12H9.34748C9.71353 12 10 11.561 10 11C10 10.439 9.71353 10 9.34748 10Z" fill="#5A5A5A"/>
</svg>
