<svg width="14" height="14" viewBox="0 0 14 14" fill="none" xmlns="http://www.w3.org/2000/svg">
<path d="M9.55792 2.28469C8.56712 0.832825 6.99679 0 5.24995 0C3.50232 0 1.93216 0.830369 0.942417 2.27842C-0.043251 3.72004 -0.271226 5.55093 0.331733 7.17372C0.493133 7.61495 0.749695 8.04362 1.09291 8.44594L4.90489 12.9639C4.99096 13.0659 5.11683 13.1248 5.24933 13.125C5.24964 13.125 5.24978 13.125 5.24995 13.125C5.38231 13.125 5.50802 13.0665 5.59408 12.965L6.60759 11.7704L5.91901 11.1716L5.25084 11.9594L1.78135 7.84726C1.5077 7.5264 1.30636 7.19255 1.18188 6.85238C0.68301 5.50971 0.872245 3.99521 1.68848 2.8014C2.50656 1.605 3.80459 0.918864 5.24995 0.918864C6.69427 0.918864 7.99231 1.60711 8.81111 2.80705C9.62751 4.00331 9.81705 5.51536 9.31514 6.85972C9.24887 7.04795 9.15042 7.22836 9.06312 7.37996L9.84701 7.84294C9.95547 7.65488 10.0786 7.4276 10.1669 7.17657C10.7716 5.55799 10.5439 3.72922 9.55792 2.28469Z" fill="white"/>
<path fill-rule="evenodd" clip-rule="evenodd" d="M3.0625 5.5C3.0625 4.12158 4.18408 3 5.5625 3C6.94092 3 8.0625 4.12158 8.0625 5.5C8.0625 6.87842 6.94108 8 5.5625 8C4.18392 8 3.0625 6.87842 3.0625 5.5ZM4.0625 5.5C4.0625 6.32708 4.73542 7 5.5625 7C6.38958 7 7.0625 6.32708 7.0625 5.5C7.0625 4.67292 6.38958 4 5.5625 4C4.73542 4 4.0625 4.67292 4.0625 5.5Z" fill="white"/>
<path fill-rule="evenodd" clip-rule="evenodd" d="M6.0625 10C6.0625 8.34582 7.40832 7 9.0625 7C10.7167 7 12.0625 8.34582 12.0625 10C12.0625 11.6542 10.7168 13 9.0625 13C7.40832 13 6.0625 11.6542 6.0625 10ZM7.0625 10C7.0625 11.1028 7.9598 12 9.0625 12C10.1652 12 11.0625 11.1028 11.0625 10C11.0625 8.89715 10.1653 8 9.0625 8C7.95965 8 7.0625 8.89715 7.0625 10Z" fill="white"/>
<path d="M12.9853 13.1887L11.3033 11.5124C11.1182 11.3279 10.8195 11.3295 10.6365 11.5156C10.4533 11.7017 10.4547 12.0019 10.6397 12.1863L12.3217 13.8626C12.4136 13.9543 12.5335 14 12.6535 14C12.7748 14 12.8963 13.9532 12.9885 13.8594C13.1717 13.6734 13.1703 13.3731 12.9853 13.1887Z" fill="white"/>
</svg>
