<svg width="12" height="10" viewBox="0 0 12 10" fill="none" xmlns="http://www.w3.org/2000/svg">
<path d="M2.42708 4H8.57292C8.8125 4 9 3.78049 9 3.5C9 3.21951 8.8125 3 8.57292 3H2.42708C2.1875 3 2 3.21951 2 3.5C2 3.78049 2.1875 4 2.42708 4Z" fill="#EE2060"/>
<path d="M2.42708 6H8.57292C8.8125 6 9 5.78049 9 5.5C9 5.21951 8.8125 5 8.57292 5H2.42708C2.1875 5 2 5.21951 2 5.5C2 5.78049 2.1875 6 2.42708 6Z" fill="#EE2060"/>
<path fill-rule="evenodd" clip-rule="evenodd" d="M1.78657 8.21501H0.423408C0.196213 8.21501 0 8.03245 0 7.79919V0.415821C0 0.182556 0.185886 0 0.423408 0H11.5766C11.8141 0 12 0.182556 12 0.415821V7.80933C12 8.0426 11.8141 8.22515 11.5766 8.22515H4.7401L2.46816 9.91886C2.39587 9.96957 2.30293 10 2.20998 10C2.14802 10 2.08606 9.98986 2.0241 9.95943C1.87952 9.88844 1.78657 9.74645 1.78657 9.58418V8.21501ZM11.1429 0.831643H0.846816V7.38337H2.20998C2.4475 7.38337 2.63339 7.56592 2.63339 7.79919V8.74239L4.33735 7.4645C4.40964 7.41379 4.50258 7.38337 4.59552 7.38337H11.1429V0.831643Z" fill="#EE2060"/>
</svg>
