<svg width="17" height="14" viewBox="0 0 17 14" fill="none" xmlns="http://www.w3.org/2000/svg">
<path fill-rule="evenodd" clip-rule="evenodd" d="M16.9967 12.1154L16.206 3.06491C16.1896 2.87377 16.0314 2.72958 15.8437 2.72958H14.2031C14.1899 1.2206 12.9808 0 11.4984 0C10.0159 0 8.80683 1.2206 8.79365 2.72958H7.15304C6.96526 2.72958 6.80713 2.87713 6.79066 3.06491L6 12.1154V12.149C6 13.1684 6.91914 14 8.05241 14H14.9476C16.0776 14 17 13.1717 17 12.149C17 12.1356 17 12.1255 16.9967 12.1154ZM11.5016 0.737725C12.5855 0.737725 13.4684 1.6297 13.4816 2.72958H9.51842C9.5316 1.6297 10.4145 0.737725 11.5016 0.737725ZM8.05241 13.2589H14.9476C15.6724 13.2589 16.2653 12.7693 16.2686 12.1624L15.5109 3.46731H14.2031V4.66108C14.2031 4.86563 14.0416 5.02994 13.8407 5.02994C13.6397 5.02994 13.4783 4.86563 13.4783 4.66108V3.46731H9.51512V4.66108C9.51512 4.86563 9.3537 5.02994 9.15274 5.02994C8.95178 5.02994 8.79036 4.86563 8.79036 4.66108V3.46731H7.48248L6.72477 12.1624C6.73465 12.7693 7.32764 13.2589 8.05241 13.2589Z" fill="#3A3A3A"/>
<path d="M4.54825 6H1.45175C1.20123 6 1 6.22273 1 6.5C1 6.77727 1.20123 7 1.45175 7H4.54825C4.79877 7 5 6.77727 5 6.5C5 6.22273 4.79877 6 4.54825 6Z" fill="#3A3A3A"/>
<path d="M3.68413 8H0.315865C0.140704 8 0 8.22273 0 8.5C0 8.77727 0.140704 9 0.315865 9H3.68413C3.8593 9 4 8.77727 4 8.5C4 8.22273 3.8593 8 3.68413 8Z" fill="#3A3A3A"/>
<path d="M4.54825 10H1.45175C1.20123 10 1 10.2227 1 10.5C1 10.7773 1.20123 11 1.45175 11H4.54825C4.79877 11 5 10.7773 5 10.5C5 10.2227 4.79877 10 4.54825 10Z" fill="#3A3A3A"/>
</svg>
