<svg width="16" height="16" viewBox="0 0 16 16" fill="none" xmlns="http://www.w3.org/2000/svg">
<path fill-rule="evenodd" clip-rule="evenodd" d="M14.9333 3.73333H15.7333C15.8933 3.73333 16 3.84 16 4V7.2H15.4667V4.26667H14.6667H7.2H2.13333V3.73333H6.93333V2.66667V0.533333H0.533333V15.4667H3.46667V16H0.266667C0.106667 16 0 15.8933 0 15.7333V0.266667C0 0.106667 0.106667 0 0.266667 0H7.2C7.36 0 7.46667 0.106667 7.46667 0.266667V2.4H14.6667C14.8267 2.4 14.9333 2.50667 14.9333 2.66667V3.73333ZM7.46667 2.93333V3.73333H14.4V2.93333H7.46667Z" fill="#3A3A3A"/>
<rect x="1" y="5" width="1" height="1" fill="#3A3A3A"/>
<rect x="2" y="5" width="1" height="1" fill="#3A3A3A"/>
<rect x="3" y="5" width="1" height="1" fill="#3A3A3A"/>
<rect x="1" y="14" width="1" height="1" fill="#3A3A3A"/>
<rect x="2" y="14" width="1" height="1" fill="#3A3A3A"/>
<rect x="4" y="5" width="1" height="1" fill="#3A3A3A"/>
<rect x="5" y="5" width="1" height="1" fill="#3A3A3A"/>
<rect x="6" y="5" width="1" height="1" fill="#3A3A3A"/>
<rect x="8" y="5" width="1" height="1" fill="#3A3A3A"/>
<rect x="9" y="5" width="1" height="1" fill="#3A3A3A"/>
<rect x="10" y="5" width="1" height="1" fill="#3A3A3A"/>
<rect x="11" y="5" width="1" height="1" fill="#3A3A3A"/>
<rect x="12" y="5" width="1" height="1" fill="#3A3A3A"/>
<rect x="13" y="5" width="1" height="1" fill="#3A3A3A"/>
<rect x="14" y="5" width="1" height="1" fill="#3A3A3A"/>
<path fill-rule="evenodd" clip-rule="evenodd" d="M15.7273 8H11.9091C11.7455 8 11.6364 8.10667 11.6364 8.26667V9.33333V10.4V11.4667V12.2667H8.36364V11.4667C8.36364 11.3067 8.25455 11.2 8.09091 11.2H4.27273C4.10909 11.2 4 11.3067 4 11.4667V12.5333V13.6V14.6667V15.7333C4 15.8933 4.10909 16 4.27273 16H8.09091H11.9091H15.7273C15.8909 16 16 15.8933 16 15.7333V14.6667V13.6V12.5333V11.4667V10.4V9.33333V8.26667C16 8.10667 15.8909 8 15.7273 8ZM7.81818 13.3333H4.54545V12.8H7.81818V13.3333ZM7.81818 13.8667H4.54545V14.4H7.81818V13.8667ZM8.36364 13.8667H11.6364V14.4H8.36364V13.8667ZM12.1818 10.1333H15.4545V9.6H12.1818V10.1333ZM15.4545 11.2H12.1818V10.6667H15.4545V11.2ZM15.4545 11.7333H12.1818V12.2667H15.4545V11.7333ZM15.4545 12.8V13.3333H12.1818V12.8H15.4545ZM15.4545 13.8667H12.1818V14.4H15.4545V13.8667ZM12.1818 8.53333H15.4545V9.06667H12.1818V8.53333ZM8.36364 13.3333H11.6364V12.8H8.36364V13.3333ZM4.54545 11.7333H7.81818V12.2667H4.54545V11.7333ZM7.81818 14.9333H4.54545V15.4667H7.81818V14.9333ZM8.36364 14.9333H11.6364V15.4667H8.36364V14.9333ZM12.1818 15.4667H15.4545V14.9333H12.1818V15.4667Z" fill="#3A3A3A"/>
<path d="M9.37838 9.175L9.72973 8.85V11H10.2703V8.85L10.6216 9.175L11 8.825L10.1892 8.075C10.0811 7.975 9.91892 7.975 9.81081 8.075L9 8.825L9.37838 9.175Z" fill="#3A3A3A"/>
<path d="M5.37838 8.34286L5.72973 7.97143V11H6.27027V7.97143L6.62162 8.34286L7 7.94286L6.18919 7.08571C6.08108 6.97143 5.91892 6.97143 5.81081 7.08571L5 7.94286L5.37838 8.34286Z" fill="#3A3A3A"/>
</svg>
