<svg width="19" height="12" viewBox="0 0 19 12" fill="none" xmlns="http://www.w3.org/2000/svg">
<path fill-rule="evenodd" clip-rule="evenodd" d="M7 3C7 1.34569 8.34574 0 10 0C11.6543 0 13 1.34574 13 3C13 4.65426 11.6543 6 10 6C8.34569 6 7 4.6543 7 3ZM7.85717 3C7.85717 4.18112 8.81888 5.14283 10 5.14283C11.1812 5.14283 12.1428 4.18112 12.1428 3C12.1428 1.81888 11.1811 0.857166 10 0.857166C8.81888 0.857166 7.85717 1.81888 7.85717 3Z" fill="#3A3A3A"/>
<path fill-rule="evenodd" clip-rule="evenodd" d="M13 5C13 3.89761 13.8976 3 15 3C16.1024 3 17 3.89761 17 5C17 6.10239 16.1024 7 15 7C13.8976 7 13 6.10239 13 5ZM13.8 5C13.8 5.66162 14.3384 6.20001 15 6.20001C15.6616 6.20001 16.2 5.66162 16.2 5C16.2 4.33838 15.6616 3.79999 15 3.79999C14.3384 3.79999 13.8 4.33838 13.8 5Z" fill="#3A3A3A"/>
<path fill-rule="evenodd" clip-rule="evenodd" d="M2 5C2 3.89761 2.89678 3 4 3C5.10318 3 6 3.89761 6 5C6 6.10239 5.10239 7 4 7C2.89761 7 2 6.10239 2 5ZM2.79999 5C2.79999 5.66162 3.33838 6.20001 4 6.20001C4.66158 6.20001 5.20001 5.66162 5.20001 5C5.20001 4.33838 4.66162 3.79999 4 3.79999C3.33838 3.79999 2.79999 4.33838 2.79999 5Z" fill="#3A3A3A"/>
<path d="M10 6C7.24307 6 5 8.49942 5 11.5714C5 11.808 5.17232 12 5.38463 12C5.59693 12 5.76925 11.808 5.76925 11.5714C5.76925 8.97171 7.66693 6.85717 10 6.85717C12.3331 6.85717 14.2307 8.97171 14.2307 11.5714C14.2307 11.808 14.4031 12 14.6154 12C14.8277 12 15 11.808 15 11.5714C15 8.49942 12.7569 6 10 6Z" fill="#3A3A3A"/>
<path d="M15.1817 8C14.4834 8 13.7995 8.18 13.2039 8.52001C13.0045 8.63521 12.94 8.8808 13.0613 9.06961C13.1843 9.25842 13.444 9.31842 13.6442 9.20401C14.1066 8.93918 14.6378 8.79998 15.1817 8.79998C16.8193 8.79998 18.1515 10.056 18.1515 11.6C18.1515 11.8208 18.3416 12 18.5757 12C18.8099 12 19 11.8208 19 11.6C19 9.61519 17.2868 8 15.1817 8Z" fill="#3A3A3A"/>
<path d="M5.79555 8.51919C5.20071 8.18 4.51681 8 3.81844 8C1.71321 8 0 9.61519 0 11.6C0 11.8208 0.190087 12 0.424284 12C0.658481 12 0.848568 11.8208 0.848568 11.6C0.848528 10.056 2.18076 8.79998 3.81844 8.79998C4.36236 8.79998 4.89352 8.93918 5.35516 9.20318C5.55455 9.3176 5.81592 9.2576 5.93811 9.06878C6.0603 8.87997 5.99578 8.63439 5.79555 8.51919Z" fill="#3A3A3A"/>
</svg>
