<svg width="16" height="16" viewBox="0 0 16 16" fill="none" xmlns="http://www.w3.org/2000/svg">
<path fill-rule="evenodd" clip-rule="evenodd" d="M2.5 10C0.804297 10 0.119629 10.5415 0.0914064 10.5646C0.0331382 10.612 -6.49133e-05 10.6793 0 10.75V15.25C-6.49133e-05 15.3207 0.0331382 15.388 0.0914064 15.4354C0.119629 15.4585 0.804297 16 2.5 16C4.1957 16 4.88037 15.4585 4.90859 15.4354C4.96686 15.388 5.00006 15.3207 5 15.25V10.75C5.00006 10.6793 4.96686 10.612 4.90859 10.5646C4.88037 10.5415 4.1957 10 2.5 10ZM0.959603 10.7098L0.969401 10.7064C1.02757 10.6877 1.09297 10.6694 1.16214 10.6515C1.1749 10.6482 1.18824 10.645 1.20161 10.6418L1.21859 10.6377C1.27712 10.6235 1.33978 10.61 1.40586 10.5972L1.42593 10.5931C1.43795 10.5907 1.44995 10.5883 1.46263 10.586C1.54691 10.5708 1.63711 10.5571 1.73327 10.5451C1.74466 10.5437 1.75666 10.5425 1.76868 10.5413L1.79443 10.5386C1.87513 10.5296 1.96025 10.5221 2.04922 10.5161L2.04963 10.516L2.04964 10.516L2.04965 10.516L2.04966 10.516C2.07992 10.514 2.11014 10.512 2.14137 10.5103C2.25511 10.5043 2.37314 10.5 2.50003 10.5C2.62712 10.5 2.74528 10.5043 2.85915 10.5103C2.89069 10.512 2.92129 10.514 2.95186 10.5161C3.04072 10.5222 3.12575 10.5297 3.20635 10.5387L3.23298 10.5415C3.24488 10.5427 3.25676 10.5439 3.26803 10.5452C3.36409 10.5571 3.45404 10.571 3.53815 10.5861C3.55117 10.5885 3.56348 10.591 3.57579 10.5935L3.5758 10.5935L3.59681 10.5977C3.66227 10.6104 3.72438 10.6238 3.78242 10.6379L3.79655 10.6413C3.8111 10.6448 3.82569 10.6483 3.83955 10.6519C3.90837 10.6697 3.97334 10.688 4.03125 10.7066L4.03901 10.7093L4.04619 10.7117C4.0842 10.7242 4.11712 10.7364 4.15016 10.7487L4.15017 10.7487L4.15527 10.7506C3.62679 10.9299 3.06458 11.0146 2.50006 11.0001C1.93558 11.0146 1.37337 10.9299 0.844889 10.7508L0.850078 10.7488L0.850081 10.7488L0.850082 10.7488C0.884782 10.7358 0.919357 10.7228 0.959603 10.7098ZM2.5 11.5C1.83431 11.5177 1.17188 11.4096 0.555567 11.1825H0.555534V12.1207L0.557389 12.1218C0.583952 12.1364 0.616016 12.1531 0.654395 12.1712L0.655208 12.1715C0.690853 12.1884 0.733171 12.2065 0.779362 12.2251L0.798666 12.2329C0.846387 12.2515 0.899707 12.2707 0.958431 12.2898L0.973986 12.2946L0.9861 12.2983C1.04007 12.3154 1.09893 12.3321 1.16208 12.3485L1.17629 12.3522L1.19538 12.3573C1.26559 12.3747 1.34222 12.3912 1.4236 12.4067C1.43565 12.409 1.44818 12.4111 1.46069 12.4133L1.47767 12.4163C1.5556 12.4301 1.63799 12.4428 1.72598 12.4538L1.74108 12.4559L1.75781 12.4582C1.85365 12.4695 1.9571 12.4783 2.06494 12.4854C2.08858 12.4869 2.11273 12.4882 2.137 12.4895L2.14238 12.4897C2.25583 12.4957 2.37347 12.5 2.5 12.5C2.62653 12.5 2.74417 12.4957 2.85762 12.4898C2.88369 12.4884 2.9097 12.487 2.93506 12.4854C3.04281 12.4784 3.14616 12.4696 3.24193 12.4582C3.24811 12.4575 3.25395 12.4566 3.25979 12.4558L3.25979 12.4558L3.2598 12.4558L3.27506 12.4537C3.36217 12.4428 3.44378 12.4302 3.52103 12.4165L3.53881 12.4134L3.53884 12.4134L3.53886 12.4134C3.5519 12.4111 3.56495 12.4089 3.57751 12.4065C3.65791 12.3912 3.73359 12.3748 3.80306 12.3576C3.81123 12.3556 3.81893 12.3535 3.82663 12.3514L3.84186 12.3474C3.90153 12.3319 3.95729 12.316 4.00872 12.2999L4.02354 12.2953C4.03071 12.2931 4.03786 12.291 4.04456 12.2888C4.10052 12.2705 4.1514 12.2522 4.19727 12.2343C4.20502 12.2313 4.21226 12.2284 4.21952 12.2254L4.22812 12.2219C4.2665 12.2063 4.30182 12.1911 4.33268 12.1768L4.35042 12.1687C4.38402 12.1527 4.41243 12.138 4.43672 12.1248L4.44443 12.1205V11.1825C3.82812 11.4096 3.16569 11.5177 2.5 11.5ZM4.44443 15.1209C4.22904 15.2399 3.629 15.5 2.5 15.5C1.36882 15.5 0.768783 15.2389 0.555567 15.1211V14.1829C0.561693 14.1853 0.56851 14.1878 0.575336 14.1903L0.59222 14.1965C0.624317 14.2089 0.656901 14.2213 0.69235 14.2337C0.70539 14.2383 0.719153 14.2428 0.732973 14.2473L0.75306 14.2539C0.787402 14.2652 0.822331 14.2765 0.859603 14.2876C0.881791 14.2942 0.904961 14.3007 0.928253 14.3071L0.933626 14.3086C0.971126 14.3191 1.00957 14.3293 1.04987 14.3393C1.0778 14.3462 1.10648 14.3529 1.13574 14.3596C1.17708 14.369 1.21986 14.378 1.26393 14.3868C1.29554 14.3931 1.32728 14.3993 1.36029 14.4052C1.40641 14.4135 1.45449 14.421 1.50342 14.4285L1.51793 14.4307C1.54764 14.4352 1.57724 14.4397 1.60824 14.4438C1.66077 14.4507 1.71598 14.4566 1.77158 14.4624L1.80242 14.4658C1.82806 14.4685 1.85364 14.4713 1.88044 14.4737C1.94359 14.4792 2.01022 14.4831 2.07715 14.4869L2.11561 14.4894C2.13589 14.4907 2.15616 14.4921 2.17744 14.493C2.28079 14.4974 2.38786 14.5001 2.49997 14.5001C2.61208 14.5001 2.71914 14.4974 2.82253 14.493C2.84382 14.4921 2.86409 14.4907 2.88436 14.4894L2.88438 14.4894L2.92282 14.4869C2.98975 14.4831 3.05641 14.4791 3.11953 14.4737C3.14641 14.4713 3.17205 14.4685 3.19773 14.4657L3.19781 14.4657L3.22839 14.4624C3.28395 14.4566 3.33919 14.4508 3.39173 14.4438C3.42273 14.4397 3.45233 14.4352 3.48204 14.4307L3.49655 14.4285C3.54548 14.421 3.59355 14.4135 3.63968 14.4052C3.67272 14.3993 3.70446 14.3931 3.73603 14.3868C3.78011 14.378 3.82288 14.369 3.86422 14.3596C3.89352 14.3529 3.92217 14.3462 3.9501 14.3393C3.99036 14.3293 4.02884 14.3191 4.06634 14.3086L4.07835 14.3053L4.07839 14.3053C4.09943 14.2994 4.12032 14.2936 4.14036 14.2876C4.17764 14.2765 4.21256 14.2652 4.24691 14.2539L4.26425 14.2482C4.279 14.2434 4.29371 14.2386 4.30762 14.2337C4.34307 14.2213 4.37565 14.2089 4.40775 14.1965L4.42437 14.1904C4.43128 14.1879 4.4382 14.1854 4.4444 14.1829L4.44443 15.1209ZM4.43675 13.6248L4.44447 13.6205H4.44437V12.6829C4.43816 12.6854 4.43125 12.6879 4.42433 12.6903C4.41866 12.6924 4.41299 12.6944 4.40771 12.6965C4.37562 12.7089 4.34303 12.7212 4.30758 12.7337C4.29368 12.7385 4.27896 12.7433 4.26422 12.7482C4.25843 12.7501 4.25263 12.7519 4.24687 12.7538C4.21253 12.7652 4.1776 12.7765 4.14033 12.7876C4.12028 12.7936 4.09937 12.7994 4.0783 12.8053C4.07431 12.8064 4.07031 12.8075 4.06631 12.8086C4.02881 12.8191 3.99033 12.8293 3.95006 12.8392C3.92214 12.8462 3.89349 12.8529 3.86419 12.8596C3.82285 12.869 3.78008 12.878 3.736 12.8868C3.70443 12.8931 3.67269 12.8992 3.63965 12.9052C3.59352 12.9134 3.54544 12.921 3.49652 12.9284C3.49167 12.9292 3.48683 12.9299 3.48199 12.9306C3.45228 12.9351 3.42269 12.9396 3.3917 12.9437C3.33916 12.9507 3.28392 12.9566 3.22835 12.9624C3.2181 12.9635 3.20794 12.9646 3.19778 12.9657C3.17207 12.9685 3.1464 12.9713 3.1195 12.9736C3.05638 12.9791 2.98971 12.983 2.92279 12.9869C2.9098 12.9876 2.89707 12.9885 2.88434 12.9893C2.86407 12.9907 2.8438 12.9921 2.82249 12.993C2.71911 12.9974 2.61204 13.0001 2.49993 13.0001C2.38783 13.0001 2.28076 12.9974 2.17741 12.993C2.15613 12.9921 2.13586 12.9907 2.11558 12.9893C2.10285 12.9885 2.09011 12.9876 2.07712 12.9869C2.01022 12.983 1.94355 12.9791 1.8804 12.9736C1.85361 12.9713 1.82803 12.9685 1.80239 12.9657C1.79215 12.9646 1.78189 12.9635 1.77155 12.9624C1.71595 12.9566 1.66074 12.9507 1.6082 12.9437C1.57721 12.9396 1.54762 12.9351 1.51792 12.9306C1.51308 12.9299 1.50824 12.9292 1.50339 12.9284C1.45446 12.921 1.40638 12.9134 1.36025 12.9052C1.32725 12.8992 1.29551 12.8931 1.2639 12.8868C1.21982 12.878 1.17705 12.869 1.13571 12.8596C1.10645 12.8529 1.07777 12.8462 1.04984 12.8392C1.00954 12.8292 0.971094 12.8191 0.933594 12.8086L0.928132 12.8071C0.90487 12.8006 0.88173 12.7942 0.85957 12.7876C0.822298 12.7764 0.78737 12.7652 0.753027 12.7538C0.746374 12.7516 0.739658 12.7494 0.732955 12.7473C0.71913 12.7427 0.705362 12.7382 0.692318 12.7337C0.656901 12.7212 0.624317 12.7089 0.59222 12.6965C0.58686 12.6944 0.581098 12.6923 0.575343 12.6902C0.568515 12.6878 0.561696 12.6853 0.555567 12.6829V13.6207L0.562695 13.6247C0.587207 13.6381 0.615918 13.653 0.650195 13.6693L0.66403 13.6756C0.695573 13.6903 0.732031 13.7059 0.771615 13.722C0.775211 13.7234 0.778761 13.7248 0.78232 13.7263C0.788588 13.7288 0.794887 13.7314 0.80153 13.734C0.847526 13.752 0.898568 13.7703 0.954785 13.7887C0.961442 13.7908 0.968568 13.793 0.975681 13.7952C0.980255 13.7966 0.984824 13.7979 0.989258 13.7993C1.04069 13.8155 1.09658 13.8314 1.15635 13.847C1.16128 13.8483 1.16609 13.8496 1.1709 13.8509C1.17905 13.8531 1.18718 13.8552 1.1958 13.8574C1.26533 13.8747 1.34105 13.891 1.42155 13.9064C1.43364 13.9087 1.44625 13.9109 1.45886 13.913C1.46508 13.9141 1.47131 13.9152 1.47747 13.9163C1.55433 13.9299 1.63564 13.9425 1.72227 13.9533C1.72773 13.954 1.73298 13.9548 1.73824 13.9555C1.74455 13.9565 1.75086 13.9574 1.75752 13.9582C1.85319 13.9695 1.95641 13.9783 2.06406 13.9854C2.08958 13.987 2.11582 13.9884 2.14206 13.9898C2.2556 13.9957 2.37334 14 2.5 14C2.62653 14 2.74417 13.9957 2.85765 13.9898C2.88372 13.9884 2.90973 13.9871 2.93509 13.9854C3.04284 13.9784 3.14619 13.9696 3.24196 13.9582C3.24814 13.9575 3.25399 13.9567 3.25983 13.9558C3.26485 13.9551 3.26987 13.9544 3.2751 13.9537C3.36221 13.9428 3.44381 13.9302 3.52106 13.9166C3.52695 13.9155 3.53288 13.9145 3.53881 13.9134C3.55188 13.9112 3.56496 13.9089 3.57754 13.9065C3.65794 13.8912 3.73363 13.8749 3.80309 13.8576C3.81127 13.8556 3.81896 13.8535 3.82667 13.8515C3.83169 13.8501 3.83673 13.8488 3.84189 13.8474C3.90156 13.8319 3.95732 13.816 4.00876 13.7999C4.0136 13.7984 4.01859 13.7969 4.02357 13.7953C4.03073 13.7932 4.03789 13.791 4.0446 13.7888C4.10055 13.7705 4.15143 13.7522 4.1973 13.7344C4.20506 13.7313 4.2123 13.7284 4.21956 13.7254C4.22241 13.7242 4.22527 13.7231 4.22816 13.7219C4.26654 13.7063 4.30186 13.6911 4.33271 13.6768L4.35046 13.6688C4.38405 13.6528 4.41247 13.6381 4.43675 13.6248Z" fill="#3A3A3A"/>
<path fill-rule="evenodd" clip-rule="evenodd" d="M15.9086 3.61163C15.8804 3.58662 15.1957 3 13.5 3C11.8043 3 11.1196 3.58662 11.0914 3.61163C11.0331 3.66295 10.9999 3.73595 11 3.8125V15.1875C10.9999 15.2641 11.0331 15.3371 11.0914 15.3884C11.1196 15.4134 11.8043 16 13.5 16C15.1957 16 15.8804 15.4134 15.9086 15.3884C15.9669 15.3371 16.0001 15.2641 16 15.1875V3.8125C16.0001 3.73595 15.9669 3.66295 15.9086 3.61163ZM11.9596 3.76892L11.9694 3.76527C12.0276 3.74506 12.093 3.72516 12.1621 3.7058C12.1749 3.70223 12.1882 3.69876 12.2016 3.69528L12.2186 3.69085C12.2771 3.67549 12.3398 3.66082 12.4059 3.64692L12.4259 3.64257L12.4259 3.64257C12.438 3.63993 12.4499 3.6373 12.4626 3.63483C12.5469 3.61836 12.6371 3.60357 12.7333 3.59052C12.7447 3.58899 12.7566 3.5877 12.7687 3.5864L12.7687 3.5864L12.7687 3.5864L12.7687 3.5864L12.7687 3.5864L12.7687 3.5864L12.7687 3.5864L12.7687 3.5864L12.7944 3.58351C12.8751 3.5737 12.9603 3.56558 13.0492 3.55907L13.0496 3.55904C13.0799 3.55683 13.1101 3.55462 13.1414 3.55285C13.2551 3.54634 13.3731 3.54171 13.5 3.54171C13.6271 3.54171 13.7453 3.54634 13.8591 3.55285C13.8907 3.55466 13.9213 3.55688 13.9519 3.55913C14.0407 3.56567 14.1257 3.5738 14.2063 3.5836L14.2329 3.5866L14.2329 3.5866C14.2448 3.58789 14.2567 3.58918 14.268 3.59068C14.3641 3.60357 14.454 3.61855 14.5381 3.63499C14.5511 3.63753 14.5633 3.64022 14.5756 3.64291L14.5756 3.64291L14.5756 3.64291L14.5756 3.64291L14.5756 3.64291L14.5756 3.64291L14.5756 3.64291L14.5756 3.64291L14.5968 3.64749C14.6622 3.6613 14.7243 3.67583 14.7824 3.6911L14.7965 3.69479C14.8111 3.69857 14.8257 3.70236 14.8395 3.70624C14.9083 3.72554 14.9733 3.74534 15.0312 3.76546L15.039 3.76836L15.0462 3.77105C15.0842 3.78451 15.1171 3.7978 15.1501 3.81113L15.1552 3.8132C14.6268 4.00734 14.0646 4.09913 13.5 4.08345C12.9355 4.0991 12.3733 4.00737 11.8449 3.81336L11.8506 3.81103C11.8851 3.79699 11.9196 3.783 11.9596 3.76892ZM13.5 4.625C12.8343 4.6442 12.1719 4.52699 11.5556 4.28099H11.5555V5.2975L11.5574 5.29865C11.584 5.31451 11.616 5.33254 11.6544 5.35216L11.6552 5.35257C11.6909 5.37079 11.7332 5.39046 11.7794 5.41055L11.7987 5.419C11.8464 5.43921 11.8997 5.45997 11.9584 5.48066L11.974 5.4859L11.9861 5.48993C12.0401 5.50837 12.0989 5.52656 12.1621 5.54424L12.1763 5.54833L12.1954 5.55376C12.2656 5.57267 12.3422 5.59054 12.4236 5.6073C12.4356 5.60978 12.4481 5.61212 12.4605 5.61446L12.4777 5.61771C12.5556 5.63269 12.638 5.64646 12.726 5.65837L12.7411 5.66061L12.7578 5.66306C12.8536 5.67538 12.9571 5.68493 13.0649 5.69255C13.0887 5.69424 13.113 5.69563 13.1374 5.69703L13.1424 5.69731C13.2558 5.70375 13.3735 5.70839 13.5 5.70839C13.6265 5.70839 13.7442 5.70375 13.8576 5.69731C13.8837 5.69582 13.9097 5.69433 13.9351 5.69255C14.0428 5.68496 14.1462 5.67541 14.2419 5.6631C14.2481 5.66231 14.2539 5.6614 14.2598 5.66048L14.2598 5.66048L14.2751 5.65821C14.3622 5.64637 14.4438 5.63275 14.521 5.61793L14.5388 5.61457L14.5388 5.61456C14.5519 5.6121 14.5649 5.60964 14.5775 5.60705C14.6579 5.59048 14.7336 5.57277 14.8031 5.55411C14.811 5.55195 14.8186 5.54975 14.8261 5.54755L14.8419 5.543C14.9015 5.52621 14.9573 5.50897 15.0087 5.49152L15.0236 5.48655C15.0308 5.4842 15.0379 5.48186 15.0446 5.47949C15.1005 5.45972 15.1514 5.43988 15.1973 5.42052C15.205 5.41727 15.2122 5.41406 15.2195 5.41085L15.2195 5.41084L15.2281 5.40703C15.2665 5.39015 15.3018 5.37371 15.3327 5.35819L15.3409 5.35418L15.3504 5.34946C15.384 5.33213 15.4124 5.3162 15.4367 5.30185L15.4444 5.29718V4.28099C14.8281 4.52702 14.1657 4.6442 13.5 4.625ZM11.5753 5.91443L11.5753 5.91443L11.5922 5.92119C11.6243 5.93462 11.6569 5.94801 11.6924 5.96147C11.7054 5.96643 11.7192 5.9713 11.733 5.97619L11.7531 5.98334C11.7874 5.99565 11.8223 6.00781 11.8596 6.0199C11.8818 6.02706 11.9049 6.03403 11.9282 6.04103L11.9336 6.04265C11.9711 6.05398 12.0096 6.065 12.0499 6.07585C12.0778 6.08337 12.1065 6.09064 12.1357 6.09788C12.1771 6.1081 12.2199 6.11784 12.2639 6.12736C12.2955 6.13419 12.3273 6.14085 12.3603 6.14726C12.4064 6.15621 12.4545 6.16443 12.5034 6.17246L12.518 6.17486L12.518 6.17486L12.518 6.17487L12.518 6.17487L12.518 6.17487L12.518 6.17487C12.5477 6.17975 12.5773 6.18462 12.6082 6.18906C12.6608 6.19658 12.716 6.20296 12.7715 6.20925L12.8024 6.21284C12.828 6.21585 12.8536 6.21886 12.8804 6.2214C12.9436 6.22737 13.0102 6.23159 13.0771 6.23575L13.1156 6.23841C13.1359 6.23988 13.1561 6.24136 13.1774 6.24235C13.2808 6.24718 13.3878 6.25003 13.5 6.25003C13.6121 6.25003 13.7191 6.24714 13.8225 6.24235C13.8438 6.24136 13.8641 6.23988 13.8844 6.23841L13.9228 6.23575C13.9897 6.23159 14.0564 6.22734 14.1195 6.2214C14.1464 6.21886 14.1721 6.21584 14.1978 6.21281L14.1978 6.21281L14.1978 6.21281L14.2284 6.20925C14.284 6.20293 14.3392 6.19658 14.3917 6.18906C14.4227 6.18462 14.4523 6.17975 14.482 6.17486L14.4965 6.17246C14.5454 6.16443 14.5935 6.15625 14.6396 6.14726C14.6727 6.14085 14.7044 6.13419 14.736 6.12736C14.7801 6.11784 14.8229 6.1081 14.8642 6.09788C14.8935 6.09064 14.9221 6.08337 14.9501 6.07585C14.9904 6.06503 15.0288 6.05398 15.0663 6.04265L15.0784 6.03902C15.0994 6.03268 15.1203 6.02638 15.1404 6.0199C15.1776 6.00784 15.2126 5.99565 15.2469 5.98334L15.2643 5.97717C15.279 5.97196 15.2937 5.96675 15.3076 5.96147C15.3431 5.94801 15.3757 5.93465 15.4077 5.92119C15.4132 5.91887 15.4192 5.91655 15.4251 5.91425L15.4251 5.91424L15.4251 5.91424C15.4318 5.91163 15.4384 5.90902 15.4444 5.90643V6.92218L15.4367 6.92685C15.4124 6.9412 15.384 6.95713 15.3504 6.97446L15.3408 6.97918L15.3326 6.98319C15.3018 6.99871 15.2665 7.01515 15.2281 7.03203L15.2195 7.03583C15.2122 7.03905 15.205 7.04226 15.1972 7.04552C15.1514 7.06488 15.1005 7.08472 15.0445 7.10449C15.0379 7.10685 15.0308 7.10918 15.0237 7.11152L15.0237 7.11152L15.0237 7.11152L15.0236 7.11155L15.0087 7.11652C14.9573 7.13397 14.9015 7.15121 14.8418 7.168L14.826 7.17256C14.8185 7.17476 14.811 7.17695 14.803 7.17911C14.7336 7.19777 14.6579 7.21548 14.5775 7.23205C14.5649 7.23464 14.5518 7.2371 14.5388 7.23956L14.521 7.24293C14.4437 7.25775 14.3621 7.27137 14.275 7.28321L14.2598 7.28548C14.2539 7.2864 14.2481 7.28731 14.2419 7.2881C14.1461 7.30041 14.0428 7.30996 13.935 7.31755C13.9097 7.31933 13.8837 7.32082 13.8576 7.32231C13.7441 7.32875 13.6265 7.33339 13.5 7.33339C13.3733 7.33339 13.2556 7.32875 13.142 7.32228L13.1419 7.32227L13.1418 7.32227C13.1156 7.32078 13.0895 7.31929 13.064 7.31752C12.9564 7.3099 12.8532 7.30035 12.7575 7.28803C12.7509 7.28717 12.7446 7.2862 12.7383 7.28522H12.7383L12.7383 7.28522L12.7222 7.28283C12.6356 7.27102 12.5543 7.25744 12.4774 7.24268L12.4588 7.23916C12.4462 7.23679 12.4336 7.23443 12.4215 7.23192C12.341 7.21532 12.2653 7.19761 12.1957 7.17888C12.1872 7.17658 12.1792 7.17424 12.1711 7.17189L12.1562 7.16759C12.0965 7.15073 12.0406 7.13347 11.9892 7.11598L11.9756 7.11146L11.9755 7.11145C11.9684 7.10912 11.9613 7.10678 11.9547 7.10443C11.8985 7.08456 11.8474 7.06466 11.8014 7.0452L11.7797 7.03578L11.7715 7.03216C11.7319 7.0148 11.6955 6.99782 11.6639 6.98188L11.6501 6.97509C11.6158 6.95745 11.5871 6.94132 11.5626 6.92682L11.5555 6.9225V5.90643H11.5556C11.5617 5.90908 11.5685 5.91175 11.5753 5.91443ZM11.5753 7.53943C11.5685 7.53676 11.5617 7.53409 11.5556 7.53143H11.5555V8.54741L11.5626 8.55172C11.5871 8.56623 11.6158 8.58235 11.6501 8.6L11.6639 8.60679C11.6955 8.62272 11.7319 8.6397 11.7715 8.65706L11.7822 8.66176L11.8014 8.67011C11.8474 8.68956 11.8985 8.70946 11.9547 8.72933C11.9613 8.73168 11.9684 8.73402 11.9755 8.73636L11.9756 8.73637L11.9892 8.74088C12.0406 8.75837 12.0965 8.77564 12.1562 8.79249L12.1711 8.79679C12.1792 8.79914 12.1872 8.80148 12.1957 8.80379C12.2653 8.82251 12.341 8.84022 12.4215 8.85682C12.4336 8.85933 12.4461 8.86169 12.4587 8.86405L12.4588 8.86406L12.4774 8.86758C12.5543 8.88234 12.6356 8.89593 12.7222 8.90773L12.7383 8.91013L12.7384 8.91014C12.7446 8.91111 12.7509 8.91208 12.7575 8.91294C12.8532 8.92525 12.9564 8.9348 13.064 8.94242C13.0896 8.94423 13.1158 8.94572 13.142 8.94721C13.2556 8.95369 13.3733 8.95832 13.5 8.95832C13.6265 8.95832 13.7441 8.95372 13.8576 8.94725C13.8837 8.94579 13.9097 8.94429 13.935 8.94252C14.0428 8.93493 14.1461 8.92538 14.2419 8.91306C14.2481 8.91228 14.2539 8.91136 14.2598 8.91045H14.2598H14.2598H14.2598H14.2598L14.275 8.90818C14.3621 8.89634 14.4437 8.88272 14.521 8.8679L14.5388 8.86453C14.5518 8.86207 14.5649 8.85961 14.5775 8.85701C14.6579 8.84045 14.7336 8.82274 14.803 8.80407C14.8112 8.80189 14.8189 8.79965 14.8265 8.79741L14.8265 8.79741L14.8266 8.79739L14.8418 8.793C14.9015 8.77621 14.9573 8.75897 15.0087 8.74152L15.0236 8.73655L15.0237 8.73652L15.0237 8.73652L15.0237 8.73652C15.0308 8.73418 15.0379 8.73185 15.0445 8.72949C15.1005 8.70972 15.1514 8.68988 15.1972 8.67052C15.205 8.66726 15.2122 8.66405 15.2195 8.66083L15.2281 8.65703C15.2665 8.64015 15.3018 8.62371 15.3326 8.60819L15.3408 8.60418L15.3504 8.59946C15.384 8.58213 15.4124 8.5662 15.4367 8.55185L15.4444 8.54718V7.53143C15.4384 7.53403 15.4318 7.53663 15.4251 7.53924L15.4251 7.53924L15.4251 7.53925C15.4192 7.54156 15.4132 7.54387 15.4077 7.54619C15.3757 7.55965 15.3431 7.57301 15.3076 7.58647C15.2937 7.59175 15.279 7.59696 15.2643 7.60217L15.2469 7.60834C15.2126 7.62065 15.1776 7.63284 15.1404 7.6449C15.1203 7.65138 15.0994 7.65768 15.0784 7.66403L15.0663 7.66765C15.0288 7.67898 14.9904 7.69003 14.9501 7.70085C14.9221 7.70837 14.8935 7.71564 14.8642 7.72288C14.8229 7.7331 14.7801 7.74284 14.736 7.75236C14.7044 7.75919 14.6727 7.76585 14.6396 7.77226C14.5935 7.78125 14.5454 7.78943 14.4965 7.79746L14.4819 7.79986L14.4819 7.79986C14.4522 7.80475 14.4227 7.80962 14.3917 7.81406C14.3392 7.82158 14.284 7.82793 14.2284 7.83425L14.1978 7.83781L14.1978 7.83781L14.1978 7.83781L14.1978 7.83781C14.1721 7.84084 14.1464 7.84386 14.1195 7.8464C14.0564 7.85234 13.9897 7.85659 13.9228 7.86075L13.8844 7.86341C13.8641 7.86488 13.8438 7.86636 13.8225 7.86735C13.7191 7.87214 13.6121 7.87503 13.5 7.87503C13.3878 7.87503 13.2808 7.87218 13.1774 7.86735C13.1561 7.86636 13.1359 7.86488 13.1156 7.86341L13.0771 7.86075C13.0102 7.85659 12.9436 7.85237 12.8804 7.8464C12.8536 7.84386 12.828 7.84085 12.8024 7.83784L12.7715 7.83425C12.716 7.82796 12.6608 7.82158 12.6082 7.81406C12.5773 7.80962 12.5477 7.80475 12.518 7.79986L12.518 7.79986L12.5034 7.79746C12.4545 7.78943 12.4064 7.78121 12.3603 7.77226C12.3273 7.76585 12.2955 7.75919 12.2639 7.75236C12.2199 7.74284 12.1771 7.7331 12.1357 7.72288C12.1065 7.71564 12.0778 7.70837 12.0499 7.70085C12.0096 7.69 11.9711 7.67898 11.9336 7.66765L11.9282 7.66601L11.9281 7.666L11.9281 7.666L11.9281 7.66599L11.9281 7.66599C11.9049 7.659 11.8817 7.65204 11.8596 7.6449C11.8223 7.63281 11.7874 7.62065 11.7531 7.60834L11.733 7.60119C11.7192 7.5963 11.7054 7.59143 11.6924 7.58647C11.6569 7.57301 11.6243 7.55962 11.5922 7.54619L11.5753 7.53943ZM11.5556 9.15643C11.5617 9.15909 11.5685 9.16176 11.5753 9.16443L11.5922 9.17119C11.6243 9.18462 11.6569 9.19801 11.6924 9.21147C11.7054 9.21643 11.7192 9.2213 11.733 9.22619L11.7531 9.23334C11.7874 9.24565 11.8223 9.25781 11.8596 9.2699C11.8817 9.27704 11.9049 9.284 11.9281 9.29099L11.9281 9.291L11.9281 9.291L11.9282 9.29101L11.9336 9.29265C11.9711 9.30398 12.0096 9.315 12.0499 9.32585C12.0778 9.33337 12.1065 9.34064 12.1357 9.34788C12.1771 9.3581 12.2199 9.36784 12.2639 9.37736C12.2955 9.38419 12.3273 9.39085 12.3603 9.39726C12.4064 9.40621 12.4545 9.41443 12.5034 9.42246L12.518 9.42486L12.518 9.42486C12.5477 9.42975 12.5773 9.43462 12.6082 9.43906C12.6608 9.44662 12.716 9.45296 12.7715 9.45928L12.8024 9.46287C12.828 9.46589 12.8536 9.4689 12.8804 9.47144C12.9436 9.4774 13.0102 9.48162 13.0771 9.48578L13.1156 9.48844C13.1359 9.48992 13.1561 9.49139 13.1774 9.49238C13.2808 9.49718 13.3878 9.50006 13.5 9.50006C13.6121 9.50006 13.7191 9.49718 13.8225 9.49238C13.8438 9.49139 13.8641 9.48992 13.8843 9.48844L13.8843 9.48844L13.8844 9.48844L13.9228 9.48578C13.9897 9.48162 14.0564 9.47737 14.1195 9.47144C14.1464 9.46889 14.1721 9.46587 14.1978 9.46284L14.1978 9.46284L14.2284 9.45928C14.284 9.45296 14.3392 9.44662 14.3917 9.43906C14.4227 9.43462 14.4522 9.42975 14.4819 9.42486L14.4819 9.42486L14.4965 9.42246C14.5454 9.41443 14.5935 9.40625 14.6396 9.39726C14.6727 9.39085 14.7044 9.38419 14.736 9.37736C14.7801 9.36784 14.8229 9.3581 14.8642 9.34788C14.8935 9.34064 14.9221 9.33337 14.9501 9.32585C14.9904 9.31503 15.0288 9.30398 15.0663 9.29265L15.0784 9.28903C15.0994 9.28268 15.1203 9.27638 15.1404 9.2699C15.1776 9.25784 15.2126 9.24565 15.2469 9.23334L15.2643 9.22717C15.279 9.22196 15.2937 9.21675 15.3076 9.21147C15.3431 9.19801 15.3757 9.18465 15.4077 9.17119L15.4246 9.16443C15.4315 9.16176 15.4383 9.15909 15.4444 9.15643V10.1722L15.4367 10.1769C15.4124 10.1912 15.384 10.2071 15.3504 10.2245L15.3408 10.2292L15.3326 10.2332C15.3018 10.2487 15.2665 10.2651 15.2281 10.282L15.2195 10.2858C15.2122 10.2891 15.205 10.2923 15.1972 10.2955C15.1514 10.3149 15.1005 10.3347 15.0445 10.3545L15.0347 10.3579L15.0236 10.3615L15.0087 10.3665C14.9573 10.384 14.9015 10.4012 14.8418 10.418L14.8266 10.4224L14.8265 10.4224C14.8189 10.4246 14.8112 10.4269 14.803 10.4291C14.7336 10.4477 14.6579 10.4654 14.5775 10.482C14.5649 10.4846 14.5518 10.4871 14.5388 10.4895L14.521 10.4929C14.4437 10.5077 14.3621 10.5213 14.275 10.5332L14.2598 10.5354H14.2598H14.2598C14.2539 10.5364 14.2481 10.5373 14.2419 10.5381C14.1461 10.5504 14.0428 10.5599 13.935 10.5675C13.9097 10.5693 13.8837 10.5708 13.8576 10.5722C13.7441 10.5787 13.6265 10.5833 13.5 10.5833C13.3733 10.5833 13.2556 10.5787 13.142 10.5722C13.1158 10.5707 13.0896 10.5692 13.064 10.5675C12.9564 10.5598 12.8532 10.5503 12.7575 10.538C12.7509 10.5371 12.7446 10.5361 12.7383 10.5352L12.7383 10.5352L12.7383 10.5352L12.7383 10.5352L12.7222 10.5328C12.6356 10.521 12.5543 10.5074 12.4774 10.4926L12.4588 10.4891C12.4462 10.4867 12.4336 10.4844 12.4215 10.4819C12.341 10.4653 12.2653 10.4475 12.1957 10.4288C12.1872 10.4265 12.1792 10.4242 12.1711 10.4218L12.1562 10.4175C12.0965 10.4007 12.0406 10.3834 11.9892 10.3659L11.9756 10.3614C11.9685 10.3591 11.9613 10.3567 11.9547 10.3544C11.8985 10.3345 11.8474 10.3146 11.8014 10.2951L11.7822 10.2868L11.7715 10.2821C11.7319 10.2647 11.6955 10.2478 11.6639 10.2318L11.6501 10.225C11.6158 10.2074 11.5871 10.1913 11.5626 10.1768L11.5555 10.1724V9.15643H11.5556ZM11.5753 10.7894C11.5685 10.7868 11.5617 10.7841 11.5556 10.7814H11.5555V11.7974L11.5626 11.8018C11.5871 11.8163 11.6158 11.8324 11.6501 11.85L11.6639 11.8568C11.6955 11.8728 11.7319 11.8897 11.7715 11.9071L11.7822 11.9118L11.8014 11.9201C11.8474 11.9396 11.8985 11.9595 11.9547 11.9794C11.9613 11.9817 11.9685 11.9841 11.9756 11.9864L11.9892 11.9909C12.0406 12.0084 12.0965 12.0257 12.1562 12.0425L12.1712 12.0468L12.1712 12.0469C12.1793 12.0492 12.1873 12.0515 12.1957 12.0538C12.2653 12.0725 12.341 12.0903 12.4215 12.1069C12.4336 12.1094 12.4462 12.1117 12.4588 12.1141L12.4774 12.1176C12.5543 12.1324 12.6356 12.146 12.7222 12.1578L12.7383 12.1602C12.7446 12.1611 12.7509 12.1621 12.7575 12.163C12.8532 12.1753 12.9564 12.1848 13.064 12.1925C13.0896 12.1942 13.1158 12.1957 13.142 12.1972C13.2556 12.2037 13.3733 12.2083 13.5 12.2083C13.6265 12.2083 13.7441 12.2037 13.8576 12.1972C13.8837 12.1958 13.9097 12.1943 13.935 12.1925C14.0428 12.1849 14.1461 12.1754 14.2419 12.1631C14.2481 12.1623 14.2539 12.1614 14.2598 12.1604L14.275 12.1582C14.3621 12.1463 14.4437 12.1327 14.521 12.1179L14.5387 12.1145C14.5518 12.1121 14.5649 12.1096 14.5775 12.107C14.6579 12.0904 14.7336 12.0727 14.803 12.0541C14.8112 12.0519 14.8189 12.0496 14.8266 12.0474L14.8418 12.043C14.9015 12.0262 14.9573 12.009 15.0087 11.9915L15.0236 11.9865C15.0307 11.9842 15.0378 11.9819 15.0445 11.9795C15.1005 11.9597 15.1514 11.9399 15.1972 11.9205C15.208 11.916 15.2178 11.9115 15.2281 11.907C15.2665 11.8901 15.3018 11.8737 15.3326 11.8582L15.3408 11.8542L15.3504 11.8495C15.384 11.8321 15.4124 11.8162 15.4367 11.8019L15.4444 11.7972V10.7814C15.4383 10.7841 15.4315 10.7868 15.4246 10.7894L15.4077 10.7962C15.3757 10.8096 15.3431 10.823 15.3076 10.8365C15.2937 10.8418 15.279 10.847 15.2643 10.8522L15.2469 10.8583C15.2126 10.8706 15.1776 10.8828 15.1404 10.8949C15.1203 10.9014 15.0994 10.9077 15.0784 10.914L15.0663 10.9177C15.0288 10.929 14.9904 10.94 14.9501 10.9509C14.9221 10.9584 14.8935 10.9656 14.8642 10.9729C14.8229 10.9831 14.7801 10.9928 14.736 11.0024C14.7044 11.0092 14.6727 11.0159 14.6396 11.0223C14.5935 11.0312 14.5454 11.0394 14.4965 11.0475L14.4819 11.0499C14.4523 11.0547 14.4227 11.0596 14.3917 11.0641C14.3392 11.0716 14.284 11.078 14.2284 11.0843L14.1978 11.0878L14.1977 11.0878L14.1977 11.0879C14.172 11.0909 14.1464 11.0939 14.1195 11.0964C14.0564 11.1024 13.9897 11.1066 13.9228 11.1108L13.8844 11.1134C13.8641 11.1149 13.8438 11.1164 13.8225 11.1174C13.7191 11.1222 13.6121 11.1251 13.5 11.1251C13.3878 11.1251 13.2808 11.1222 13.1774 11.1174C13.1561 11.1164 13.1359 11.1149 13.1156 11.1134L13.0771 11.1108C13.0102 11.1066 12.9436 11.1024 12.8804 11.0964C12.8536 11.0939 12.828 11.0909 12.8024 11.0879L12.7715 11.0843C12.716 11.078 12.6608 11.0716 12.6082 11.0641C12.5773 11.0596 12.5478 11.0548 12.5181 11.0499L12.5181 11.0499L12.518 11.0499L12.5034 11.0475C12.4545 11.0394 12.4064 11.0312 12.3603 11.0223C12.3273 11.0159 12.2955 11.0092 12.2639 11.0024C12.2199 10.9928 12.1771 10.9831 12.1357 10.9729C12.1065 10.9656 12.0778 10.9584 12.0499 10.9509C12.0096 10.94 11.9711 10.929 11.9336 10.9177L11.9282 10.916L11.9281 10.916L11.9281 10.916C11.9049 10.909 11.8817 10.902 11.8596 10.8949C11.8223 10.8828 11.7874 10.8706 11.7531 10.8583L11.733 10.8512C11.7192 10.8463 11.7054 10.8414 11.6924 10.8365C11.6569 10.823 11.6243 10.8096 11.5922 10.7962L11.5753 10.7894ZM11.5556 12.4064C11.5617 12.4091 11.5685 12.4118 11.5753 12.4144L11.5922 12.4212C11.6243 12.4346 11.6569 12.448 11.6924 12.4615C11.7054 12.4664 11.7191 12.4713 11.7329 12.4762L11.733 12.4762L11.7531 12.4833C11.7874 12.4956 11.8223 12.5078 11.8596 12.5199C11.8818 12.527 11.9049 12.534 11.9282 12.541L11.9336 12.5427C11.9711 12.554 12.0096 12.565 12.0499 12.5759C12.0778 12.5834 12.1065 12.5906 12.1357 12.5979C12.1771 12.6081 12.2199 12.6178 12.2639 12.6274C12.2955 12.6342 12.3273 12.6409 12.3603 12.6473C12.4064 12.6562 12.4545 12.6644 12.5034 12.6725L12.518 12.6749L12.5181 12.6749C12.5477 12.6798 12.5773 12.6846 12.6082 12.6891C12.6608 12.6966 12.716 12.703 12.7715 12.7093L12.8024 12.7129C12.828 12.7159 12.8536 12.7189 12.8804 12.7214C12.9436 12.7274 13.0102 12.7316 13.0771 12.7358L13.1156 12.7384C13.1359 12.7399 13.1561 12.7414 13.1774 12.7424C13.2808 12.7472 13.3878 12.7501 13.5 12.7501C13.6121 12.7501 13.7191 12.7472 13.8225 12.7424C13.8438 12.7414 13.8641 12.7399 13.8844 12.7384L13.9228 12.7358C13.9897 12.7316 14.0564 12.7274 14.1195 12.7214C14.1464 12.7189 14.172 12.7159 14.1977 12.7128L14.1978 12.7128L14.2284 12.7093C14.284 12.703 14.3392 12.6966 14.3917 12.6891C14.4227 12.6846 14.4523 12.6797 14.4819 12.6749L14.4965 12.6725C14.5454 12.6644 14.5935 12.6562 14.6396 12.6473C14.6727 12.6409 14.7044 12.6342 14.736 12.6274C14.7801 12.6178 14.8229 12.6081 14.8642 12.5979C14.8935 12.5906 14.9221 12.5834 14.9501 12.5759C14.9904 12.565 15.0288 12.554 15.0663 12.5427L15.0784 12.539C15.0994 12.5327 15.1203 12.5264 15.1404 12.5199C15.1776 12.5078 15.2126 12.4956 15.2469 12.4833L15.2642 12.4772C15.279 12.472 15.2937 12.4668 15.3076 12.4615C15.3431 12.448 15.3757 12.4346 15.4077 12.4212L15.4246 12.4144C15.4315 12.4118 15.4383 12.4091 15.4444 12.4064V13.4222L15.4367 13.4269C15.4124 13.4412 15.384 13.4571 15.3504 13.4745L15.3408 13.4792L15.3326 13.4832C15.3018 13.4987 15.2665 13.5151 15.2281 13.532L15.2195 13.5358C15.2122 13.5391 15.205 13.5423 15.1972 13.5455C15.1514 13.5649 15.1005 13.5847 15.0445 13.6045C15.0378 13.6069 15.0307 13.6092 15.0236 13.6115L15.0087 13.6165C14.9573 13.634 14.9015 13.6512 14.8418 13.668L14.8266 13.6724L14.8265 13.6724C14.8188 13.6747 14.8112 13.6769 14.803 13.6791C14.7336 13.6977 14.6579 13.7154 14.5775 13.732C14.5649 13.7346 14.5518 13.7371 14.5387 13.7395L14.521 13.7429C14.4437 13.7577 14.3621 13.7713 14.275 13.7832L14.2598 13.7854C14.2539 13.7864 14.2481 13.7873 14.2419 13.7881C14.1461 13.8004 14.0428 13.8099 13.935 13.8175C13.9097 13.8193 13.8837 13.8208 13.8576 13.8223C13.7441 13.8288 13.6265 13.8334 13.5 13.8334C13.3733 13.8334 13.2556 13.8287 13.142 13.8222L13.1418 13.8222L13.1416 13.8222C13.1155 13.8207 13.0894 13.8193 13.064 13.8175C12.9564 13.8099 12.8532 13.8003 12.7575 13.788C12.7509 13.7871 12.7446 13.7862 12.7383 13.7852L12.7222 13.7828C12.6356 13.771 12.5543 13.7574 12.4774 13.7426L12.4588 13.7391L12.4586 13.7391C12.4461 13.7367 12.4335 13.7344 12.4215 13.7319C12.341 13.7153 12.2653 13.6976 12.1957 13.6789C12.1873 13.6766 12.1793 13.6742 12.1712 13.6719L12.1711 13.6719L12.1562 13.6676C12.0965 13.6507 12.0406 13.6334 11.9892 13.6159L11.9756 13.6114C11.9685 13.6091 11.9613 13.6068 11.9547 13.6044C11.8985 13.5845 11.8474 13.5646 11.8014 13.5452L11.7822 13.5368L11.7715 13.5321C11.7319 13.5148 11.6955 13.4978 11.6639 13.4819L11.6501 13.4751C11.6158 13.4574 11.5871 13.4413 11.5626 13.4268L11.5555 13.4225V12.4064H11.5556ZM13.5 15.4584C14.629 15.4584 15.229 15.1765 15.4444 15.0476L15.4444 14.0315C15.4382 14.0342 15.4313 14.0369 15.4244 14.0396C15.4187 14.0418 15.413 14.044 15.4077 14.0462C15.3757 14.0597 15.3431 14.073 15.3076 14.0865C15.2937 14.0918 15.279 14.097 15.2642 14.1022C15.2585 14.1043 15.2527 14.1063 15.2469 14.1084C15.2126 14.1207 15.1776 14.1329 15.1404 14.1449C15.1203 14.1514 15.0994 14.1577 15.0783 14.1641C15.0743 14.1653 15.0703 14.1665 15.0663 14.1677C15.0288 14.179 14.9904 14.1901 14.9501 14.2009C14.9221 14.2084 14.8935 14.2157 14.8642 14.2229C14.8229 14.2331 14.7801 14.2429 14.736 14.2524C14.7044 14.2592 14.6727 14.2659 14.6396 14.2723C14.5935 14.2813 14.5454 14.2895 14.4965 14.2975C14.4917 14.2983 14.4868 14.2991 14.4819 14.2999C14.4523 14.3048 14.4227 14.3096 14.3917 14.3141C14.3392 14.3216 14.284 14.328 14.2284 14.3343C14.2181 14.3355 14.208 14.3367 14.1978 14.3379C14.1721 14.3409 14.1464 14.3439 14.1195 14.3465C14.0564 14.3524 13.9897 14.3567 13.9228 14.3608C13.9098 14.3616 13.8971 14.3625 13.8844 14.3635C13.8641 14.3649 13.8438 14.3664 13.8225 14.3674C13.7191 14.3722 13.6121 14.3751 13.5 14.3751C13.3878 14.3751 13.2808 14.3722 13.1774 14.3674C13.1561 14.3664 13.1359 14.3649 13.1156 14.3635C13.1029 14.3625 13.0901 14.3616 13.0771 14.3608C13.0102 14.3567 12.9436 14.3524 12.8804 14.3465C12.8536 14.3439 12.828 14.3409 12.8024 14.3379C12.7922 14.3367 12.7819 14.3355 12.7715 14.3343C12.716 14.328 12.6608 14.3216 12.6082 14.3141C12.5773 14.3096 12.5477 14.3048 12.518 14.2999C12.5131 14.2991 12.5083 14.2983 12.5034 14.2975C12.4545 14.2895 12.4064 14.2812 12.3603 14.2723C12.3273 14.2659 12.2955 14.2592 12.2639 14.2524C12.2199 14.2429 12.1771 14.2331 12.1357 14.2229C12.1065 14.2157 12.0778 14.2084 12.0499 14.2009C12.0096 14.19 11.9711 14.179 11.9336 14.1677L11.9282 14.166C11.9049 14.159 11.8818 14.1521 11.8596 14.1449C11.8223 14.1328 11.7874 14.1207 11.7531 14.1084C11.7464 14.106 11.7397 14.1036 11.733 14.1012C11.7192 14.0963 11.7054 14.0915 11.6924 14.0865C11.6569 14.073 11.6243 14.0596 11.5922 14.0462C11.5869 14.044 11.5811 14.0417 11.5753 14.0395C11.5685 14.0368 11.5617 14.0341 11.5556 14.0315V15.0479C11.7688 15.1755 12.3688 15.4584 13.5 15.4584Z" fill="#3A3A3A"/>
<path fill-rule="evenodd" clip-rule="evenodd" d="M8.5 6C6.8043 6 6.11963 6.60166 6.09141 6.62731C6.03314 6.67995 5.99994 6.75482 6 6.83333V15.1667C5.99994 15.2452 6.03314 15.3201 6.09141 15.3727C6.11963 15.3983 6.8043 16 8.5 16C10.1957 16 10.8804 15.3983 10.9086 15.3727C10.9669 15.3201 11.0001 15.2452 11 15.1667V6.83333C11.0001 6.75482 10.9669 6.67995 10.9086 6.62731C10.8804 6.60166 10.1957 6 8.5 6ZM6.9596 6.78864L6.9694 6.7849C7.02757 6.76416 7.09297 6.74375 7.16214 6.72389C7.17489 6.72024 7.18824 6.71668 7.20161 6.71311L7.21859 6.70856C7.27712 6.69281 7.33978 6.67777 7.40586 6.66351L7.42593 6.65905L7.42594 6.65904L7.42595 6.65904C7.43796 6.65634 7.44995 6.65364 7.46263 6.65111C7.54691 6.63421 7.63711 6.61904 7.73327 6.60566C7.74465 6.60409 7.75664 6.60277 7.76865 6.60144L7.76866 6.60144L7.76866 6.60144L7.76867 6.60144L7.76867 6.60144L7.76868 6.60144L7.79443 6.59847C7.87513 6.58841 7.96025 6.58008 8.04922 6.5734L8.04964 6.57337C8.07991 6.57111 8.11014 6.56884 8.14137 6.56702C8.25511 6.56035 8.37314 6.5556 8.50003 6.5556C8.62712 6.5556 8.74528 6.56035 8.85915 6.56702C8.89069 6.56888 8.92129 6.57116 8.95186 6.57347C9.04072 6.58018 9.12575 6.58851 9.20635 6.59857L9.23292 6.60164L9.23292 6.60164C9.24483 6.60296 9.25673 6.60428 9.268 6.60583C9.36406 6.61904 9.454 6.63441 9.53812 6.65127C9.55109 6.65388 9.56335 6.65664 9.57561 6.65939L9.57562 6.65939L9.57562 6.6594L9.57563 6.6594L9.57563 6.6594L9.57563 6.6594L9.59678 6.6641C9.66224 6.67826 9.72435 6.69316 9.78239 6.70882L9.79653 6.7126L9.79654 6.7126C9.81109 6.71648 9.82566 6.72037 9.83952 6.72435C9.90833 6.74414 9.97331 6.76445 10.0312 6.78509L10.039 6.78806L10.0462 6.79082C10.0842 6.80463 10.1171 6.81825 10.1501 6.83193L10.1552 6.83405C9.62679 7.03317 9.06455 7.12731 8.50003 7.11123C7.93555 7.12728 7.37334 7.0332 6.84486 6.83421L6.85058 6.83183L6.85058 6.83183L6.85058 6.83183L6.85058 6.83183L6.85058 6.83183L6.85058 6.83183C6.88513 6.81743 6.91956 6.80308 6.9596 6.78864ZM8.5 7.66667C7.83431 7.68636 7.17188 7.56618 6.55557 7.31383H6.55553V8.35635L6.55739 8.35749C6.58395 8.37376 6.61602 8.39225 6.65439 8.41237L6.65521 8.41279C6.69085 8.43148 6.73317 8.45166 6.77936 8.47227L6.79867 8.48092C6.84639 8.50166 6.89971 8.52295 6.95843 8.54417L6.97398 8.54954L6.9861 8.55368C7.04007 8.57259 7.09893 8.59124 7.16208 8.60938L7.17629 8.61357L7.19538 8.61914C7.26559 8.63854 7.34222 8.65687 7.4236 8.67406C7.43565 8.67659 7.44817 8.67901 7.46068 8.68143L7.47767 8.68473C7.5556 8.7001 7.63799 8.71423 7.72598 8.72643L7.74108 8.72873L7.7411 8.72873L7.74111 8.72874C7.74657 8.72961 7.75204 8.73048 7.75781 8.73125C7.85365 8.74388 7.9571 8.75368 8.06494 8.76149C8.0887 8.76323 8.11298 8.76465 8.13736 8.76608L8.14238 8.76637C8.25583 8.77301 8.37347 8.77777 8.5 8.77777C8.62653 8.77777 8.74417 8.77305 8.85762 8.76641C8.88369 8.76491 8.9097 8.76338 8.93506 8.76156C9.04281 8.75378 9.14616 8.74398 9.24193 8.73135C9.24811 8.73054 9.25394 8.72961 9.25978 8.72867L9.25979 8.72867L9.2598 8.72867L9.27506 8.72633C9.36217 8.71419 9.44378 8.70023 9.52103 8.68503L9.53879 8.68157L9.53879 8.68157L9.53879 8.68157L9.5388 8.68157C9.55186 8.67905 9.56493 8.67652 9.57751 8.67386C9.65791 8.65687 9.73359 8.6387 9.80306 8.61956C9.81123 8.61732 9.81893 8.61501 9.82663 8.61271L9.84186 8.6082C9.90153 8.59098 9.95729 8.57331 10.0087 8.5554L10.0236 8.5503C10.0308 8.5479 10.0379 8.54549 10.0446 8.54307C10.1005 8.52279 10.1514 8.50244 10.1973 8.48258C10.205 8.47925 10.2122 8.47596 10.2195 8.47266L10.2195 8.47265L10.2281 8.46875C10.2665 8.45143 10.3018 8.43457 10.3327 8.41865L10.3409 8.41454L10.3504 8.4097C10.384 8.39193 10.4124 8.37559 10.4367 8.36087L10.4444 8.35609V7.31383C9.82812 7.56618 9.16569 7.68636 8.5 7.66667ZM10.4444 15.0232C10.229 15.1554 9.629 15.4445 8.5 15.4445C7.36882 15.4445 6.76878 15.1544 6.55557 15.0235V13.981C6.5617 13.9837 6.56851 13.9864 6.57534 13.9892L6.59222 13.9961C6.62432 14.0099 6.6569 14.0236 6.69235 14.0374C6.70538 14.0425 6.71914 14.0475 6.73295 14.0525L6.73296 14.0525L6.73298 14.0525L6.75306 14.0599C6.7874 14.0725 6.82233 14.085 6.8596 14.0974C6.88181 14.1047 6.90501 14.1119 6.92833 14.1191L6.93363 14.1207C6.97113 14.1323 7.00957 14.1436 7.04987 14.1548C7.0778 14.1625 7.10648 14.1699 7.13577 14.1773C7.17712 14.1878 7.21989 14.1978 7.26396 14.2076C7.29557 14.2146 7.32731 14.2214 7.36032 14.228C7.40645 14.2372 7.45452 14.2456 7.50345 14.2538L7.51811 14.2563C7.54778 14.2613 7.57733 14.2663 7.60827 14.2709C7.66081 14.2786 7.71602 14.2851 7.77158 14.2916L7.80237 14.2953L7.80253 14.2953C7.82813 14.2984 7.85368 14.3015 7.88044 14.3041C7.94359 14.3102 8.01025 14.3145 8.07715 14.3188L8.11563 14.3215C8.1359 14.323 8.15617 14.3245 8.17744 14.3256C8.28079 14.3305 8.38786 14.3334 8.49997 14.3334C8.61208 14.3334 8.71914 14.3305 8.82253 14.3256C8.84382 14.3245 8.86409 14.323 8.88436 14.3215L8.92282 14.3188C8.98975 14.3145 9.05641 14.3102 9.11953 14.3041C9.14645 14.3015 9.17214 14.2984 9.19786 14.2952L9.22839 14.2916C9.28395 14.2851 9.33919 14.2786 9.3917 14.2709C9.42264 14.2663 9.45219 14.2613 9.48185 14.2563L9.49652 14.2538C9.54544 14.2456 9.59352 14.2372 9.63965 14.228C9.67269 14.2214 9.70443 14.2146 9.736 14.2076C9.78008 14.1978 9.82285 14.1878 9.86419 14.1773C9.89349 14.1699 9.92214 14.1625 9.95006 14.1548C9.99033 14.1437 10.0288 14.1323 10.0663 14.1207L10.0784 14.117C10.0994 14.1105 10.1203 14.104 10.1403 14.0974C10.1776 14.085 10.2125 14.0725 10.2469 14.0599L10.2642 14.0535C10.279 14.0482 10.2937 14.0429 10.3076 14.0374C10.343 14.0236 10.3756 14.0099 10.4077 13.9961L10.4243 13.9893C10.4312 13.9865 10.4382 13.9838 10.4444 13.981L10.4444 15.0232ZM10.4368 13.3609L10.4445 13.3561H10.4444V12.3143C10.4382 12.3171 10.4312 12.3199 10.4243 12.3226L10.4077 12.3295C10.3756 12.3433 10.343 12.357 10.3076 12.3708C10.2937 12.3762 10.279 12.3815 10.2642 12.3869L10.2469 12.3932C10.2125 12.4058 10.1776 12.4183 10.1403 12.4307C10.1203 12.4373 10.0994 12.4438 10.0783 12.4503L10.0783 12.4503L10.0663 12.454C10.0288 12.4657 9.99033 12.477 9.95006 12.4881C9.92214 12.4958 9.89349 12.5033 9.86419 12.5107C9.82285 12.5212 9.78008 12.5312 9.736 12.5409C9.70443 12.5479 9.67269 12.5548 9.63965 12.5613C9.59352 12.5705 9.54544 12.5789 9.49652 12.5872L9.48199 12.5896L9.48195 12.5896L9.48174 12.5897C9.45212 12.5947 9.4226 12.5996 9.3917 12.6042C9.33919 12.6119 9.28395 12.6185 9.22839 12.6249L9.19779 12.6286C9.17209 12.6317 9.14643 12.6348 9.11953 12.6374C9.05641 12.6435 8.98975 12.6479 8.92282 12.6521L8.88438 12.6548C8.8641 12.6564 8.84383 12.6579 8.82253 12.6589C8.71914 12.6638 8.61208 12.6668 8.49997 12.6668C8.38786 12.6668 8.28079 12.6638 8.17744 12.6589C8.15616 12.6579 8.13589 12.6564 8.11561 12.6548L8.07715 12.6521C8.01025 12.6479 7.94359 12.6435 7.88044 12.6374C7.85366 12.6348 7.8281 12.6317 7.80248 12.6286L7.80246 12.6286L7.80244 12.6286L7.77158 12.6249C7.71602 12.6185 7.66081 12.6119 7.60827 12.6042C7.5773 12.5996 7.54773 12.5946 7.51805 12.5896L7.51803 12.5896L7.51798 12.5896L7.50345 12.5872C7.45452 12.5789 7.40645 12.5705 7.36032 12.5613C7.32731 12.5548 7.29557 12.5479 7.26396 12.5409C7.21989 12.5312 7.17712 12.5212 7.13577 12.5107C7.10648 12.5033 7.0778 12.4958 7.04987 12.4881C7.00957 12.477 6.97113 12.4657 6.93363 12.454L6.92818 12.4524C6.90491 12.4452 6.88177 12.438 6.8596 12.4307C6.82233 12.4183 6.7874 12.4058 6.75306 12.3932L6.733 12.3859C6.71917 12.3809 6.7054 12.3759 6.69235 12.3708C6.6569 12.357 6.62432 12.3432 6.59222 12.3295L6.57534 12.3225C6.56851 12.3198 6.5617 12.317 6.55557 12.3143V13.3564L6.5627 13.3608C6.58721 13.3757 6.61592 13.3923 6.6502 13.4104L6.66403 13.4173C6.69557 13.4337 6.73203 13.4511 6.77161 13.4689L6.78231 13.4737L6.80153 13.4823C6.84753 13.5022 6.89857 13.5226 6.95479 13.543C6.96144 13.5454 6.96856 13.5478 6.97567 13.5502L6.98926 13.5549C7.04069 13.5728 7.09658 13.5905 7.15635 13.6078L7.1709 13.6121L7.1709 13.6121C7.17905 13.6145 7.18718 13.617 7.1958 13.6194C7.26533 13.6386 7.34105 13.6567 7.42155 13.6738C7.43366 13.6763 7.44626 13.6788 7.45886 13.6812L7.47747 13.6848C7.55433 13.6999 7.63564 13.7139 7.72227 13.726L7.73836 13.7284C7.74464 13.7294 7.75093 13.7304 7.75755 13.7313C7.85322 13.7439 7.95645 13.7537 8.0641 13.7616C8.08955 13.7634 8.11571 13.7649 8.14188 13.7664L8.14198 13.7664L8.14209 13.7664C8.25563 13.7731 8.37337 13.7778 8.50003 13.7778C8.62656 13.7778 8.74421 13.7731 8.85765 13.7665C8.88372 13.7649 8.90973 13.7634 8.93509 13.7616C9.04284 13.7538 9.14619 13.744 9.24196 13.7314C9.24814 13.7306 9.25398 13.7296 9.25982 13.7287L9.25983 13.7287L9.2751 13.7264C9.36221 13.7142 9.44381 13.7003 9.52106 13.6851L9.5388 13.6816C9.55187 13.6791 9.56495 13.6766 9.57754 13.6739C9.65794 13.6569 9.73363 13.6387 9.80309 13.6196C9.81127 13.6174 9.81896 13.615 9.82666 13.6127L9.84189 13.6082C9.90156 13.591 9.95732 13.5733 10.0088 13.5554L10.0237 13.5503C10.0308 13.5479 10.0379 13.5455 10.0446 13.5431C10.1006 13.5228 10.1514 13.5025 10.1973 13.4826C10.2051 13.4793 10.2123 13.476 10.2196 13.4727L10.2282 13.4688C10.2665 13.4515 10.3019 13.4346 10.3327 13.4187L10.3409 13.4146L10.3505 13.4097C10.384 13.392 10.4125 13.3756 10.4368 13.3609ZM10.4445 11.6895L10.4368 11.6942C10.4125 11.709 10.384 11.7253 10.3505 11.7431L10.3409 11.7479L10.3327 11.752C10.3019 11.7679 10.2665 11.7848 10.2282 11.8021L10.2196 11.806C10.2123 11.8093 10.2051 11.8126 10.1973 11.816C10.1514 11.8358 10.1006 11.8562 10.0446 11.8764C10.0379 11.8789 10.0308 11.8813 10.0237 11.8837L10.0088 11.8888C9.95732 11.9067 9.90156 11.9243 9.84189 11.9416L9.82667 11.9461C9.81896 11.9484 9.81127 11.9507 9.80309 11.9529C9.73363 11.9721 9.65794 11.9902 9.57754 12.0072C9.56496 12.0099 9.55188 12.0124 9.53881 12.0149L9.52106 12.0184C9.44381 12.0336 9.36221 12.0476 9.2751 12.0597L9.25983 12.062C9.25399 12.063 9.24814 12.0639 9.24196 12.0647C9.14619 12.0773 9.04284 12.0871 8.93509 12.0949C8.90973 12.0967 8.88372 12.0983 8.85765 12.0998C8.74421 12.1064 8.62656 12.1111 8.50003 12.1111C8.37337 12.1111 8.25563 12.1064 8.14209 12.0997L8.14198 12.0997L8.14188 12.0997C8.11571 12.0982 8.08955 12.0967 8.0641 12.0949C7.95645 12.087 7.85322 12.0772 7.75755 12.0646C7.75093 12.0637 7.74464 12.0627 7.73836 12.0617L7.72227 12.0593C7.63564 12.0472 7.55433 12.0332 7.47747 12.0181L7.45886 12.0145C7.44626 12.0121 7.43366 12.0096 7.42155 12.0071C7.34105 11.99 7.26533 11.9719 7.1958 11.9527C7.18718 11.9503 7.17905 11.9478 7.1709 11.9454L7.1709 11.9454L7.15635 11.9411C7.09658 11.9238 7.04069 11.9061 6.98926 11.8882L6.97567 11.8835C6.96856 11.8811 6.96144 11.8787 6.95479 11.8763C6.89857 11.8559 6.84753 11.8355 6.80153 11.8156L6.78231 11.807L6.77161 11.8022C6.73203 11.7844 6.69557 11.767 6.66403 11.7506L6.6502 11.7437C6.61592 11.7256 6.58721 11.709 6.5627 11.6941L6.55557 11.6897V10.6476C6.5617 10.6503 6.56851 10.6531 6.57534 10.6558L6.59222 10.6628C6.62432 10.6765 6.6569 10.6903 6.69232 10.7041C6.70537 10.7092 6.71914 10.7142 6.73297 10.7192L6.75303 10.7265C6.78737 10.7391 6.8223 10.7516 6.85957 10.764C6.88172 10.7713 6.90486 10.7785 6.92811 10.7856L6.92814 10.7857L6.93359 10.7873C6.97109 10.799 7.00954 10.8103 7.04984 10.8214C7.07777 10.8291 7.10645 10.8366 7.13571 10.844C7.17705 10.8545 7.21982 10.8645 7.2639 10.8742C7.29551 10.8812 7.32725 10.8881 7.36025 10.8946C7.40638 10.9038 7.45446 10.9122 7.50339 10.9205L7.51792 10.9229L7.51796 10.9229C7.54765 10.9279 7.57723 10.9329 7.6082 10.9375C7.66074 10.9452 7.71595 10.9518 7.77152 10.9582L7.80237 10.9619L7.8024 10.9619C7.82802 10.965 7.85359 10.9681 7.88037 10.9707C7.94352 10.9768 8.01019 10.9812 8.07708 10.9854L8.11555 10.9881C8.13583 10.9897 8.1561 10.9912 8.17738 10.9922C8.28076 10.9971 8.38783 11.0001 8.49993 11.0001C8.61204 11.0001 8.71911 10.9971 8.82249 10.9922C8.8438 10.9912 8.86407 10.9897 8.88435 10.9881L8.92279 10.9854C8.98971 10.9812 9.05638 10.9768 9.1195 10.9707C9.14637 10.9681 9.172 10.965 9.19768 10.9619L9.19776 10.9619L9.22835 10.9582C9.28392 10.9518 9.33916 10.9452 9.39167 10.9375C9.42266 10.9329 9.45225 10.9279 9.48196 10.9229L9.49648 10.9205C9.54541 10.9122 9.59349 10.9038 9.63962 10.8946C9.67266 10.8881 9.70439 10.8812 9.73597 10.8742C9.78005 10.8645 9.82282 10.8545 9.86416 10.844C9.89346 10.8366 9.9221 10.8291 9.95003 10.8214C9.9903 10.8103 10.0288 10.799 10.0663 10.7873L10.0783 10.7836L10.0783 10.7836C10.0994 10.7771 10.1203 10.7706 10.1403 10.764C10.1776 10.7516 10.2125 10.7391 10.2468 10.7265L10.2642 10.7202C10.2789 10.7148 10.2936 10.7095 10.3076 10.7041C10.343 10.6903 10.3756 10.6766 10.4077 10.6628L10.4243 10.6559C10.4312 10.6532 10.4381 10.6504 10.4443 10.6476V11.6895H10.4445ZM10.4368 10.0276L10.4445 10.0228H10.4443V8.98096C10.4381 8.98373 10.4312 8.9865 10.4243 8.98928C10.4186 8.99155 10.413 8.99382 10.4077 8.99609C10.3756 9.0099 10.343 9.0236 10.3076 9.0374C10.2936 9.04283 10.2789 9.04816 10.2642 9.05352C10.2584 9.05562 10.2526 9.05772 10.2468 9.05983C10.2125 9.07246 10.1776 9.08496 10.1403 9.09733C10.1202 9.10398 10.0993 9.11045 10.0783 9.11696C10.0743 9.11819 10.0703 9.11943 10.0663 9.12067C10.0288 9.13229 9.9903 9.14362 9.95003 9.15472C9.9221 9.16243 9.89346 9.16989 9.86416 9.17731C9.82282 9.18779 9.78005 9.19779 9.73597 9.20755C9.70439 9.21455 9.67266 9.22139 9.63962 9.22796C9.59349 9.23717 9.54541 9.24557 9.49648 9.25381C9.49164 9.25462 9.4868 9.25544 9.48196 9.25626C9.45225 9.26127 9.42266 9.26627 9.39167 9.27083C9.33916 9.27858 9.28392 9.28509 9.22835 9.29157C9.2181 9.29277 9.20794 9.29399 9.19778 9.29522C9.17207 9.29832 9.1464 9.30142 9.1195 9.30404C9.05638 9.31012 8.98971 9.31449 8.92279 9.31875C8.9098 9.31958 8.89707 9.32053 8.88435 9.32148C8.86407 9.32299 8.8438 9.3245 8.82249 9.32552C8.71911 9.33044 8.61204 9.3334 8.49993 9.3334C8.38783 9.3334 8.28076 9.33044 8.17738 9.32552C8.1561 9.3245 8.13583 9.32299 8.11554 9.32148C8.10281 9.32053 8.09008 9.31958 8.07708 9.31875C8.01019 9.31449 7.94352 9.31016 7.88037 9.30404C7.85358 9.30143 7.828 9.29834 7.80236 9.29525C7.79211 9.29401 7.78186 9.29278 7.77152 9.29157C7.71595 9.28509 7.66074 9.27858 7.6082 9.27083C7.57721 9.26627 7.54762 9.26127 7.51791 9.25626C7.51308 9.25544 7.50824 9.25462 7.50339 9.25381C7.45446 9.24557 7.40638 9.23714 7.36025 9.22796C7.32725 9.22139 7.29551 9.21455 7.2639 9.20755C7.21982 9.19779 7.17705 9.18779 7.13571 9.17731C7.10645 9.16989 7.07777 9.16243 7.04984 9.15472C7.00954 9.14359 6.97109 9.13229 6.93359 9.12067L6.92817 9.119C6.90489 9.11181 6.88174 9.10467 6.85957 9.09733C6.8223 9.08493 6.78737 9.07246 6.75303 9.05983C6.74637 9.05738 6.73966 9.05494 6.73295 9.0525C6.71913 9.04749 6.70536 9.04249 6.69232 9.0374C6.6569 9.0236 6.62432 9.00986 6.59222 8.99609C6.58686 8.99379 6.5811 8.99147 6.57534 8.98916C6.56851 8.98642 6.56169 8.98368 6.55557 8.98096V10.023L6.5627 10.0275C6.58721 10.0424 6.61592 10.0589 6.6502 10.077L6.66403 10.084C6.69557 10.1003 6.73203 10.1177 6.77161 10.1355C6.77521 10.1371 6.77875 10.1387 6.78231 10.1403C6.78858 10.1432 6.79488 10.146 6.80153 10.1489C6.84753 10.1688 6.89857 10.1893 6.95479 10.2096C6.96144 10.2121 6.96857 10.2145 6.97568 10.2169C6.98026 10.2184 6.98482 10.2199 6.98926 10.2215C7.04069 10.2395 7.09658 10.2571 7.15635 10.2744C7.16127 10.2759 7.16609 10.2773 7.1709 10.2787C7.17905 10.2812 7.18718 10.2836 7.1958 10.286C7.26533 10.3052 7.34105 10.3234 7.42155 10.3404C7.43367 10.343 7.44627 10.3454 7.45887 10.3478C7.46509 10.349 7.47131 10.3502 7.47747 10.3514C7.55433 10.3666 7.63564 10.3805 7.72227 10.3926C7.72777 10.3934 7.73307 10.3942 7.73836 10.3951C7.74464 10.3961 7.75093 10.3971 7.75755 10.3979C7.85322 10.4106 7.95645 10.4204 8.0641 10.4282C8.08958 10.43 8.11578 10.4315 8.14198 10.4331L8.14209 10.4331C8.25563 10.4397 8.37337 10.4445 8.50003 10.4445C8.62656 10.4445 8.74421 10.4397 8.85765 10.4331C8.88372 10.4316 8.90973 10.4301 8.93509 10.4283C9.04284 10.4205 9.14619 10.4107 9.24196 10.398C9.24814 10.3972 9.25399 10.3963 9.25983 10.3954C9.26485 10.3946 9.26986 10.3938 9.2751 10.393C9.36221 10.3809 9.44381 10.3669 9.52106 10.3517C9.52695 10.3506 9.53288 10.3494 9.53881 10.3483C9.55188 10.3457 9.56496 10.3432 9.57754 10.3406C9.65794 10.3236 9.73363 10.3054 9.80309 10.2863C9.81127 10.284 9.81896 10.2817 9.82667 10.2794C9.8317 10.2779 9.83673 10.2764 9.84189 10.2749C9.90156 10.2577 9.95732 10.24 10.0088 10.2221C10.0136 10.2204 10.0187 10.2187 10.0237 10.217C10.0308 10.2146 10.0379 10.2122 10.0446 10.2098C10.1006 10.1895 10.1514 10.1691 10.1973 10.1493C10.205 10.1459 10.2123 10.1427 10.2195 10.1394C10.2224 10.1381 10.2253 10.1368 10.2282 10.1354C10.2665 10.1181 10.3019 10.1013 10.3327 10.0854C10.3353 10.084 10.3381 10.0826 10.3409 10.0812C10.3442 10.0796 10.3475 10.078 10.3505 10.0764C10.384 10.0586 10.4125 10.0423 10.4368 10.0276Z" fill="#3A3A3A"/>
<path d="M2.26087 9C2.33005 9.00003 2.39642 8.97214 2.44537 8.92248C2.49428 8.87285 2.52177 8.8055 2.52177 8.73527V3.97059C2.52192 3.82446 2.63861 3.70602 2.78264 3.7059H7.47845V5.1305L7.33425 5.05736C7.25085 5.0148 7.15136 5.02069 7.07344 5.0728C6.99548 5.12495 6.95094 5.21537 6.95659 5.30992C6.96225 5.40447 7.01728 5.48875 7.10089 5.53091L7.62266 5.79561C7.62495 5.79676 7.62761 5.79626 7.6299 5.79734C7.69881 5.83227 7.77992 5.83227 7.84883 5.79734C7.85112 5.79626 7.85378 5.79676 7.85604 5.79561L8.37781 5.53091C8.46142 5.48875 8.51645 5.40447 8.52211 5.30992C8.52776 5.21537 8.48322 5.12495 8.40526 5.0728C8.32731 5.02066 8.22786 5.01477 8.14446 5.05736L8.00025 5.1305V0.794119C8.0004 0.647982 8.11713 0.529547 8.26112 0.529423H12.6961C12.8401 0.529578 12.9568 0.647982 12.9569 0.794119V1.95403L12.8127 1.88088C12.7293 1.83832 12.6298 1.84422 12.5519 1.89633C12.4739 1.94848 12.4294 2.0389 12.435 2.13345C12.4407 2.228 12.4957 2.31228 12.5793 2.35444L13.1011 2.61913C13.1034 2.62028 13.1061 2.61978 13.1084 2.62087C13.1773 2.6558 13.2584 2.6558 13.3273 2.62087C13.3296 2.61978 13.3322 2.62028 13.3345 2.61913L13.8563 2.35444C13.9848 2.28886 14.0367 2.1301 13.9724 1.99953C13.9081 1.86897 13.7517 1.81589 13.6229 1.88085L13.4787 1.954V0.794119C13.4782 0.35574 13.1281 0.000465304 12.6961 0H8.26109C7.82905 0.000465304 7.47891 0.35574 7.47845 0.794119V3.17647H2.78264C2.3506 3.17694 2.00046 3.53221 2 3.97059V8.7353C1.99997 8.8055 2.02745 8.87285 2.0764 8.92251C2.12531 8.97214 2.19168 9.00003 2.26087 9Z" fill="#3A3A3A"/>
</svg>
