<svg width="18" height="16" viewBox="0 0 18 16" fill="none" xmlns="http://www.w3.org/2000/svg">
<path fill-rule="evenodd" clip-rule="evenodd" d="M17.6088 0.019886C17.7136 -0.0216686 17.8326 0.00308504 17.9132 0.0830777C17.9938 0.162999 18.0211 0.283579 17.9831 0.391477L13.0678 14.3613C13.063 14.3757 13.0571 14.3899 13.0496 14.4044L13.0445 14.4138C13.0076 14.479 12.9497 14.5245 12.8837 14.5463L12.8732 14.5495L12.863 14.5522C12.7961 14.5687 12.7231 14.5608 12.6574 14.5243L6.13613 10.877L5.67474 14.9033L7.81009 12.7219C7.92213 12.6074 8.10389 12.6071 8.21632 12.7213C8.32865 12.8355 8.32886 13.0208 8.21685 13.1353L5.49846 15.9123C5.49498 15.9159 5.4914 15.9194 5.48728 15.9232C5.47407 15.9356 5.45983 15.9466 5.44485 15.956C5.40059 15.9841 5.34866 16 5.29386 16C5.28788 16 5.2819 15.9998 5.27589 15.9994C5.26661 15.9989 5.25726 15.9978 5.24794 15.9963C5.17496 15.9844 5.11234 15.9451 5.06819 15.8888L5.06147 15.8798C5.0362 15.8445 5.01858 15.8034 5.01078 15.7593L3.75742 9.51684L0.146209 7.44358C0.0494593 7.38802 -0.00717739 7.28062 0.000732757 7.16775C0.00864291 7.05487 0.0796937 6.95675 0.183264 6.91577L17.6088 0.019886ZM15.2003 1.60097L0.957369 7.23739L4.00229 8.98551L15.2003 1.60097ZM5.72062 10.1829C5.69376 10.2049 5.67038 10.2321 5.6521 10.2641C5.64971 10.2683 5.64746 10.2725 5.64528 10.2768C5.62784 10.3111 5.61771 10.3474 5.61437 10.3838L5.21595 13.8606L4.33328 9.4645L14.0049 3.08651L5.72062 10.1829ZM6.40627 10.3603L12.6389 13.8461L17.0834 1.21419L6.40627 10.3603Z" fill="#3A3A3A"/>
</svg>
