<svg width="15" height="18" viewBox="0 0 15 18" fill="none" xmlns="http://www.w3.org/2000/svg">
<path fill-rule="evenodd" clip-rule="evenodd" d="M11.8268 9.10224C11.8268 9.10224 14.2361 14.2722 14.949 15.9184C14.991 16.0151 15.0032 16.0792 14.9993 16.1324C14.9825 16.3625 14.7929 16.5268 14.5605 16.5268H14.5561C14.5 16.5268 14.4435 16.5158 14.3897 16.4933L12.3246 15.6337L11.5951 17.7223C11.5392 17.882 11.3887 17.9921 11.2157 17.9996L11.2156 17.9996C11.2093 17.9998 11.203 18 11.1969 18C11.0311 18 10.8802 17.9049 10.8124 17.7566L7.75797 11.0558C7.67081 11.0598 7.58361 11.0624 7.4957 11.0624C7.40779 11.0624 7.32044 11.0598 7.23344 11.0558L4.179 17.7566C4.1112 17.9051 3.96023 18 3.79453 18C3.78834 18 3.78195 17.9998 3.77557 17.9996C3.60272 17.9921 3.4521 17.882 3.39633 17.7223L2.66681 15.6337L0.587203 16.5071C0.427581 16.5738 0.243417 16.5385 0.121614 16.4189C-0.000189684 16.2991 -0.0340351 16.1187 0.0361703 15.9646L3.16439 9.10224C2.32529 8.13773 1.81756 6.89138 1.81756 5.53123C1.81756 2.48133 4.36482 0 7.49565 0C10.6265 0 13.1736 2.48133 13.1736 5.53123C13.1736 6.89138 12.6661 8.13773 11.8268 9.10224ZM3.31657 14.9499L3.84648 16.467L6.36085 10.9514C5.39623 10.7597 4.52092 10.3286 3.80066 9.72578L1.24133 15.3401L2.7518 14.7056C2.80501 14.6834 2.86169 14.6722 2.91837 14.6722C2.97655 14.6722 3.03489 14.6841 3.0891 14.7074C3.19622 14.7538 3.27885 14.8417 3.31657 14.9499ZM2.65872 5.53123C2.65872 2.93306 4.8285 0.819402 7.49565 0.819402C10.1627 0.819402 12.3324 2.93306 12.3324 5.53123C12.3324 8.12931 10.1627 10.243 7.49565 10.243C4.8285 10.243 2.65872 8.12935 2.65872 5.53123ZM11.9023 14.7074C12.0094 14.6615 12.1318 14.6609 12.2394 14.7056L13.75 15.3401L11.1906 9.72578C10.4705 10.3286 9.59513 10.7598 8.63056 10.9514L11.1449 16.467L11.6747 14.9499C11.7125 14.8417 11.795 14.7538 11.9023 14.7074Z" fill="#3A3A3A"/>
<path fill-rule="evenodd" clip-rule="evenodd" d="M4 5.50002C4 3.57027 5.57023 2 7.50005 2C9.42986 2 11 3.57022 11 5.50002C11 7.42982 9.42981 9 7.50005 9C5.57028 9 4 7.42978 4 5.50002ZM4.77775 5.50002C4.77775 7.00106 5.999 8.22221 7.50005 8.22221C9.00109 8.22221 10.2223 7.00106 10.2222 5.50002C10.2222 3.99899 9.00109 2.77783 7.50005 2.77783C5.999 2.77783 4.77775 3.99899 4.77775 5.50002Z" fill="#3A3A3A"/>
</svg>
