<svg width="480" height="277" viewBox="0 0 480 277" fill="none" xmlns="http://www.w3.org/2000/svg">
<path d="M346.619 4.40106V13.2032H337.817V4.40106H346.619ZM333.416 0V17.6043H351.02V0H333.416ZM368.625 11.0027V19.8048H359.822V11.0027H368.625ZM355.421 6.6016V24.2059H373.026V6.6016H355.421ZM346.619 30.8075V39.6096H337.817V30.8075H346.619ZM333.416 26.4064V44.0107H351.02V26.4064H333.416Z" fill="#4FA2D9" fill-opacity="0.14"/>
<path d="M377.427 17.6042V30.8074H364.223V44.0106H351.02V61.6149H395.031V17.6042H377.427ZM368.625 35.2085H377.427V44.0106H368.625V35.2085ZM364.223 57.2138H355.421V48.4117H364.223V57.2138ZM377.427 57.2138H368.625V48.4117H377.427V57.2138ZM390.63 57.2138H381.828V48.4117H390.63V57.2138ZM390.63 44.0106H381.828V35.2085H390.63V44.0106ZM381.828 30.8074V22.0053H390.63V30.8074H381.828Z" fill="#4FA2D9" fill-opacity="0.14"/>
<path d="M79.1413 72.1441C68.1218 72.1441 59.3062 63.3285 59.3062 52.309C59.3062 41.2894 68.1218 32.4738 79.1413 32.4738C90.1608 32.4738 98.9764 41.2894 98.9764 52.309C98.9764 63.3285 90.1608 72.1441 79.1413 72.1441ZM79.1413 36.8816C70.5461 36.8816 63.714 43.7137 63.714 52.309C63.714 60.9042 70.5461 67.7363 79.1413 67.7363C87.7365 67.7363 94.5686 60.9042 94.5686 52.309C94.5686 43.7137 87.7365 36.8816 79.1413 36.8816Z" fill="#E0EFFA"/>
<path d="M85.0918 94.1831H73.1907L69.8849 84.0452C67.681 83.384 65.4771 82.5024 63.4935 81.4005L53.7964 86.2491L45.4215 77.8742L50.2701 68.1771C49.1682 66.1936 48.2866 63.9896 47.6254 61.7857L37.2671 58.2595V46.3584L47.405 43.0526C48.0662 40.8487 48.9478 38.6448 50.0497 36.6612L45.2011 26.9641L53.576 18.5892L63.2732 23.4378C65.2567 22.3359 67.4606 21.4543 69.6645 20.7931L73.1907 10.4348H85.0918L88.3977 20.5727C90.6016 21.2339 92.8055 22.1155 94.789 23.2174L104.486 18.3688L112.861 26.7437L108.012 36.4408C109.114 38.4244 109.996 40.6283 110.657 42.8322L120.795 46.138V58.0391L110.657 61.345C109.996 63.5489 109.114 65.7528 108.012 67.7363L112.861 77.4335L104.486 85.8083L94.789 80.9597C92.8055 82.0617 90.6016 82.9432 88.3977 83.6044L85.0918 94.1831ZM76.2762 89.7753H82.0063L85.0918 80.2985L86.1938 80.0781C88.8384 79.417 91.2627 78.315 93.687 76.9927L94.789 76.3315L103.605 80.7393L107.572 76.7723L103.164 67.9567L103.825 66.8547C105.147 64.6508 106.249 62.0061 106.91 59.3614L107.131 58.2595L116.608 55.174V49.4439L107.131 46.3584L106.91 45.2565C106.249 42.6118 105.147 40.1875 103.825 37.7632L103.164 36.6612L107.572 27.8456L103.605 23.8786L94.789 28.2864L93.687 27.6252C91.2627 26.3029 88.8384 25.2009 86.1938 24.5398L85.0918 24.3194L82.0063 14.8426H76.2762L73.1907 24.3194L72.0888 24.5398C69.4441 25.2009 67.0198 26.3029 64.5955 27.6252L63.4935 28.2864L54.6779 23.8786L50.7109 27.8456L55.1187 36.6612L54.4575 37.7632C53.1352 39.9671 52.0332 42.6118 51.3721 45.2565L51.1517 46.3584L41.6749 49.4439V55.174L51.1517 58.2595L51.3721 59.3614C52.0332 62.0061 53.1352 64.4304 54.4575 66.8547L55.1187 67.9567L50.7109 76.7723L54.6779 80.7393L63.4935 76.3315L64.5955 76.9927C67.0198 78.315 69.4441 79.417 72.0888 80.0781L73.1907 80.2985L76.2762 89.7753Z" fill="#E0EFFA"/>
<path d="M248.573 27.4759C245.53 27.4759 243.096 25.0415 243.096 21.9984C243.096 18.9553 245.53 16.5209 248.573 16.5209C251.616 16.5209 254.051 18.9553 254.051 21.9984C254.051 25.0415 251.616 27.4759 248.573 27.4759ZM248.573 17.7381C246.2 17.7381 244.313 19.6248 244.313 21.9984C244.313 24.372 246.2 26.2587 248.573 26.2587C250.947 26.2587 252.833 24.372 252.833 21.9984C252.833 19.6248 250.947 17.7381 248.573 17.7381Z" fill="#E0EFFA"/>
<path d="M250.216 33.562H246.93L246.017 30.7624C245.408 30.5798 244.8 30.3364 244.252 30.0321L241.574 31.371L239.261 29.0583L240.6 26.3804C240.296 25.8326 240.053 25.224 239.87 24.6154L237.01 23.6416V20.3551L239.809 19.4422C239.992 18.8336 240.235 18.225 240.539 17.6773L239.201 14.9994L241.513 12.6866L244.191 14.0256C244.739 13.7213 245.347 13.4778 245.956 13.2953L246.93 10.4348H250.216L251.129 13.2344C251.738 13.417 252.347 13.6604 252.894 13.9647L255.572 12.6258L257.885 14.9385L256.546 17.6164C256.85 18.1641 257.094 18.7728 257.276 19.3814L260.076 20.2943V23.5808L257.276 24.4937C257.094 25.1023 256.85 25.7109 256.546 26.2587L257.885 28.9366L255.572 31.2493L252.894 29.9103C252.347 30.2146 251.738 30.4581 251.129 30.6407L250.216 33.562ZM247.782 32.3448H249.364L250.216 29.7278L250.521 29.6669C251.251 29.4843 251.92 29.18 252.59 28.8148L252.894 28.6323L255.329 29.8495L256.424 28.754L255.207 26.3195L255.39 26.0152C255.755 25.4066 256.059 24.6763 256.242 23.946L256.302 23.6416L258.92 22.7896V21.2072L256.302 20.3551L256.242 20.0508C256.059 19.3205 255.755 18.651 255.39 17.9816L255.207 17.6773L256.424 15.2428L255.329 14.1473L252.894 15.3645L252.59 15.182C251.92 14.8168 251.251 14.5125 250.521 14.3299L250.216 14.269L249.364 11.652H247.782L246.93 14.269L246.626 14.3299C245.895 14.5125 245.226 14.8168 244.556 15.182L244.252 15.3645L241.818 14.1473L240.722 15.2428L241.939 17.6773L241.757 17.9816C241.392 18.5902 241.087 19.3205 240.905 20.0508L240.844 20.3551L238.227 21.2072V22.7896L240.844 23.6416L240.905 23.946C241.087 24.6763 241.392 25.3458 241.757 26.0152L241.939 26.3195L240.722 28.754L241.818 29.8495L244.252 28.6323L244.556 28.8148C245.226 29.18 245.895 29.4843 246.626 29.6669L246.93 29.7278L247.782 32.3448Z" fill="#E0EFFA"/>
<g filter="url(#filter0_f_304_337)">
<rect x="86.4597" y="56.646" width="294.658" height="179.379" rx="16" fill="#E0E8EF" fill-opacity="0.71"/>
</g>
<path d="M102.92 76.4455C82.4727 62.6188 56.6375 126.567 46.2758 160.27C19.3354 248.414 154.038 227.674 180.287 262.241C204.465 293.351 239.694 262.241 263.872 216.44C288.049 170.639 399.955 283.845 458.672 262.241C517.388 240.637 437.948 180.145 422.06 168.047C406.172 155.949 370.252 132.616 380.614 66.9396C388.903 14.3984 355.055 51.3847 337.094 76.4455C328.805 85.6632 307.944 105.654 290.812 111.876C273.681 118.098 243.609 125.415 230.714 128.295C196.636 116.773 123.367 90.2721 102.92 76.4455Z" fill="#1A81C5" fill-opacity="0.04"/>
<rect x="80.4968" y="42.236" width="298.137" height="188.82" rx="16" fill="white"/>
<path d="M80.4968 57.1429C80.4968 48.9101 87.1708 42.236 95.4037 42.236H363.727C371.959 42.236 378.633 48.9101 378.633 57.1429H80.4968Z" fill="#1A81C5"/>
<path fill-rule="evenodd" clip-rule="evenodd" d="M351.801 49.6894C351.801 51.0616 350.689 52.1739 349.317 52.1739C347.945 52.1739 346.832 51.0616 346.832 49.6894C346.832 48.3173 347.945 47.205 349.317 47.205C350.689 47.205 351.801 48.3173 351.801 49.6894ZM358.758 49.6894C358.758 51.0616 357.645 52.1739 356.273 52.1739C354.901 52.1739 353.789 51.0616 353.789 49.6894C353.789 48.3173 354.901 47.205 356.273 47.205C357.645 47.205 358.758 48.3173 358.758 49.6894ZM363.23 52.1739C364.602 52.1739 365.714 51.0616 365.714 49.6894C365.714 48.3173 364.602 47.205 363.23 47.205C361.858 47.205 360.745 48.3173 360.745 49.6894C360.745 51.0616 361.858 52.1739 363.23 52.1739Z" fill="white"/>
<rect x="89.938" y="95.9006" width="127.702" height="121.739" rx="16" fill="#FAFAFA"/>
<rect x="241.491" y="68.0745" width="127.702" height="76.0248" rx="16" fill="#68C2FD"/>
<rect x="241.491" y="164.472" width="127.702" height="53.1677" rx="12" fill="#FAFAFA"/>
<path fill-rule="evenodd" clip-rule="evenodd" d="M241.49 189.67C243.727 189.882 246.264 189.393 249.147 187.972C254.356 185.406 258.999 182.609 263.278 180.031C275.613 172.601 284.916 166.996 295.98 174.024C299.705 176.39 303.398 179.318 306.982 182.159C317.733 190.682 327.512 198.433 334.297 187.972C335.851 185.577 337.216 183.329 338.452 181.293C344.415 171.473 347.376 166.597 353.988 174.024C355.513 175.737 357.33 178.033 359.327 180.556C362.334 184.355 365.749 188.67 369.192 192.291V176.472C369.192 169.845 363.82 164.472 357.192 164.472H253.49C246.863 164.472 241.49 169.845 241.49 176.472V189.67Z" fill="#68C2FD"/>
<rect x="91.9255" y="68.0745" width="126.211" height="18.3851" rx="8" fill="#68C2FD"/>
<path fill-rule="evenodd" clip-rule="evenodd" d="M217.64 154.244C212.802 156.457 210.766 149.852 208.312 141.89C205.881 134.003 203.039 124.785 196.658 121.491C184.491 115.209 177.687 136.103 174.335 146.398C173.71 148.318 173.204 149.87 172.807 150.807C172.65 151.177 172.485 151.622 172.299 152.121C170.906 155.873 168.374 162.693 159.712 163.727C156.66 164.091 153.744 161.49 149.29 157.517C144.627 153.358 138.28 147.697 128.329 142.36C116.795 136.174 108.348 148.499 100.767 159.561C97.0359 165.005 93.5145 170.143 89.9377 172.619V111.901C89.9377 103.064 97.1012 95.9006 105.938 95.9006H201.64C210.476 95.9006 217.64 103.064 217.64 111.901V154.244Z" fill="#68C2FD"/>
<rect x="263.354" y="89.9379" width="9.93789" height="37.764" fill="#FFFEFE"/>
<rect x="278.758" y="111.304" width="9.93789" height="16.3975" fill="#FFFEFE"/>
<rect x="340.373" y="111.304" width="9.93789" height="16.3975" fill="#FFFEFE"/>
<rect x="294.161" y="98.882" width="9.93789" height="28.8199" fill="#FFFEFE"/>
<rect x="309.565" y="89.441" width="9.93789" height="38.2609" fill="#FFFEFE"/>
<rect x="324.969" y="100.87" width="9.93789" height="26.8323" fill="#FFFEFE"/>
<g filter="url(#filter1_d_304_337)">
<rect x="279.477" y="131.677" width="97.8882" height="49.6894" rx="12" transform="rotate(4.84624 279.477 131.677)" fill="white"/>
<rect x="279.933" y="132.217" width="96.8882" height="48.6894" rx="11.5" transform="rotate(4.84624 279.933 132.217)" stroke="#68C2FD"/>
</g>
<circle cx="298.593" cy="153.245" r="11.4286" transform="rotate(4.84624 298.593 153.245)" fill="#4FC79C"/>
<rect x="316.183" y="145.76" width="48.1988" height="2.98137" transform="rotate(4.84624 316.183 145.76)" fill="#68C2FD" fill-opacity="0.36"/>
<rect x="315.637" y="152.197" width="48.1988" height="2.98137" transform="rotate(4.84624 315.637 152.197)" fill="#68C2FD" fill-opacity="0.36"/>
<rect x="315.091" y="158.633" width="32.2981" height="2.98137" transform="rotate(4.84624 315.091 158.633)" fill="#68C2FD" fill-opacity="0.36"/>
<rect x="314.294" y="168.04" width="48.1988" height="5.96273" transform="rotate(4.84624 314.294 168.04)" fill="#68C2FD" fill-opacity="0.36"/>
<path fill-rule="evenodd" clip-rule="evenodd" d="M415.764 153.528C417.242 151.794 418.242 149.668 418.075 147.287C417.593 140.425 408.041 141.934 406.183 145.398C404.324 148.861 404.545 157.646 406.947 158.265C407.904 158.512 409.945 157.908 412.021 156.656L410.718 165.877H418.414L415.764 153.528Z" fill="#FFDFC1"/>
<mask id="mask0_304_337" style="mask-type:alpha" maskUnits="userSpaceOnUse" x="405" y="141" width="19" height="35">
<path d="M407.201 144.214C407.03 144.272 407.201 143.534 407.611 143.264C408.869 142.437 412.611 141.213 415.17 141.744C416.885 142.1 419.023 142.993 420.392 144.132C421.627 145.159 422.75 146.969 423.187 148.559C423.646 150.228 423.819 152.551 423.187 154.008C422.434 155.742 419.766 157.612 419.696 157.86C419.615 158.144 419.931 159.251 420.161 160.417C420.392 161.583 420.287 164.553 420.161 165.037C419.961 165.811 418.883 166.192 418.413 166.248C415.816 166.558 413.933 169.782 413.149 170.607C409.661 174.109 407.227 175.632 405.846 175.176C405.483 175.056 406.028 170.705 406.391 168.84C406.754 166.975 410.318 163.646 410.547 162.55C410.681 161.904 410.703 160.779 410.717 160.727C411.054 158.41 410.996 158.222 411.486 157.278C411.976 156.334 412.356 156.278 412.239 156.003C411.663 154.659 409.811 150.547 409.391 149.203C408.89 147.6 409.127 148.126 408.611 146.529C408.382 145.822 408.091 143.915 407.201 144.214Z" fill="white"/>
</mask>
<g mask="url(#mask0_304_337)">
<path d="M407.201 144.214C407.03 144.272 407.201 143.534 407.611 143.264C408.869 142.437 412.611 141.213 415.17 141.744C416.885 142.1 419.023 142.993 420.392 144.132C421.627 145.159 422.75 146.969 423.187 148.559C423.646 150.228 423.819 152.551 423.187 154.008C422.434 155.742 419.766 157.612 419.696 157.86C419.615 158.144 419.931 159.251 420.161 160.417C420.392 161.583 420.287 164.553 420.161 165.037C419.961 165.811 418.883 166.192 418.413 166.248C415.816 166.558 413.933 169.782 413.149 170.607C409.661 174.109 407.227 175.632 405.846 175.176C405.483 175.056 406.028 170.705 406.391 168.84C406.754 166.975 410.318 163.646 410.547 162.55C410.681 161.904 410.703 160.779 410.717 160.727C411.054 158.41 410.996 158.222 411.486 157.278C411.976 156.334 412.356 156.278 412.239 156.003C411.663 154.659 409.811 150.547 409.391 149.203C408.89 147.6 409.127 148.126 408.611 146.529C408.382 145.822 408.091 143.915 407.201 144.214Z" fill="#2E2F30"/>
<path fill-rule="evenodd" clip-rule="evenodd" d="M413.823 144.393C414.385 146.177 414.506 147.13 414.385 149.569H414.661C415.177 147.267 414.718 145.101 414.17 144.393H413.823ZM421.369 148.999C420.321 151.542 419.843 153.044 416.916 155.102L417.142 155.261C420.048 153.614 420.894 151.649 421.59 149.105L421.369 148.999ZM417.062 146.41C416.586 150.021 416.447 152.083 413.967 156.032L414.231 156.113C416.783 152.674 417.188 149.868 417.309 146.43L417.062 146.41ZM419.802 157.134L419.576 156.86C416.495 157.825 416.839 159.817 412.959 161.835L413.283 162.031C416.68 160.629 417.475 157.622 419.802 157.134Z" fill="#C8C7C5"/>
</g>
<path fill-rule="evenodd" clip-rule="evenodd" d="M424.596 192.412C424.018 200.304 386.77 223.537 386.553 224.188C386.456 224.478 390.321 233.636 398.147 251.663L394.891 252.928C382.887 233.837 377.194 223.274 377.811 221.239C378.693 218.327 388.327 208.746 406.71 192.496L424.596 192.412Z" fill="#E7C6A8"/>
<path fill-rule="evenodd" clip-rule="evenodd" d="M397.29 247.592L391.974 249.527C380.765 236.879 376.371 226.444 377.172 221.127C377.706 217.582 387.306 208.017 405.972 192.432L424.978 192.432C424.329 210.707 389.805 224.258 389.344 225.037C388.882 225.815 393.426 233.443 397.29 247.592Z" fill="#001726"/>
<path fill-rule="evenodd" clip-rule="evenodd" d="M399.345 251.041C400.009 251.819 400.423 252.431 400.586 252.877C400.783 253.421 400.982 254.247 401.18 255.355C400.55 255.584 394.885 257.646 384.185 261.541C383.212 260.241 383.18 259.36 384.089 258.898C384.998 258.435 385.75 258.042 386.346 257.719L392.963 251.323C393.09 251.2 393.293 251.203 393.416 251.33C393.419 251.332 393.421 251.335 393.423 251.337L394.379 252.384C395.409 252.474 396.2 252.419 396.75 252.219C397.198 252.056 397.75 251.65 398.407 251.002L398.407 251.002C398.659 250.753 399.065 250.756 399.314 251.008C399.325 251.019 399.335 251.03 399.345 251.041Z" fill="#033F66"/>
<path fill-rule="evenodd" clip-rule="evenodd" d="M420.314 192.412L436.906 232.247L453.215 265.923H449.367L407.271 192.412H420.314Z" fill="#E7C6A9"/>
<path fill-rule="evenodd" clip-rule="evenodd" d="M453.445 264.369C453.804 265.326 453.983 266.043 453.983 266.518C453.983 267.097 453.887 267.94 453.694 269.05C453.023 269.05 446.995 269.05 435.608 269.05C435.138 267.496 435.409 266.657 436.422 266.533C437.435 266.409 438.276 266.298 438.946 266.198L447.352 262.45C447.513 262.378 447.703 262.451 447.775 262.613C447.776 262.615 447.778 262.618 447.779 262.621L448.319 263.932C449.256 264.369 450.018 264.588 450.604 264.588C451.08 264.588 451.738 264.395 452.577 264.011L452.577 264.011C452.899 263.863 453.28 264.005 453.427 264.327C453.434 264.34 453.439 264.354 453.445 264.369Z" fill="#033F66"/>
<path fill-rule="evenodd" clip-rule="evenodd" d="M451.742 258.927L443.192 260.531C436.582 250.812 408.917 210.963 405.884 192.412H424.917C435.046 205.823 445.441 249.048 451.742 258.927Z" fill="#00253D"/>
<path fill-rule="evenodd" clip-rule="evenodd" d="M393.559 159.538L381.405 155.89C379.137 154.125 376.999 152.834 374.989 152.018C374.404 151.908 373.436 151.972 374.646 153.344C375.855 154.716 377.065 156.213 376.72 156.788C376.375 157.363 375.117 156.93 374.753 157.841C374.51 158.448 376.594 158.884 381.006 159.146L390.456 164.708L393.559 159.538ZM394.633 180.967L384.404 188.478C381.63 189.227 379.313 190.158 377.451 191.272C377.012 191.673 376.48 192.484 378.304 192.344C380.127 192.204 382.051 192.138 382.303 192.76C382.555 193.382 381.451 194.126 381.96 194.965C382.299 195.524 383.901 194.122 386.765 190.757L396.894 186.556L394.633 180.967Z" fill="#B28B67"/>
<path fill-rule="evenodd" clip-rule="evenodd" d="M410.52 160.739C404.95 171.125 396.896 179.087 385.219 187.363L389.64 192.349C402.678 187.503 409.559 184.58 412.938 174.768C413.786 172.305 414.379 164.454 414.887 160.323L410.52 160.739Z" fill="#05557A"/>
<path fill-rule="evenodd" clip-rule="evenodd" d="M426.092 195.343H401.401C406.994 178.285 409.851 166.578 409.972 160.221C409.978 159.897 410.577 159.326 410.842 159.401C412.778 159.948 414.85 159.743 417.058 158.788C422.912 168.202 424.936 179.792 426.092 195.343Z" fill="#9FD9FF"/>
<path fill-rule="evenodd" clip-rule="evenodd" d="M414.951 158.803C407.874 158.861 396.391 160.153 383.148 155.902L381.841 162.435C391.849 168.872 401.984 173.858 410.865 173.15C407.008 189.692 407.186 203.233 415.7 203.233C419.766 203.233 424.154 203.233 428.865 203.233C430.956 189.181 425.461 169.698 420.366 159.87C420.171 159.495 419.757 158.788 418.782 158.788C417.932 158.788 416.656 158.788 414.956 158.788C414.955 158.793 414.953 158.798 414.951 158.803Z" fill="#05618C"/>
<path fill-rule="evenodd" clip-rule="evenodd" d="M41.8135 128.996C43.665 132.142 46.9983 139.6 46.0683 141.153L38.1693 143.269C38.1648 143.256 38.1602 143.242 38.1557 143.228C35.1412 143.689 32.1991 141.816 31.3915 138.802L29.9002 133.237C29.0336 130.003 30.9529 126.678 34.1871 125.812L34.7319 125.666C37.6327 124.888 40.606 126.352 41.8135 128.996Z" fill="#181818"/>
<path fill-rule="evenodd" clip-rule="evenodd" d="M34.1829 136.95C32.5365 135.826 31.2076 134.264 30.8122 132.221C29.6732 126.334 38.1279 125.431 40.4876 127.924C42.8473 130.417 44.6416 137.863 42.7413 138.931C41.9835 139.357 40.1141 139.312 38.0679 138.731L41.2551 146.198L34.7181 147.949L34.1829 136.95Z" fill="#FFEBD9"/>
<path fill-rule="evenodd" clip-rule="evenodd" d="M35.6882 135.5C36.8486 138.626 37.7091 142.32 37.0445 143.43L29.1455 145.547C26.6747 138.086 31.7144 139.881 29.8024 132.745C29.9988 132.417 30.1813 132.096 30.3705 131.81L30.3055 131.603C30.9296 128.461 32.293 126.608 34.3958 126.045C37.5499 125.2 38.9353 126.388 40.1138 127.396C40.0576 129.721 37.6834 130.7 35.8577 132.629C35.5445 132.491 35.1826 132.454 34.8248 132.55C33.9974 132.772 33.5049 133.617 33.7246 134.437C33.9443 135.257 34.7931 135.742 35.6205 135.52C35.6433 135.514 35.6659 135.507 35.6882 135.5Z" fill="#181818"/>
<path fill-rule="evenodd" clip-rule="evenodd" d="M27.5789 198.267C34.3435 200.152 40.1798 201.094 45.0878 201.094C49.9958 201.094 54.5546 199.643 58.7642 196.741C52.1444 194.806 46.6927 193.839 42.409 193.839C38.1254 193.839 33.182 195.315 27.5789 198.267Z" fill="#282929"/>
<path fill-rule="evenodd" clip-rule="evenodd" d="M50.9438 203.811C50.8786 203.713 50.8235 203.607 50.7798 203.492C49.8756 201.11 35.3923 175.413 33.9495 170.715H50.2555C51.3526 174.287 56.2903 196.703 56.9852 201.176C59.1777 208.23 63.6919 231.078 64.2681 232.661C64.8744 234.326 61.4633 236.06 60.5544 234.013C59.108 230.756 55.6619 221.744 54.1275 216.241C52.689 211.082 51.5176 206.44 50.9438 203.811Z" fill="#FFEBD8"/>
<path fill-rule="evenodd" clip-rule="evenodd" d="M37.6032 206.949C30.9817 208.616 6.76172 211.629 5.09963 212.102C3.38986 212.588 1.89073 209.078 4.00409 208.317C7.36681 207.107 16.6326 204.311 22.2505 203.171C26.7692 202.253 30.8926 201.504 33.6609 201.066C33.4264 193.319 32.3543 174.73 33.057 170.715H47.4848C46.811 174.565 41.1148 202.658 40.0561 205.47C39.7201 206.473 38.7176 206.917 37.6032 206.949Z" fill="#F2DFCC"/>
<path fill-rule="evenodd" clip-rule="evenodd" d="M4.13605 207.358C3.25192 207.193 2.60398 207.147 2.19224 207.22C1.69147 207.308 0.975422 207.52 0.0441094 207.857C0.146544 208.438 1.06714 213.658 2.80589 223.519C4.22325 223.689 4.90827 223.326 4.86093 222.43C4.8136 221.534 4.78202 220.789 4.76621 220.194L6.72799 212.341C6.76574 212.19 6.67386 212.037 6.52276 211.999C6.52018 211.999 6.51758 211.998 6.51498 211.998L5.29734 211.73C4.77543 210.985 4.46972 210.359 4.38023 209.851C4.30752 209.439 4.37364 208.84 4.57861 208.054L4.57861 208.054C4.65727 207.753 4.47672 207.445 4.17534 207.366C4.16235 207.363 4.14925 207.36 4.13605 207.358Z" fill="#03283F"/>
<path fill-rule="evenodd" clip-rule="evenodd" d="M59.5194 233.776C59.2039 234.618 59.0461 235.248 59.0461 235.666C59.0461 236.175 59.1309 236.917 59.3003 237.892C59.8902 237.892 65.1917 237.892 75.2047 237.892C75.618 236.526 75.3794 235.788 74.489 235.679C73.5985 235.571 72.8588 235.472 72.2698 235.384L64.8776 232.089C64.7353 232.025 64.5686 232.089 64.5052 232.232C64.5041 232.234 64.5031 232.236 64.5021 232.239L64.0269 233.392C63.2026 233.776 62.5327 233.968 62.0173 233.968C61.5986 233.968 61.0203 233.799 60.2825 233.461L60.2825 233.461C59.9994 233.331 59.6646 233.456 59.5348 233.739C59.5292 233.751 59.5241 233.763 59.5194 233.776Z" fill="#03283F"/>
<path fill-rule="evenodd" clip-rule="evenodd" d="M33.1034 170.715C39.4612 168.903 45.4769 168.903 51.1504 170.715C53.1243 179.686 57.9205 183.246 58.764 197.001C49.1765 201.746 37.3331 193.616 27.4637 198.244C24.6438 191.771 28.5916 176.182 33.1034 170.715Z" fill="#3A3A3A"/>
<path fill-rule="evenodd" clip-rule="evenodd" d="M48.1459 152.136L56.8585 145.183C58.1274 143.007 59.4474 141.257 60.8183 139.935C61.2588 139.654 62.0691 139.388 61.5337 140.898C60.9984 142.408 60.5035 144.02 60.9742 144.373C61.4448 144.726 62.3283 143.961 62.9247 144.581C63.3223 144.994 61.7656 146.032 58.2544 147.694L52.3757 155.31L48.1459 152.136ZM64.0237 153.907L67.8496 150.846C68.0471 148.491 68.5577 147.234 69.3814 147.075C69.9643 146.669 69.3601 149.706 70.5199 149.247C71.6796 148.789 74.2331 146.098 74.817 146.45C75.6807 146.97 75.3666 149.093 74.756 150.229C73.6147 152.352 72.51 153.203 69.6491 154.568C68.1532 155.282 66.607 156.457 65.0104 158.092L64.0237 153.907Z" fill="#FFEBD8"/>
<path fill-rule="evenodd" clip-rule="evenodd" d="M43.2455 151.794C46.6154 151.163 50.9924 149.659 55.2612 145.778L57.8859 149.632C55.1494 153.488 50.9643 156.999 46.8703 157.603C43.644 158.079 41.3218 154.505 43.2455 151.794Z" fill="#228D67"/>
<path fill-rule="evenodd" clip-rule="evenodd" d="M48.9751 157.706C52.7162 157.963 58.5418 155.855 66.4518 151.38C69.3041 155.319 70.8131 158.219 70.9787 160.082C64.4045 165.12 58.497 167.891 53.4059 168.903C54.1004 171.892 54.2376 174.828 53.4602 177.67C51.8622 183.513 36.0551 181.15 31.2098 183.018C26.2761 173.416 31.6251 168.217 30.484 161.717C29.2345 154.599 33.0457 142.632 33.8906 142.483L41.5959 141.125C42.9794 146.485 46.1755 152.098 48.9751 157.706Z" fill="#4FC79C"/>
<g filter="url(#filter2_d_304_337)">
<rect x="42.7329" y="109.814" width="88.9441" height="48.1988" rx="12" transform="rotate(-32.67 42.7329 109.814)" fill="white"/>
<rect x="43.4237" y="109.965" width="87.9441" height="47.1988" rx="11.5" transform="rotate(-32.67 43.4237 109.965)" stroke="#68C2FD"/>
</g>
<path d="M87.8054 109.686C87.6239 109.403 87.4331 109.126 87.2333 108.856L74.944 117.933L87.8054 109.686Z" fill="#FF9714" stroke="white"/>
<path d="M87.2334 108.856C85.5413 106.565 83.2428 104.793 80.5971 103.739C77.9514 102.685 75.0639 102.392 72.2604 102.892L74.944 117.933L87.2334 108.856Z" fill="#FF9714" stroke="white"/>
<path d="M72.2605 102.892C69.0418 103.467 66.0923 105.058 63.8454 107.433L74.9442 117.933L72.2605 102.892Z" fill="#FF9714" stroke="white"/>
<path d="M63.8452 107.433C62.1408 109.235 60.9006 111.424 60.2316 113.812L74.9439 117.933L63.8452 107.433Z" fill="#FF9714" stroke="white"/>
<path d="M60.2317 113.812C59.822 115.275 59.6327 116.791 59.67 118.309L74.944 117.933L60.2317 113.812Z" fill="#FF9714" stroke="white"/>
<path d="M59.6701 118.309C59.7457 121.383 60.7468 124.362 62.5426 126.858L74.944 117.933L59.6701 118.309Z" fill="#FF9714" stroke="white"/>
<path d="M62.5426 126.858C64.329 129.34 66.8192 131.229 69.691 132.281C72.5629 133.332 75.6842 133.498 78.6511 132.756L74.9441 117.933L62.5426 126.858Z" fill="#FF9714" stroke="white"/>
<path d="M78.651 132.756C82.5661 131.776 85.9347 129.288 88.0215 125.834L74.9439 117.933L78.651 132.756Z" fill="#FF9714" stroke="white"/>
<path d="M88.0216 125.834C89.2973 123.722 90.0427 121.333 90.194 118.87L74.9441 117.933L88.0216 125.834Z" fill="#FF9714" stroke="white"/>
<path d="M90.194 118.87C90.3928 115.633 89.5563 112.416 87.8055 109.686L74.9441 117.933L90.194 118.87Z" fill="#FF9714" stroke="white"/>
<rect x="88.7454" y="102.036" width="16.8944" height="12.9193" rx="4" transform="rotate(-32.67 88.7454 102.036)" fill="#68C2FD"/>
<rect x="107.15" y="90.2345" width="16.8944" height="12.9193" rx="4" transform="rotate(-32.67 107.15 90.2345)" fill="#68C2FD"/>
<defs>
<filter id="filter0_f_304_337" x="46.4597" y="16.646" width="374.658" height="259.379" filterUnits="userSpaceOnUse" color-interpolation-filters="sRGB">
<feFlood flood-opacity="0" result="BackgroundImageFix"/>
<feBlend mode="normal" in="SourceGraphic" in2="BackgroundImageFix" result="shape"/>
<feGaussianBlur stdDeviation="20" result="effect1_foregroundBlur_304_337"/>
</filter>
<filter id="filter1_d_304_337" x="260.25" y="120.647" width="131.796" height="87.8412" filterUnits="userSpaceOnUse" color-interpolation-filters="sRGB">
<feFlood flood-opacity="0" result="BackgroundImageFix"/>
<feColorMatrix in="SourceAlpha" type="matrix" values="0 0 0 0 0 0 0 0 0 0 0 0 0 0 0 0 0 0 127 0" result="hardAlpha"/>
<feOffset dy="4"/>
<feGaussianBlur stdDeviation="8"/>
<feComposite in2="hardAlpha" operator="out"/>
<feColorMatrix type="matrix" values="0 0 0 0 0.666667 0 0 0 0 0.666667 0 0 0 0 0.666667 0 0 0 0.25 0"/>
<feBlend mode="normal" in2="BackgroundImageFix" result="effect1_dropShadow_304_337"/>
<feBlend mode="normal" in="SourceGraphic" in2="effect1_dropShadow_304_337" result="shape"/>
</filter>
<filter id="filter2_d_304_337" x="31.3105" y="54.3793" width="123.735" height="111.43" filterUnits="userSpaceOnUse" color-interpolation-filters="sRGB">
<feFlood flood-opacity="0" result="BackgroundImageFix"/>
<feColorMatrix in="SourceAlpha" type="matrix" values="0 0 0 0 0 0 0 0 0 0 0 0 0 0 0 0 0 0 127 0" result="hardAlpha"/>
<feOffset dy="4"/>
<feGaussianBlur stdDeviation="8"/>
<feComposite in2="hardAlpha" operator="out"/>
<feColorMatrix type="matrix" values="0 0 0 0 0.666667 0 0 0 0 0.666667 0 0 0 0 0.666667 0 0 0 0.25 0"/>
<feBlend mode="normal" in2="BackgroundImageFix" result="effect1_dropShadow_304_337"/>
<feBlend mode="normal" in="SourceGraphic" in2="effect1_dropShadow_304_337" result="shape"/>
</filter>
</defs>
</svg>
