<svg width="480" height="277" viewBox="0 0 480 277" fill="none" xmlns="http://www.w3.org/2000/svg">
<g clip-path="url(#clip0_731_24758)">
<path d="M102.92 76.4451C82.4722 62.6184 56.637 126.567 46.2753 160.27C19.3349 248.414 154.038 227.674 180.287 262.241C204.465 293.351 239.694 262.241 263.872 216.44C288.049 170.639 399.954 283.845 458.672 262.241C517.388 240.637 437.948 180.145 422.06 168.047C406.172 155.949 370.252 132.616 380.614 66.9392C388.903 14.398 355.055 51.3843 337.094 76.4451C328.805 85.6628 307.944 105.654 290.812 111.876C273.681 118.098 243.609 125.415 230.714 128.295C196.636 116.773 123.367 90.2717 102.92 76.4451Z" fill="#1A81C5" fill-opacity="0.04"/>
<path d="M369.203 4.40106V13.2032H360.401V4.40106H369.203ZM356 0V17.6043H373.604V0H356ZM391.209 11.0027V19.8048H382.406V11.0027H391.209ZM378.005 6.6016V24.2059H395.61V6.6016H378.005ZM369.203 30.8075V39.6096H360.401V30.8075H369.203ZM356 26.4064V44.0107H373.604V26.4064H356Z" fill="#4FA2D9" fill-opacity="0.14"/>
<path d="M400.011 17.6035V30.8067H386.807V44.0099H373.604V61.6142H417.615V17.6035H400.011ZM391.209 35.2078H400.011V44.0099H391.209V35.2078ZM386.807 57.2131H378.005V48.411H386.807V57.2131ZM400.011 57.2131H391.209V48.411H400.011V57.2131ZM413.214 57.2131H404.412V48.411H413.214V57.2131ZM413.214 44.0099H404.412V35.2078H413.214V44.0099ZM404.412 30.8067V22.0046H413.214V30.8067H404.412Z" fill="#4FA2D9" fill-opacity="0.14"/>
<path d="M44.6484 28.4609L51.4453 0.875H55.125L55.3594 6.6875L48.0938 35H44.2031L44.6484 28.4609ZM40.3594 0.875L45.9375 28.3672V35H41.6953L33.9609 0.875H40.3594ZM62.4141 28.25L67.8984 0.875H74.3203L66.5859 35H62.3438L62.4141 28.25ZM56.8828 0.875L63.6797 28.5547L64.0781 35H60.1875L52.9453 6.66406L53.2266 0.875H56.8828ZM101.016 29.9375V35H82.875V29.9375H101.016ZM84.8438 0.875V35H78.3984V0.875H84.8438ZM98.6484 14.9609V19.9062H82.875V14.9609H98.6484ZM100.945 0.875V5.96094H82.875V0.875H100.945ZM127.148 29.9375V35H109.992V29.9375H127.148ZM111.938 0.875V35H105.492V0.875H111.938ZM149.883 23.7734H156.328C156.156 26.0547 155.523 28.0781 154.43 29.8438C153.336 31.5938 151.812 32.9688 149.859 33.9688C147.906 34.9688 145.539 35.4688 142.758 35.4688C140.617 35.4688 138.688 35.0938 136.969 34.3438C135.266 33.5781 133.805 32.4922 132.586 31.0859C131.383 29.6641 130.461 27.9609 129.82 25.9766C129.18 23.9766 128.859 21.7344 128.859 19.25V16.6484C128.859 14.1641 129.188 11.9219 129.844 9.92188C130.5 7.92188 131.438 6.21875 132.656 4.8125C133.891 3.39062 135.367 2.29688 137.086 1.53125C138.82 0.765625 140.758 0.382812 142.898 0.382812C145.68 0.382812 148.031 0.898438 149.953 1.92969C151.875 2.94531 153.367 4.34375 154.43 6.125C155.492 7.90625 156.133 9.95312 156.352 12.2656H149.906C149.781 10.8281 149.469 9.60938 148.969 8.60938C148.484 7.60938 147.75 6.85156 146.766 6.33594C145.797 5.80469 144.508 5.53906 142.898 5.53906C141.648 5.53906 140.547 5.77344 139.594 6.24219C138.656 6.71094 137.875 7.41406 137.25 8.35156C136.625 9.27344 136.156 10.4297 135.844 11.8203C135.531 13.1953 135.375 14.7891 135.375 16.6016V19.25C135.375 20.9844 135.516 22.5391 135.797 23.9141C136.078 25.2891 136.516 26.4531 137.109 27.4062C137.703 28.3594 138.469 29.0859 139.406 29.5859C140.344 30.0859 141.461 30.3359 142.758 30.3359C144.336 30.3359 145.617 30.0859 146.602 29.5859C147.602 29.0859 148.359 28.3516 148.875 27.3828C149.406 26.4141 149.742 25.2109 149.883 23.7734ZM188.953 17.0703V18.8281C188.953 21.4062 188.609 23.7266 187.922 25.7891C187.234 27.8359 186.258 29.5781 184.992 31.0156C183.727 32.4531 182.219 33.5547 180.469 34.3203C178.719 35.0859 176.773 35.4688 174.633 35.4688C172.523 35.4688 170.586 35.0859 168.82 34.3203C167.07 33.5547 165.555 32.4531 164.273 31.0156C162.992 29.5781 162 27.8359 161.297 25.7891C160.594 23.7266 160.242 21.4062 160.242 18.8281V17.0703C160.242 14.4766 160.594 12.1562 161.297 10.1094C162 8.0625 162.984 6.32031 164.25 4.88281C165.516 3.42969 167.023 2.32031 168.773 1.55469C170.539 0.789062 172.477 0.40625 174.586 0.40625C176.727 0.40625 178.672 0.789062 180.422 1.55469C182.172 2.32031 183.68 3.42969 184.945 4.88281C186.227 6.32031 187.211 8.0625 187.898 10.1094C188.602 12.1562 188.953 14.4766 188.953 17.0703ZM182.438 18.8281V17.0234C182.438 15.1641 182.266 13.5312 181.922 12.125C181.578 10.7031 181.07 9.50781 180.398 8.53906C179.727 7.57031 178.898 6.84375 177.914 6.35938C176.93 5.85938 175.82 5.60938 174.586 5.60938C173.336 5.60938 172.227 5.85938 171.258 6.35938C170.305 6.84375 169.492 7.57031 168.82 8.53906C168.148 9.50781 167.633 10.7031 167.273 12.125C166.93 13.5312 166.758 15.1641 166.758 17.0234V18.8281C166.758 20.6719 166.93 22.3047 167.273 23.7266C167.633 25.1484 168.148 26.3516 168.82 27.3359C169.508 28.3047 170.336 29.0391 171.305 29.5391C172.273 30.0391 173.383 30.2891 174.633 30.2891C175.883 30.2891 176.992 30.0391 177.961 29.5391C178.93 29.0391 179.742 28.3047 180.398 27.3359C181.07 26.3516 181.578 25.1484 181.922 23.7266C182.266 22.3047 182.438 20.6719 182.438 18.8281ZM197.227 0.875H202.805L212.133 26.5625L221.438 0.875H227.039L214.359 35H209.883L197.227 0.875ZM194.414 0.875H199.875L200.859 24.4766V35H194.414V0.875ZM224.367 0.875H229.852V35H223.406V24.4766L224.367 0.875ZM259.031 29.9375V35H240.891V29.9375H259.031ZM242.859 0.875V35H236.414V0.875H242.859ZM256.664 14.9609V19.9062H240.891V14.9609H256.664ZM258.961 0.875V5.96094H240.891V0.875H258.961Z" fill="#E0EEF9"/>
<g filter="url(#filter0_f_731_24758)">
<path d="M365.118 56.6465H102.46C93.6234 56.6465 86.46 63.8099 86.46 72.6465V220.025C86.46 228.862 93.6234 236.025 102.46 236.025H365.118C373.955 236.025 381.118 228.862 381.118 220.025V72.6465C381.118 63.8099 373.955 56.6465 365.118 56.6465Z" fill="#E0E8EF" fill-opacity="0.71"/>
</g>
<path d="M362.634 42.2363H96.4971C87.6605 42.2363 80.4971 49.3998 80.4971 58.2363V215.056C80.4971 223.893 87.6605 231.056 96.4971 231.056H362.634C371.471 231.056 378.634 223.893 378.634 215.056V58.2363C378.634 49.3998 371.471 42.2363 362.634 42.2363Z" fill="white"/>
<path d="M80.4971 57.1432C80.4971 48.9104 87.1711 42.2363 95.404 42.2363H363.727C371.959 42.2363 378.633 48.9104 378.633 57.1432H80.4971Z" fill="#1A81C5"/>
<path fill-rule="evenodd" clip-rule="evenodd" d="M351.801 49.6895C351.801 51.0617 350.689 52.174 349.317 52.174C347.945 52.174 346.832 51.0617 346.832 49.6895C346.832 48.3174 347.945 47.2051 349.317 47.2051C350.689 47.2051 351.801 48.3174 351.801 49.6895ZM358.758 49.6895C358.758 51.0617 357.645 52.174 356.273 52.174C354.901 52.174 353.789 51.0617 353.789 49.6895C353.789 48.3174 354.901 47.2051 356.273 47.2051C357.645 47.2051 358.758 48.3174 358.758 49.6895ZM363.23 52.174C364.602 52.174 365.714 51.0617 365.714 49.6895C365.714 48.3174 364.602 47.2051 363.23 47.2051C361.858 47.2051 360.745 48.3174 360.745 49.6895C360.745 51.0617 361.858 52.174 363.23 52.174Z" fill="white"/>
<path d="M201.64 95.9004H105.938C97.1019 95.9004 89.9385 103.064 89.9385 111.9V201.639C89.9385 210.476 97.1019 217.639 105.938 217.639H201.64C210.477 217.639 217.64 210.476 217.64 201.639V111.9C217.64 103.064 210.477 95.9004 201.64 95.9004Z" fill="#FAFAFA"/>
<path d="M353.193 68.0742H257.491C248.655 68.0742 241.491 75.2377 241.491 84.0742V128.099C241.491 136.936 248.655 144.099 257.491 144.099H353.193C362.03 144.099 369.193 136.936 369.193 128.099V84.0742C369.193 75.2377 362.03 68.0742 353.193 68.0742Z" fill="#68C2FD"/>
<path d="M357.193 164.473H253.491C246.864 164.473 241.491 169.845 241.491 176.473V205.64C241.491 212.268 246.864 217.64 253.491 217.64H357.193C363.821 217.64 369.193 212.268 369.193 205.64V176.473C369.193 169.845 363.821 164.473 357.193 164.473Z" fill="#FAFAFA"/>
<path fill-rule="evenodd" clip-rule="evenodd" d="M241.49 189.671C243.727 189.883 246.264 189.394 249.147 187.973C254.356 185.407 258.999 182.61 263.278 180.032C275.613 172.602 284.916 166.997 295.98 174.025C299.705 176.391 303.398 179.319 306.982 182.16C317.733 190.683 327.512 198.434 334.297 187.973C335.851 185.578 337.216 183.33 338.452 181.294C344.415 171.474 347.376 166.598 353.988 174.025C355.513 175.738 357.33 178.034 359.327 180.557C362.334 184.356 365.749 188.671 369.192 192.292V176.473C369.192 169.846 363.82 164.473 357.192 164.473H253.49C246.863 164.473 241.49 169.846 241.49 176.473V189.671Z" fill="#68C2FD"/>
<path d="M210.137 68.0742H99.9258C95.5075 68.0742 91.9258 71.6559 91.9258 76.0742V78.4593C91.9258 82.8776 95.5075 86.4593 99.9258 86.4593H210.137C214.555 86.4593 218.137 82.8776 218.137 78.4593V76.0742C218.137 71.6559 214.555 68.0742 210.137 68.0742Z" fill="#68C2FD"/>
<path fill-rule="evenodd" clip-rule="evenodd" d="M217.64 154.244C212.802 156.457 210.766 149.852 208.312 141.89C205.881 134.003 203.039 124.785 196.658 121.491C184.491 115.209 177.687 136.103 174.335 146.398C173.71 148.318 173.204 149.87 172.807 150.807C172.65 151.177 172.485 151.622 172.299 152.121C170.906 155.873 168.374 162.693 159.712 163.727C156.66 164.091 153.744 161.49 149.29 157.517C144.627 153.358 138.28 147.697 128.329 142.36C116.795 136.174 108.348 148.499 100.767 159.561C97.0357 165.005 93.5143 170.143 89.9375 172.619V111.901C89.9375 103.064 97.101 95.9004 105.938 95.9004H201.64C210.476 95.9004 217.64 103.064 217.64 111.901V154.244Z" fill="#68C2FD"/>
<path d="M273.291 89.9375H263.354V127.701H273.291V89.9375Z" fill="#FFFEFE"/>
<path d="M288.696 111.305H278.758V127.702H288.696V111.305Z" fill="#FFFEFE"/>
<path d="M350.311 111.305H340.373V127.702H350.311V111.305Z" fill="#FFFEFE"/>
<path d="M304.099 98.8828H294.161V127.703H304.099V98.8828Z" fill="#FFFEFE"/>
<path d="M319.503 89.4414H309.565V127.702H319.503V89.4414Z" fill="#FFFEFE"/>
<path d="M334.907 100.869H324.969V127.701H334.907V100.869Z" fill="#FFFEFE"/>
<g filter="url(#filter1_i_731_24758)">
<path d="M365.059 138.934L291.435 132.692C284.831 132.132 279.024 137.031 278.464 143.635L276.293 169.232C275.734 175.836 280.633 181.643 287.237 182.203L360.861 188.445C367.465 189.005 373.272 184.106 373.832 177.502L376.002 151.905C376.562 145.301 371.662 139.494 365.059 138.934Z" fill="white"/>
<path d="M365.017 139.431L291.392 133.188C285.064 132.652 279.499 137.347 278.962 143.676L276.792 169.273C276.255 175.602 280.951 181.167 287.279 181.704L360.903 187.946C367.232 188.482 372.797 183.787 373.334 177.459L375.504 151.861C376.04 145.532 371.345 139.967 365.017 139.431Z" stroke="#68C2FD"/>
</g>
<path d="M297.628 164.634C303.917 165.167 309.448 160.501 309.981 154.211C310.514 147.922 305.848 142.391 299.559 141.858C293.269 141.325 287.739 145.991 287.205 152.28C286.672 158.57 291.338 164.1 297.628 164.634Z" fill="#4FC79C"/>
<path d="M364.209 149.832L316.183 145.76L315.931 148.73L363.957 152.802L364.209 149.832Z" fill="#68C2FD" fill-opacity="0.36"/>
<path d="M363.663 156.269L315.637 152.197L315.385 155.168L363.411 159.24L363.663 156.269Z" fill="#68C2FD" fill-opacity="0.36"/>
<path d="M347.273 161.361L315.091 158.633L314.839 161.604L347.022 164.332L347.273 161.361Z" fill="#68C2FD" fill-opacity="0.36"/>
<path d="M362.32 172.111L314.294 168.039L313.79 173.98L361.817 178.052L362.32 172.111Z" fill="#68C2FD" fill-opacity="0.36"/>
<path fill-rule="evenodd" clip-rule="evenodd" d="M396.559 157.539L384.405 153.891C382.137 152.126 379.999 150.835 377.989 150.019C377.404 149.909 376.436 149.973 377.646 151.345C378.855 152.717 380.065 154.214 379.72 154.789C379.375 155.364 378.117 154.931 377.753 155.842C377.51 156.449 379.594 156.885 384.006 157.147L393.456 162.709L396.559 157.539ZM397.633 178.968L387.404 186.479C384.63 187.228 382.313 188.159 380.451 189.273C380.012 189.674 379.48 190.485 381.304 190.345C383.127 190.205 385.051 190.139 385.303 190.761C385.555 191.383 384.451 192.127 384.96 192.966C385.299 193.525 386.901 192.123 389.765 188.758L399.894 184.557L397.633 178.968Z" fill="#B28B67"/>
<path d="M90.8057 107.685C90.6242 107.402 90.4334 107.125 90.2336 106.855L77.9443 115.932L90.8057 107.685Z" fill="#FF9714" stroke="white"/>
<path fill-rule="evenodd" clip-rule="evenodd" d="M421.43 190.412L438.022 230.247L454.331 263.923H450.483L408.387 190.412H421.43Z" fill="#E7C6A9"/>
<path fill-rule="evenodd" clip-rule="evenodd" d="M454.561 262.369C454.92 263.326 455.099 264.043 455.099 264.518C455.099 265.097 455.003 265.94 454.81 267.05C454.139 267.05 448.111 267.05 436.724 267.05C436.254 265.496 436.525 264.657 437.538 264.533C438.551 264.409 439.392 264.298 440.062 264.198L448.468 260.45C448.629 260.378 448.819 260.451 448.891 260.613C448.892 260.615 448.894 260.618 448.895 260.621L449.435 261.932C450.372 262.369 451.134 262.588 451.72 262.588C452.196 262.588 452.854 262.395 453.693 262.011C454.015 261.863 454.396 262.005 454.543 262.327C454.55 262.34 454.555 262.354 454.561 262.369Z" fill="#033F66"/>
<path fill-rule="evenodd" clip-rule="evenodd" d="M452.858 256.927L444.308 258.531C437.698 248.812 410.033 208.963 407 190.412H426.033C436.162 203.823 446.557 247.048 452.858 256.927Z" fill="#00253D"/>
<path fill-rule="evenodd" clip-rule="evenodd" d="M413.52 158.74C407.95 169.126 399.896 177.088 388.219 185.364L392.64 190.35C405.678 185.504 412.559 182.581 415.938 172.769C416.786 170.306 417.379 162.455 417.887 158.324L413.52 158.74Z" fill="#05557A"/>
<path fill-rule="evenodd" clip-rule="evenodd" d="M429.092 193.344H404.401C409.994 176.286 412.851 164.579 412.972 158.222C412.978 157.898 413.577 157.327 413.842 157.402C415.778 157.949 417.85 157.744 420.058 156.789C425.912 166.203 427.936 177.793 429.092 193.344Z" fill="#9FD9FF"/>
<path fill-rule="evenodd" clip-rule="evenodd" d="M418.764 151.528C420.242 149.794 421.242 147.668 421.075 145.287C420.593 138.425 411.041 139.934 409.183 143.398C407.324 146.861 407.545 155.646 409.947 156.265C410.904 156.512 412.945 155.908 415.021 154.656L413.718 163.877H421.414L418.764 151.528Z" fill="#FFDFC1"/>
<path d="M410.201 142.214C410.03 142.272 410.201 141.534 410.611 141.264C411.869 140.437 415.611 139.213 418.17 139.744C419.885 140.1 422.023 140.993 423.392 142.132C424.627 143.159 425.75 144.969 426.187 146.559C426.646 148.228 426.819 150.551 426.187 152.008C425.434 153.742 422.766 155.612 422.696 155.86C422.615 156.144 422.931 157.251 423.161 158.417C423.392 159.583 423.287 162.553 423.161 163.037C422.961 163.811 421.883 164.192 421.413 164.248C418.816 164.558 416.933 167.782 416.149 168.607C412.661 172.109 410.227 173.632 408.846 173.176C408.483 173.056 409.028 168.705 409.391 166.84C409.754 164.975 413.318 161.646 413.547 160.55C413.681 159.904 413.703 158.779 413.717 158.727C414.054 156.41 413.996 156.222 414.486 155.278C414.976 154.334 415.356 154.278 415.239 154.003C414.663 152.659 412.811 148.547 412.391 147.203C411.89 145.6 412.127 146.126 411.611 144.529C411.382 143.822 411.091 141.915 410.201 142.214Z" fill="#2E2F30"/>
<path fill-rule="evenodd" clip-rule="evenodd" d="M416.823 142.393C417.385 144.177 417.506 145.13 417.385 147.569H417.661C418.177 145.267 417.718 143.101 417.17 142.393H416.823ZM424.369 146.999C423.321 149.542 422.843 151.044 419.916 153.102L420.142 153.261C423.048 151.614 423.894 149.649 424.59 147.105L424.369 146.999ZM420.062 144.41C419.586 148.021 419.447 150.083 416.967 154.032L417.231 154.113C419.783 150.674 420.188 147.868 420.309 144.43L420.062 144.41ZM422.802 155.134L422.576 154.86C419.495 155.825 419.839 157.817 415.959 159.835L416.283 160.031C419.68 158.629 420.475 155.622 422.802 155.134Z" fill="#C8C7C5"/>
<path fill-rule="evenodd" clip-rule="evenodd" d="M424.516 190.412C423.938 198.304 386.69 221.537 386.473 222.188C386.376 222.478 390.241 231.636 398.067 249.663L394.811 250.928C382.807 231.837 377.114 221.274 377.731 219.239C378.613 216.327 388.247 206.746 406.63 190.496L424.516 190.412Z" fill="#E7C6A8"/>
<path fill-rule="evenodd" clip-rule="evenodd" d="M397.21 245.592L391.894 247.527C380.685 234.879 376.291 224.444 377.092 219.127C377.626 215.582 387.226 206.017 405.892 190.432H424.898C424.249 208.707 389.725 222.258 389.264 223.037C388.802 223.815 393.346 231.443 397.21 245.592Z" fill="#001726"/>
<path fill-rule="evenodd" clip-rule="evenodd" d="M399.265 249.04C399.929 249.818 400.343 250.43 400.506 250.876C400.703 251.42 400.902 252.246 401.1 253.354C400.47 253.583 394.805 255.645 384.105 259.54C383.132 258.24 383.1 257.359 384.009 256.897C384.918 256.434 385.67 256.041 386.266 255.718L392.883 249.322C393.01 249.199 393.213 249.202 393.336 249.329C393.339 249.331 393.341 249.334 393.343 249.336L394.299 250.383C395.329 250.473 396.12 250.418 396.67 250.218C397.118 250.055 397.67 249.649 398.327 249.001C398.579 248.752 398.985 248.755 399.234 249.007C399.245 249.018 399.255 249.029 399.265 249.04Z" fill="#033F66"/>
<path fill-rule="evenodd" clip-rule="evenodd" d="M417.951 156.803C410.874 156.861 399.391 158.153 386.148 153.902L384.841 160.435C394.849 166.872 404.984 171.858 413.865 171.15C410.008 187.692 410.186 201.233 418.7 201.233C422.766 201.233 427.154 201.233 431.865 201.233C433.956 187.181 428.461 167.698 423.366 157.87C423.171 157.495 422.757 156.788 421.782 156.788C420.932 156.788 419.656 156.788 417.956 156.788C417.955 156.793 417.953 156.798 417.951 156.803Z" fill="#05618C"/>
<path d="M54.5318 261.457V258.319H58.9255C58.7162 259.365 58.4233 261.583 58.9255 262.085C59.4276 262.587 59.1347 265.223 58.9255 266.479C56.4148 266.479 51.3936 266.353 51.3936 265.851C51.3936 265.349 53.4857 262.713 54.5318 261.457Z" fill="black"/>
<path d="M75.2446 263.968V258.947L79.0105 257.691L79.6382 261.457L89.0531 265.223L89.6807 266.479H74.6169L75.2446 263.968Z" fill="black"/>
<path d="M87.7973 194.297H63.3186C60.808 194.925 54.5314 236.978 52.6484 258.946H60.808L72.1059 208.733H74.6165L73.3612 258.946H81.5207L87.7973 194.297Z" fill="#34383B"/>
<path d="M53.4803 206.223C52.6434 206.432 50.593 206.599 49.0866 205.595C47.5803 204.591 48.459 200.992 49.0866 199.318L53.4803 199.584L55.1591 203.084C54.113 202.875 54.1079 201.987 53.4803 202.615C52.7701 203.325 54.1079 204.967 53.4803 206.223Z" fill="#FDCFA5"/>
<path d="M102.234 148.478C100.979 148.478 101.816 152.662 102.234 155.382L106 156.638C106.628 156.638 107.632 155.257 109.139 149.734C111.022 142.829 106.628 144.713 106 145.34C105.29 146.05 104.326 148.269 104.117 149.734C102.862 149.106 103.357 148.478 102.234 148.478Z" fill="#FDCFA5"/>
<path d="M69.5957 145.34L70.2234 141.574H75.8723L76.4999 145.968L75.8723 148.478L72.734 147.851L69.5957 145.34Z" fill="#FFBC80"/>
<path d="M69.5961 144.713L68.3408 145.968C72.86 158.019 72.316 183.209 71.4791 194.298H82.777C83.7812 176.221 79.8479 154.546 77.7557 145.968L76.5004 145.341L73.9897 147.851L69.5961 144.713Z" fill="white"/>
<path d="M85.9149 148.478C83.4042 145.968 78.5922 145.34 76.5 145.34C81.0191 145.842 81.5213 183.627 81.5213 201.829H90.3085C90.8106 200.825 89.2624 176.304 88.4255 164.17C90.0993 165.634 93.4468 171.074 99.0957 176.095C104.725 181.099 106.418 176.932 107.255 173.584L107.883 155.382L101.606 154.755L100.351 165.425C96.5851 160.822 88.4255 150.989 85.9149 148.478Z" fill="#4B5256"/>
<path d="M57.6702 149.735C59.6787 147.726 65.6205 146.387 68.3404 145.969C71.8553 151.994 71.4787 185.72 70.851 201.83H59.5532C59.7624 190.742 60.1808 168.062 60.1808 166.054C59.1766 166.054 55.578 176.515 53.9042 181.745V199.947H48.2553C47 198.064 47 179.862 47 176.724C47 173.586 55.1596 152.245 57.6702 149.735Z" fill="#4B5256"/>
<path d="M72.7342 142.83C70.8512 142.83 67.3364 140.445 65.83 135.926C65.2023 135.926 63.3192 135.926 64.5747 133.415C64.7577 133.049 65.6255 132.665 65.7996 133.198C65.3843 130.189 64.8499 124.215 65.83 122.745C67.0853 120.862 72.1065 116.468 78.3831 121.489C79.8895 120.987 78.5924 122.536 79.0108 122.745L79.6385 124L79.6384 125.883L79.6385 129.649L79.6384 133.415C79.8477 132.578 81.5214 132.16 81.5214 134.043C81.5214 135.926 80.2661 135.089 79.6384 135.926C79.4292 138.018 79.2619 142.83 72.7342 142.83Z" fill="#FDD0A5"/>
<path d="M79.6387 132.16C78.2694 127.139 78.0313 125.883 72.7345 125.883C65.2026 125.883 66.2487 131.532 65.8303 133.415C64.575 130.695 63.9474 123.373 67.7133 120.862C71.4792 117.723 75.2452 118.979 79.0111 121.49C79.6387 120.862 81.5217 121.741 81.5217 122.745C81.5217 123.749 80.6848 125.256 80.2664 125.883C80.6848 130.277 79.0111 136.553 79.6387 132.16Z" fill="#75574D"/>
</g>
<defs>
<filter id="filter0_f_731_24758" x="46.46" y="16.6465" width="374.658" height="259.379" filterUnits="userSpaceOnUse" color-interpolation-filters="sRGB">
<feFlood flood-opacity="0" result="BackgroundImageFix"/>
<feBlend mode="normal" in="SourceGraphic" in2="BackgroundImageFix" result="shape"/>
<feGaussianBlur stdDeviation="20" result="effect1_foregroundBlur_731_24758"/>
</filter>
<filter id="filter1_i_731_24758" x="276.25" y="132.646" width="99.7959" height="59.8418" filterUnits="userSpaceOnUse" color-interpolation-filters="sRGB">
<feFlood flood-opacity="0" result="BackgroundImageFix"/>
<feBlend mode="normal" in="SourceGraphic" in2="BackgroundImageFix" result="shape"/>
<feColorMatrix in="SourceAlpha" type="matrix" values="0 0 0 0 0 0 0 0 0 0 0 0 0 0 0 0 0 0 127 0" result="hardAlpha"/>
<feOffset dy="4"/>
<feGaussianBlur stdDeviation="8"/>
<feComposite in2="hardAlpha" operator="arithmetic" k2="-1" k3="1"/>
<feColorMatrix type="matrix" values="0 0 0 0 0.666667 0 0 0 0 0.666667 0 0 0 0 0.666667 0 0 0 0.25 0"/>
<feBlend mode="normal" in2="shape" result="effect1_innerShadow_731_24758"/>
</filter>
<clipPath id="clip0_731_24758">
<rect width="480" height="277" fill="white"/>
</clipPath>
</defs>
</svg>
